SplineFontDB: 3.2
FontName: AtkinsonHyperPro-Regular
FullName: Atkinson Hyperlegible Pro Regular
FamilyName: Atkinson Hyperlegible Pro
Weight: Regular
Copyright: Copyright 2020 Braille Institute of America, Inc.
UComments: "Update by Jacob Perez+AAoA-https://jacobxperez.github.io/atkinson-hyperlegible-pro/"
Version: 1.3.2
ItalicAngle: 0
UnderlinePosition: -106
UnderlineWidth: 57
Ascent: 800
Descent: 200
InvalidEm: 0
sfntRevision: 0x00010000
LayerCount: 2
Layer: 0 1 "Back" 1
Layer: 1 1 "Fore" 0
XUID: [1021 466 782043844 18134]
StyleMap: 0x0040
FSType: 0
OS2Version: 4
OS2_WeightWidthSlopeOnly: 0
OS2_UseTypoMetrics: 1
CreationTime: 1615339189
ModificationTime: 1697445097
PfmFamily: 81
TTFWeight: 400
TTFWidth: 5
LineGap: 0
VLineGap: 0
Panose: 0 0 0 0 0 0 0 0 0 0
OS2TypoAscent: 950
OS2TypoAOffset: 0
OS2TypoDescent: -290
OS2TypoDOffset: 0
OS2TypoLinegap: 0
OS2WinAscent: 950
OS2WinAOffset: 0
OS2WinDescent: 290
OS2WinDOffset: 0
HheadAscent: 950
HheadAOffset: 0
HheadDescent: -290
HheadDOffset: 0
OS2SubXSize: 650
OS2SubYSize: 699
OS2SubXOff: 0
OS2SubYOff: 140
OS2SupXSize: 650
OS2SupYSize: 699
OS2SupXOff: 0
OS2SupYOff: 479
OS2StrikeYSize: 49
OS2StrikeYPos: 258
OS2CapHeight: 668
OS2XHeight: 496
OS2Vendor: 'NONE'
OS2CodePages: 20000003.00000000
OS2UnicodeRanges: 800000ef.0000204b.00000000.00000000
Lookup: 4 0 1 "'liga' Standard Ligatures lookup 0" { "'liga' Standard Ligatures lookup 0-1"  } ['liga' ('DFLT' <'dflt' > 'grek' <'dflt' > 'latn' <'MOL ' 'dflt' > ) ]
Lookup: 1 0 0 "'zero' Slashed Zero lookup 0" { "'zero' Slashed Zero lookup 0-1"  } ['zero' ('DFLT' <'dflt' > 'grek' <'dflt' > 'latn' <'MOL ' 'dflt' > ) ]
Lookup: 1 0 0 "'aalt' Access All Alternates lookup 0" { "'aalt' Access All Alternates lookup 0 subtable"  } ['aalt' ('DFLT' <'dflt' > 'grek' <'dflt' > 'latn' <'dflt' > ) ]
Lookup: 3 0 0 "'aalt' Access All Alternates lookup 1" { "'aalt' Access All Alternates lookup 1 subtable"  } ['aalt' ('DFLT' <'dflt' > 'grek' <'dflt' > 'latn' <'dflt' > ) ]

StartChar: .notdef
Encoding: 256 -1 0
Width: 523
GlyphClass: 1
Flags: W
HStem: 0 21<77 447> 680 20<76 447>
VStem: 48 21<49 650> 455 20<47 652>
DStem2: 76 680 69 650 0.513698 -0.857971<22.1432 360.147 396.696 737.787> 69 49 77 21 0.513896 0.857853<0 339.381 374.897 715.649>
LayerCount: 2
Fore
SplineSet
77 21 m 1,0,-1
 447 21 l 1,1,-1
 262 329 l 1,2,-1
 77 21 l 1,0,-1
69 49 m 1,3,-1
 249 350 l 1,4,-1
 69 650 l 1,5,-1
 69 49 l 1,3,-1
455 47 m 1,6,-1
 455 652 l 1,7,-1
 274 350 l 1,8,-1
 455 47 l 1,6,-1
261 371 m 1,9,-1
 447 680 l 1,10,-1
 76 680 l 1,11,-1
 261 371 l 1,9,-1
48 0 m 1,12,-1
 48 700 l 1,13,-1
 475 700 l 1,14,-1
 475 0 l 1,15,-1
 48 0 l 1,12,-1
EndSplineSet
EndChar

StartChar: zero
Encoding: 48 48 5
Width: 648
GlyphClass: 1
Flags: W
HStem: -12 74<241.71 405.758> 606 74<241.784 406.264>
VStem: 60 91<178.645 483.639> 497 91<191.284 490.558>
DStem2: 217 566 171 486 0.571572 -0.820552<39.3519 458.851>
LayerCount: 2
Fore
SplineSet
323.410770233 62 m 0,0,1
 393 62 393 62 435 107 c 1,2,-1
 171 486 l 1,3,4
 161 455 161 455 155.971909226 416.786510116 c 0,5,6
 151 379 151 379 151 334.399245243 c 0,7,8
 151 204 151 204 192.29764059 135.008647485 c 0,9,10
 236 62 236 62 323.410770233 62 c 0,0,1
480 190 m 1,11,12
 497 250 497 250 497 333.683991532 c 0,13,14
 497 466 497 466 455.468140963 534.405414884 c 0,15,16
 412 606 412 606 324.444516019 606 c 0,17,18
 259 606 259 606 217 566 c 1,19,-1
 480 190 l 1,11,12
324 -12 m 128,-1,21
 195 -12 195 -12 127.196936278 77.9018400464 c 0,22,23
 60 167 60 167 60 334.311564988 c 0,24,25
 60 502 60 502 127.260148667 590.683751576 c 0,26,27
 195 680 195 680 324.114392488 680 c 0,28,29
 453 680 453 680 520.794301627 590.611957855 c 0,30,31
 588 502 588 502 588 334.682975115 c 0,32,33
 588 167 588 167 520.834937111 77.9441017985 c 0,34,20
 453 -12 453 -12 324 -12 c 128,-1,21
EndSplineSet
Substitution2: "'zero' Slashed Zero lookup 0-1" zero.alt1
Substitution2: "'tnum' Tabular Numbers lookup 14 subtable" zero.tf
Substitution2: "'aalt' Access All Alternates lookup 0 subtable" zero.alt1
EndChar

StartChar: one
Encoding: 49 49 6
Width: 402
GlyphClass: 1
Flags: W
HStem: 0 21G<220 304> 504 67<42 179.693> 648 20G<241 304>
VStem: 220 84<0 504> 248 56<627.838 668>
LayerCount: 2
Fore
SplineSet
220 0 m 1,0,-1
 220 504 l 1,1,-1
 42 504 l 1,2,-1
 42 571 l 1,3,4
 90 571 90 571 124.591914502 576.834780759 c 0,5,6
 173 585 173 585 201.823410771 604.845627088 c 0,7,8
 234 627 234 627 248 668 c 1,9,-1
 304 668 l 1,10,-1
 304 0 l 1,11,-1
 220 0 l 1,0,-1
EndSplineSet
Substitution2: "'tnum' Tabular Numbers lookup 14 subtable" one.tf
Substitution2: "'sups' Superscript lookup 9 subtable" uni00B9
AlternateSubs2: "'aalt' Access All Alternates lookup 1 subtable" uni00B9 one.tf
EndChar

StartChar: two
Encoding: 50 50 7
Width: 549
GlyphClass: 1
Flags: W
HStem: 0 77<147 515> 498 21G<73 149> 610 70<201.861 362.075>
VStem: 59 84<520 552.373> 408 89<409.966 565.093>
LayerCount: 2
Fore
SplineSet
34 0 m 1,0,-1
 34 75 l 1,1,2
 152 162 152 162 226.76595753 227.364250296 c 0,3,4
 319 308 319 308 361.875123154 369.181355511 c 0,5,6
 408 435 408 435 408 495.135150594 c 0,7,8
 408 546 408 546 375.969868481 577.059521473 c 0,9,10
 342 610 342 610 285.612309577 610 c 0,11,12
 236 610 236 610 200.904965074 587.903126158 c 0,13,14
 155 559 155 559 143 498 c 1,15,-1
 59 522 l 1,16,17
 77 595 77 595 136.490105938 637.13882504 c 0,18,19
 197 680 197 680 285.674287556 680 c 0,20,21
 347 680 347 680 394.205456969 659.627118571 c 0,22,23
 442 639 442 639 468.318723043 601.675265502 c 0,24,25
 497 561 497 561 497 503.657433713 c 0,26,27
 497 447 497 447 467.330878592 388.191562924 c 0,28,29
 441 336 441 336 387.060150253 278.207303842 c 0,30,31
 343 231 343 231 270.822359736 171.997643276 c 0,32,33
 217 128 217 128 147 77 c 1,34,-1
 515 77 l 1,35,-1
 515 0 l 1,36,-1
 34 0 l 1,0,-1
EndSplineSet
Substitution2: "'tnum' Tabular Numbers lookup 14 subtable" two.tf
Substitution2: "'sups' Superscript lookup 9 subtable" uni00B2
AlternateSubs2: "'aalt' Access All Alternates lookup 1 subtable" uni00B2 two.tf
EndChar

StartChar: three
Encoding: 51 51 8
Width: 574
GlyphClass: 1
Flags: W
HStem: -12 70<187.918 364.345> 314 76<218 352.888> 498 21G<65.6667 139> 610 70<192.879 359.747>
VStem: 52 82<519.951 551.657> 407 88<436.191 566.009> 424 90<113.963 257.768>
LayerCount: 2
Fore
SplineSet
270.5 -12 m 128,-1,1
 205 -12 205 -12 154.736319622 11.2800203857 c 0,2,3
 110 32 110 32 80.0728709915 71.5465633326 c 0,4,5
 54 106 54 106 42 151 c 1,6,-1
 125 175 l 1,7,8
 136 123 136 123 169.765254342 92.9350475038 c 0,9,10
 209 58 209 58 274.681583103 58 c 0,11,12
 339 58 339 58 379.363552853 89.8159769544 c 0,13,14
 424 125 424 125 424 187.550503047 c 0,15,16
 424 225 424 225 406.433315022 251.898986372 c 0,17,18
 392 274 392 274 363.868383128 288.628440774 c 0,19,20
 342 300 342 300 310.393366689 306.654028065 c 0,21,22
 285 312 285 312 248.03771486 313.449501378 c 0,23,24
 234 314 234 314 218 314 c 1,25,-1
 218 390 l 1,26,27
 246 390 246 390 269.769243655 392.19408403 c 0,28,29
 311 396 311 396 337.696230954 405.502048306 c 0,30,31
 370 417 370 417 386.936463009 437.598400957 c 0,32,33
 407 462 407 462 407 500.989704157 c 0,34,35
 407 555 407 555 365.088677681 584.9366588 c 0,36,37
 330 610 330 610 276.026429574 610 c 0,38,39
 216 610 216 610 178.001888717 577.279404173 c 0,40,41
 144 548 144 548 134 498 c 1,42,-1
 52 522 l 1,43,44
 70 593 70 593 125.989944947 634.633548807 c 0,45,46
 187 680 187 680 280.569906996 680 c 0,47,48
 337 680 337 680 381.529871156 665.005247468 c 0,49,50
 435 647 435 647 463.211572536 611.735534329 c 0,51,52
 495 572 495 572 495 513.708169699 c 0,53,54
 495 459 495 459 467.11408963 418.167059815 c 0,55,56
 439 377 439 377 386 355 c 1,57,58
 461 332 461 332 492.032930867 278.717043229 c 0,59,60
 514 241 514 241 514 187.526318118 c 0,61,62
 514 121 514 121 477.574243812 73.3251132243 c 0,63,64
 446 32 446 32 389.749268612 9.49970744478 c 0,65,0
 336 -12 336 -12 270.5 -12 c 128,-1,1
EndSplineSet
Substitution2: "'tnum' Tabular Numbers lookup 14 subtable" three.tf
Substitution2: "'sups' Superscript lookup 9 subtable" uni00B3
AlternateSubs2: "'aalt' Access All Alternates lookup 1 subtable" uni00B3 three.tf
EndChar

StartChar: four
Encoding: 52 52 9
Width: 614
GlyphClass: 1
Flags: W
HStem: 0 21G<370 454> 165 79<129 370 454 576> 648 20G<353.387 454>
VStem: 370 84<0 165 244 553>
DStem2: 38 244 129 244 0.615355 0.78825<55.9973 447.867>
LayerCount: 2
Fore
SplineSet
129 244 m 1,0,-1
 370 244 l 1,1,-1
 370 553 l 1,2,-1
 129 244 l 1,0,-1
370 0 m 1,3,-1
 370 165 l 1,4,-1
 38 165 l 1,5,-1
 38 244 l 1,6,-1
 369 668 l 1,7,-1
 454 668 l 1,8,-1
 454 244 l 1,9,-1
 576 244 l 1,10,-1
 576 165 l 1,11,-1
 454 165 l 1,12,-1
 454 0 l 1,13,-1
 370 0 l 1,3,-1
EndSplineSet
Substitution2: "'tnum' Tabular Numbers lookup 14 subtable" four.tf
Substitution2: "'sups' Superscript lookup 9 subtable" uni2074
AlternateSubs2: "'aalt' Access All Alternates lookup 1 subtable" four.tf uni2074
EndChar

StartChar: five
Encoding: 53 53 10
Width: 583
GlyphClass: 1
Flags: W
HStem: -12 70<196.344 362.682> 378 72<202.649 363.326> 587 81<181 496>
VStem: 433 88<130.449 308.542>
DStem2: 72 328 158 400 0.119721 0.992808<0 14.3669 81.7781 270.187>
LayerCount: 2
Fore
SplineSet
278.80781793 -12 m 0,0,1
 217 -12 217 -12 167.753780553 11.0514218689 c 0,2,3
 123 32 123 32 92.7871904823 71.9240697198 c 0,4,5
 67 106 67 106 54 151 c 1,6,-1
 136 175 l 1,7,8
 148 120 148 120 181.347103415 90.8799942012 c 0,9,10
 219 58 219 58 278.653316595 58 c 0,11,12
 324 58 324 58 358.27151208 77.1517273387 c 0,13,14
 392 96 392 96 411.304999478 129.901462498 c 0,15,16
 433 168 433 168 433 221.012715869 c 0,17,18
 433 275 433 275 408.40606041 313.257239362 c 0,19,20
 388 345 388 345 351.39497068 362.506753153 c 0,21,22
 319 378 319 378 280.019017541 378 c 0,23,24
 231 378 231 378 191.716767296 348.83517572 c 0,25,26
 165 329 165 329 154 304 c 1,27,-1
 72 328 l 1,28,-1
 113 668 l 1,29,-1
 496 668 l 1,30,-1
 496 587 l 1,31,-1
 181 587 l 1,32,-1
 158 400 l 1,33,34
 184 426 184 426 225.733702964 439.007907417 c 0,35,36
 261 450 261 450 299.95199922 450 c 0,37,38
 361 450 361 450 410.110513902 423.212446962 c 0,39,40
 460 396 460 396 488.406554692 348.500515105 c 0,41,42
 521 294 521 294 521 219.514383838 c 0,43,44
 521 144 521 144 485.267415878 88.5344962883 c 0,45,46
 454 40 454 40 399.537321596 13.7772289166 c 0,47,48
 346 -12 346 -12 278.80781793 -12 c 0,0,1
EndSplineSet
Substitution2: "'tnum' Tabular Numbers lookup 14 subtable" five.tf
Substitution2: "'aalt' Access All Alternates lookup 0 subtable" five.tf
EndChar

StartChar: six
Encoding: 54 54 11
Width: 598
GlyphClass: 1
Flags: W
HStem: -12 71<222.747 382.636> 371 74<223.215 382.211> 610 70<237.924 388.144>
VStem: 60 87<352 480.544> 448 90<126.558 303.77>
LayerCount: 2
Fore
SplineSet
302.5 59 m 128,-1,1
 369 59 369 59 409.088069175 103.147620484 c 0,2,3
 448 146 448 146 448 214.741255296 c 0,4,5
 448 284 448 284 408.976599608 326.97513714 c 0,6,7
 369 371 369 371 302.300606977 371 c 0,8,9
 236 371 236 371 195.941578171 326.885029125 c 0,10,11
 157 284 157 284 157 215.245606955 c 0,12,13
 157 146 157 146 195.947011362 103.108987487 c 0,14,0
 236 59 236 59 302.5 59 c 128,-1,1
300.180208269 -12 m 0,15,16
 178 -12 178 -12 117.203653966 74.5575096079 c 0,17,18
 60 156 60 156 60 307.433857488 c 0,19,20
 60 381 60 381 72.5817028717 442.510547373 c 0,21,22
 87 513 87 513 116.074709272 563.046630715 c 0,23,24
 148 618 148 618 194.847644151 647.045539373 c 0,25,26
 248 680 248 680 322.623349416 680 c 0,27,28
 395 680 395 680 446.496510167 645.295830105 c 0,29,30
 487 618 487 618 509 573 c 1,31,-1
 424 548 l 1,32,33
 409 577 409 577 380.769788126 593.0620171 c 0,34,35
 351 610 351 610 312.27820514 610 c 0,36,37
 233 610 233 610 189.410022487 535.424375821 c 0,38,39
 150 468 150 468 147 352 c 1,40,41
 170 391 170 391 207.248104723 414.388344826 c 0,42,43
 256 445 256 445 321.372067392 445 c 0,44,45
 385 445 385 445 434.77128546 415.239849931 c 0,46,47
 482 387 482 387 508.964592925 337.885920029 c 0,48,49
 538 285 538 285 538 220.480324455 c 128,-1,50
 538 156 538 156 508.893848439 103.307829071 c 0,51,52
 480 51 480 51 430.773360184 21.4640161103 c 0,53,54
 375 -12 375 -12 300.180208269 -12 c 0,15,16
EndSplineSet
Substitution2: "'tnum' Tabular Numbers lookup 14 subtable" six.tf
Substitution2: "'aalt' Access All Alternates lookup 0 subtable" six.tf
EndChar

StartChar: seven
Encoding: 55 55 12
Width: 510
GlyphClass: 1
Flags: W
HStem: 0 21G<93 207.472> 587 81<15 383>
LayerCount: 2
Fore
SplineSet
93 0 m 1,0,-1
 383 587 l 1,1,-1
 15 587 l 1,2,-1
 15 668 l 1,3,-1
 476 668 l 1,4,-1
 476 587 l 1,5,-1
 198 0 l 1,6,-1
 93 0 l 1,0,-1
EndSplineSet
Substitution2: "'tnum' Tabular Numbers lookup 14 subtable" seven.tf
Substitution2: "'aalt' Access All Alternates lookup 0 subtable" seven.tf
EndChar

StartChar: eight
Encoding: 56 56 13
Width: 615
GlyphClass: 1
Flags: W
HStem: -12 74<211.674 402.627> 317 74<243.242 371.063> 606 74<241.79 371.929>
VStem: 60 91<118.246 259.892> 126 74<433.453 564.053> 414 75<433.428 564.163> 464 91<118.153 259.684>
LayerCount: 2
Fore
SplineSet
307.5 62 m 128,-1,1
 379 62 379 62 421.352428776 95.8819430211 c 0,2,3
 464 130 464 130 464 188.550693889 c 128,-1,4
 464 247 464 247 421.652471158 281.874435517 c 0,5,6
 379 317 379 317 307.435987198 317 c 128,-1,7
 236 317 236 317 193.530724239 282.025302315 c 128,-1,8
 151 247 151 247 151 188.489431067 c 128,-1,9
 151 130 151 130 193.736851897 95.8105184826 c 0,10,0
 236 62 236 62 307.5 62 c 128,-1,1
307 391 m 128,-1,12
 351 391 351 391 382.149956779 422.149956779 c 0,13,14
 414 454 414 454 414 499.124325607 c 0,15,16
 414 544 414 544 382.218818132 575.276718663 c 0,17,18
 351 606 351 606 307.098631198 606 c 128,-1,19
 263 606 263 606 231.608369274 575.106649126 c 0,20,21
 200 544 200 544 200 498.961363121 c 128,-1,22
 200 454 200 454 231.670207725 422.329792275 c 0,23,11
 263 391 263 391 307 391 c 128,-1,12
307.5 -12 m 128,-1,25
 238 -12 238 -12 182.695980311 11.2079368337 c 0,26,27
 126 35 126 35 94.6074472185 77.3323817811 c 0,28,29
 60 124 60 124 60 188.78554563 c 0,30,31
 60 253 60 253 95.8566732519 300.984665675 c 0,32,33
 128 344 128 344 183 366 c 1,34,35
 157 391 157 391 142.359893183 423.113782695 c 0,36,37
 126 459 126 459 126 499.472169969 c 0,38,39
 126 549 126 549 151.209060568 591.186591155 c 0,40,41
 175 631 175 631 214.41558689 654.553216556 c 0,42,43
 257 680 257 680 307.978678069 680 c 0,44,45
 358 680 358 680 400.288123385 654.730267733 c 0,46,47
 440 631 440 631 463.537600362 591.610546332 c 0,48,49
 489 549 489 549 489 498.444405037 c 0,50,51
 489 459 489 459 472.694150827 423.232330846 c 0,52,53
 458 391 458 391 432 366 c 1,54,55
 488 344 488 344 519.957593435 300.594910409 c 0,56,57
 555 253 555 253 555 187.531744196 c 0,58,59
 555 124 555 124 520.351335457 77.2768008437 c 0,60,61
 489 35 489 35 433.021493608 11.5090196392 c 128,-1,24
 377 -12 377 -12 307.5 -12 c 128,-1,25
EndSplineSet
Substitution2: "'tnum' Tabular Numbers lookup 14 subtable" eight.tf
Substitution2: "'aalt' Access All Alternates lookup 0 subtable" eight.tf
EndChar

StartChar: nine
Encoding: 57 57 14
Width: 598
GlyphClass: 1
Flags: W
HStem: 0 21G<213 336> 201 86<221.077 351.279> 594 85<220.458 378.786>
VStem: 60 86<362.32 519.591> 454 84<362.703 519.214>
DStem2: 257.714 63.5416 317 0 0.567206 0.823576<-18.7041 170.449>
LayerCount: 2
Fore
SplineSet
299.5 287 m 128,-1,1
 342 287 342 287 378.133756263 308.680253758 c 0,2,3
 412 329 412 329 432.209134433 362.681890722 c 0,4,5
 454 399 454 399 454 441.388157501 c 0,6,7
 454 483 454 483 432.500324497 518.832792505 c 0,8,9
 412 553 412 553 378.119563131 572.844255881 c 0,10,11
 342 594 342 594 299.165462082 594 c 0,12,13
 257 594 257 594 221.374488265 573.133628841 c 0,14,15
 187 553 187 553 166.938613714 518.748852682 c 0,16,17
 146 483 146 483 146 440.777715875 c 0,18,19
 146 399 146 399 166.884714123 363.34317101 c 0,20,21
 187 329 187 329 220.816939912 308.709836053 c 0,22,0
 257 287 257 287 299.5 287 c 128,-1,1
213 0 m 1,23,24
 240 38 240 38 257.714352 63.5416238139 c 0,25,26
 283 100 283 100 306.806007407 136.204969598 c 0,27,28
 331 173 331 173 352 207 c 1,29,30
 327 201 327 201 299.050025507 201 c 0,31,32
 234 201 234 201 178.145325786 234.307833247 c 0,33,34
 125 266 125 266 93.6298522779 318.605324642 c 0,35,36
 60 375 60 375 60 441.819648659 c 0,37,38
 60 507 60 507 92.6665793262 562.124852613 c 0,39,40
 124 615 124 615 176.907938969 646.065211872 c 0,41,42
 233 679 233 679 300.724257795 679 c 0,43,44
 368 679 368 679 423.645394952 645.509716001 c 0,45,46
 476 614 476 614 506.329999648 560.677903844 c 0,47,48
 538 505 538 505 538 441.142215045 c 0,49,50
 538 393 538 393 522.301727493 354.095585527 c 0,51,52
 515 336 515 336 496.547608252 300.632915816 c 0,53,54
 479 267 479 267 456.547879036 226.994402646 c 0,55,56
 424 169 424 169 391.945026599 116.504173996 c 0,57,58
 355 56 355 56 317 0 c 1,59,-1
 213 0 l 1,23,24
EndSplineSet
Substitution2: "'tnum' Tabular Numbers lookup 14 subtable" nine.tf
Substitution2: "'aalt' Access All Alternates lookup 0 subtable" nine.tf
EndChar

StartChar: A
Encoding: 65 65 15
Width: 626
GlyphClass: 2
Flags: W
HStem: 0 21G<10 116.986 509.014 616> 146 81<190 436> 574 95<261 366>
DStem2: 10 0 110 0 0.351277 0.936272<35.1277 189.738 275.763 643.857> 366 669 313 574 0.350049 -0.936731<70.4369 438.539 524.565 679.181>
AnchorPoint: "Anchor-2" 615 0 basechar 0
AnchorPoint: "Anchor-1" 313 0 basechar 0
AnchorPoint: "Anchor-0" 313 668 basechar 0
LayerCount: 2
Fore
SplineSet
190 227 m 1,0,-1
 436 227 l 1,1,-1
 313 574 l 1,2,-1
 190 227 l 1,0,-1
10 0 m 1,3,-1
 261 669 l 1,4,-1
 366 669 l 1,5,-1
 616 0 l 1,6,-1
 516 0 l 1,7,-1
 465 146 l 1,8,-1
 161 146 l 1,9,-1
 110 0 l 1,10,-1
 10 0 l 1,3,-1
EndSplineSet
Substitution2: "Single Substitution lookup 12 subtable" ordfeminine
Substitution2: "'aalt' Access All Alternates lookup 0 subtable" ordfeminine
EndChar

StartChar: B
Encoding: 66 66 16
Width: 619
GlyphClass: 1
Flags: W
HStem: 0 79<170 438.529> 308 74<170 420.083> 589 79<170 419.62>
VStem: 76 94<79 308 382 589> 457 95<419.058 550.765> 484 97<124.574 264.367>
AnchorPoint: "Anchor-0" 290 668 basechar 0
LayerCount: 2
Fore
SplineSet
170 79 m 1,0,-1
 371 79 l 2,1,2
 408 79 408 79 435.206451761 97.5003871975 c 0,3,4
 458 113 458 113 471.212968173 139.93412743 c 0,5,6
 484 166 484 166 484 195.164594073 c 0,7,8
 484 224 484 224 472.150947837 248.172066412 c 0,9,10
 459 275 459 275 435.373144484 290.287965334 c 0,11,12
 408 308 408 308 370 308 c 2,13,-1
 170 308 l 1,14,-1
 170 79 l 1,0,-1
170 382 m 1,15,-1
 355 382 l 2,16,17
 406 382 406 382 434.804580261 418.146924249 c 0,18,19
 457 446 457 446 457 483.213435949 c 0,20,21
 457 510 457 510 445.961781056 533.036283014 c 0,22,23
 434 558 434 558 413.390468766 572.197677072 c 0,24,25
 389 589 389 589 355 589 c 2,26,-1
 170 589 l 1,27,-1
 170 382 l 1,15,-1
76 0 m 1,28,-1
 76 668 l 1,29,-1
 345 668 l 2,30,31
 418 668 418 668 467.883872471 641.687627708 c 0,32,33
 509 620 509 620 531.313138176 581.08173574 c 0,34,35
 552 545 552 545 552 502.057138691 c 0,36,37
 552 462 552 462 534.490021633 424.061713539 c 0,38,39
 516 384 516 384 482 355 c 1,40,41
 532 329 532 329 558.336233815 281.164799806 c 0,42,43
 581 240 581 240 581 192.934749869 c 0,44,45
 581 144 581 144 557.747542905 102.240485217 c 0,46,47
 532 56 532 56 486.42416711 29.9566669202 c 0,48,49
 434 0 434 0 361 0 c 2,50,-1
 76 0 l 1,28,-1
EndSplineSet
EndChar

StartChar: C
Encoding: 67 67 17
Width: 656
GlyphClass: 2
Flags: W
HStem: -12 79<266.285 456.736> 499 21G<521 586.667> 601 79<264.095 452.663>
VStem: 50 96<203.171 466.143>
AnchorPoint: "Anchor-1" 348 0 basechar 0
AnchorPoint: "Anchor-0" 353 668 basechar 0
LayerCount: 2
Fore
SplineSet
353.329656868 -12 m 0,0,1
 258 -12 258 -12 187.685466341 34.0146580559 c 0,2,3
 122 77 122 77 86.2384359904 154.483388687 c 0,4,5
 50 233 50 233 50 334.441267619 c 0,6,7
 50 439 50 439 89.1323974521 517.773007858 c 0,8,9
 127 594 127 594 195.488942453 636.071778935 c 0,10,11
 267 680 267 680 358.646865014 680 c 0,12,13
 445 680 445 680 511.367811435 641.654153393 c 0,14,15
 580 602 580 602 614 529 c 1,16,-1
 532 499 l 1,17,18
 510 544 510 544 468.806018774 570.382662134 c 0,19,20
 421 601 421 601 358.68428224 601 c 0,21,22
 297 601 297 601 250.34039134 571.530773478 c 0,23,24
 202 541 202 541 175.305051794 484.273235062 c 0,25,26
 146 422 146 422 146 334.749139577 c 0,27,28
 146 251 146 251 173.674999833 189.50000037 c 0,29,30
 200 131 200 131 248.566127975 98.9563691709 c 128,-1,31
 297 67 297 67 362.597387883 67 c 0,32,33
 424 67 424 67 470.759642838 96.4217977407 c 0,34,35
 513 123 513 123 536 169 c 1,36,-1
 618 139 l 1,37,38
 582 65 582 65 510.152561659 25.4839089127 c 0,39,40
 442 -12 442 -12 353.329656868 -12 c 0,0,1
EndSplineSet
EndChar

StartChar: D
Encoding: 68 68 18
Width: 673
GlyphClass: 2
Flags: W
HStem: 0 79<170 402.565> 589 79<170 402.33>
VStem: 76 94<79 589> 527 96<200.324 468.032>
AnchorPoint: "Anchor-1" 337 0 basechar 0
AnchorPoint: "Anchor-0" 327 668 basechar 0
LayerCount: 2
Fore
SplineSet
170 79 m 1,0,-1
 256 79 l 2,1,2
 308 79 308 79 347.844469185 85.9830513005 c 0,3,4
 405 96 405 96 440.871387508 119.758970947 c 0,5,6
 482 147 482 147 503.154502773 195.420306348 c 0,7,8
 527 250 527 250 527 336.234115285 c 0,9,10
 527 420 527 420 502.711598134 474.513968632 c 0,11,12
 482 521 482 521 440.357567353 548.581351494 c 0,13,14
 405 572 405 572 348.847640155 581.84113523 c 0,15,16
 308 589 308 589 256 589 c 2,17,-1
 170 589 l 1,18,-1
 170 79 l 1,0,-1
76 0 m 1,19,-1
 76 668 l 1,20,-1
 258 668 l 2,21,22
 338 668 338 668 400.120339919 652.586682577 c 0,23,24
 471 635 471 635 518.126675171 598.45278252 c 0,25,26
 569 559 569 559 595.013537753 496.856548701 c 0,27,28
 623 430 623 430 623 333.643291621 c 0,29,30
 623 239 623 239 594.74332348 171.497939425 c 0,31,32
 569 110 569 110 518.241522799 70.1183393419 c 0,33,34
 471 33 471 33 400.408169313 15.4847337393 c 0,35,36
 338 0 338 0 258 0 c 2,37,-1
 76 0 l 1,19,-1
EndSplineSet
EndChar

StartChar: E
Encoding: 69 69 19
Width: 567
GlyphClass: 2
Flags: W
HStem: 0 81<170 529> 303 81<170 435> 587 81<170 529>
VStem: 76 94<81 303 384 587>
AnchorPoint: "Anchor-2" 506 0 basechar 0
AnchorPoint: "Anchor-1" 284 0 basechar 0
AnchorPoint: "Anchor-0" 304 668 basechar 0
LayerCount: 2
Fore
SplineSet
76 0 m 1,0,-1
 76 668 l 1,1,-1
 529 668 l 1,2,-1
 529 587 l 1,3,-1
 170 587 l 1,4,-1
 170 384 l 1,5,-1
 435 384 l 1,6,-1
 435 303 l 1,7,-1
 170 303 l 1,8,-1
 170 81 l 1,9,-1
 529 81 l 1,10,-1
 529 0 l 1,11,-1
 76 0 l 1,0,-1
EndSplineSet
EndChar

StartChar: F
Encoding: 70 70 20
Width: 548
GlyphClass: 1
Flags: W
HStem: 0 21G<76 170> 303 81<170 510> 587 81<170 510>
VStem: 76 94<0 303 384 587>
AnchorPoint: "Anchor-0" 305 668 basechar 0
LayerCount: 2
Fore
SplineSet
76 0 m 1,0,-1
 76 668 l 1,1,-1
 510 668 l 1,2,-1
 510 587 l 1,3,-1
 170 587 l 1,4,-1
 170 384 l 1,5,-1
 510 384 l 1,6,-1
 510 303 l 1,7,-1
 170 303 l 1,8,-1
 170 0 l 1,9,-1
 76 0 l 1,0,-1
EndSplineSet
EndChar

StartChar: G
Encoding: 71 71 21
Width: 710
GlyphClass: 2
Flags: W
HStem: -12 79<264.907 463.551> 0 21G<582.048 642> 264 81<358 553> 499 21G<521 587.333> 601 79<264.093 452.694>
VStem: 50 96<203.194 466.137> 553 89<149.291 264> 588 54<0 23.52>
AnchorPoint: "Anchor-1" 355 0 basechar 0
AnchorPoint: "Anchor-0" 359 668 basechar 0
LayerCount: 2
Fore
SplineSet
351.846559773 -12 m 0,0,1
 256 -12 256 -12 186.034914721 34.1251302952 c 0,2,3
 121 77 121 77 85.6740833935 154.61750691 c 0,4,5
 50 233 50 233 50 334.037218021 c 0,6,7
 50 439 50 439 89.1695093462 517.847713619 c 0,8,9
 127 594 127 594 195.47179137 636.06124327 c 0,10,11
 267 680 267 680 358.652196045 680 c 0,12,13
 445 680 445 680 511.550459039 641.548623666 c 0,14,15
 580 602 580 602 615 529 c 1,16,-1
 532 499 l 1,17,18
 510 544 510 544 468.806018774 570.382662134 c 0,19,20
 421 601 421 601 358.68428224 601 c 0,21,22
 297 601 297 601 250.34039134 571.530773478 c 0,23,24
 202 541 202 541 175.305051794 484.273235062 c 0,25,26
 146 422 146 422 146 334.349803901 c 0,27,28
 146 251 146 251 173.151033796 189.525961217 c 0,29,30
 199 131 199 131 246.311871855 99.1267389606 c 0,31,32
 294 67 294 67 357.375043264 67 c 0,33,34
 389 67 389 67 418.986236692 73.8539969581 c 0,35,36
 459 83 459 83 486.483296738 101.480147807 c 0,37,38
 517 122 517 122 533.487023731 153.142155937 c 0,39,40
 553 190 553 190 553 242 c 2,41,-1
 553 264 l 1,42,-1
 358 264 l 1,43,-1
 358 345 l 1,44,-1
 642 345 l 1,45,-1
 642 0 l 1,46,-1
 588 0 l 1,47,-1
 563 84 l 1,48,49
 531 33 531 33 471.077675481 8.70716573547 c 0,50,51
 420 -12 420 -12 351.846559773 -12 c 0,0,1
EndSplineSet
EndChar

StartChar: H
Encoding: 72 72 22
Width: 690
GlyphClass: 2
Flags: W
HStem: 0 21G<76 170 520 614> 303 81<170 520> 648 20G<76 170 520 614>
VStem: 76 94<0 303 384 668> 520 94<0 303 384 668>
AnchorPoint: "Anchor-1" 345 0 basechar 0
AnchorPoint: "Anchor-0" 345 668 basechar 0
LayerCount: 2
Fore
SplineSet
76 0 m 1,0,-1
 76 668 l 1,1,-1
 170 668 l 1,2,-1
 170 384 l 1,3,-1
 520 384 l 1,4,-1
 520 668 l 1,5,-1
 614 668 l 1,6,-1
 614 0 l 1,7,-1
 520 0 l 1,8,-1
 520 303 l 1,9,-1
 170 303 l 1,10,-1
 170 0 l 1,11,-1
 76 0 l 1,0,-1
EndSplineSet
EndChar

StartChar: I
Encoding: 73 73 23
Width: 414
GlyphClass: 2
Flags: W
HStem: 0 74<66 160 254 348> 594 74<66 160 254 348>
VStem: 160 94<74 594>
AnchorPoint: "Anchor-2" 273 0 basechar 0
AnchorPoint: "Anchor-1" 207 0 basechar 0
AnchorPoint: "Anchor-0" 207 668 basechar 0
LayerCount: 2
Fore
SplineSet
66 0 m 1,0,-1
 66 74 l 1,1,-1
 160 74 l 1,2,-1
 160 594 l 1,3,-1
 66 594 l 1,4,-1
 66 668 l 1,5,-1
 348 668 l 1,6,-1
 348 594 l 1,7,-1
 254 594 l 1,8,-1
 254 74 l 1,9,-1
 348 74 l 1,10,-1
 348 0 l 1,11,-1
 66 0 l 1,0,-1
EndSplineSet
EndChar

StartChar: J
Encoding: 74 74 24
Width: 510
GlyphClass: 1
Flags: W
HStem: -12 77<153.982 293.53> 648 20G<340 434>
VStem: 15 87<120.762 189> 340 94<115.628 668>
AnchorPoint: "Anchor-0" 388 668 basechar 0
LayerCount: 2
Fore
SplineSet
222.885614594 -12 m 0,0,1
 130 -12 130 -12 76.5418636789 37.0842888039 c 0,2,3
 20 89 20 89 15 189 c 1,4,-1
 102 214 l 1,5,6
 100 138 100 138 141.217579784 97.3394145372 c 0,7,8
 174 65 174 65 221.851337669 65 c 0,9,10
 251 65 251 65 273.810034976 75.1377933228 c 0,11,12
 305 89 305 89 321.063086175 118.372500435 c 0,13,14
 340 153 340 153 340 213 c 2,15,-1
 340 668 l 1,16,-1
 434 668 l 1,17,-1
 434 212 l 2,18,19
 434 103 434 103 377.039133838 44.5133963518 c 0,20,21
 322 -12 322 -12 222.885614594 -12 c 0,0,1
EndSplineSet
EndChar

StartChar: K
Encoding: 75 75 25
Width: 627
GlyphClass: 2
Flags: W
HStem: 0 21G<76 170 487.5 617> 648 20G<76 170 453.083 588>
VStem: 76 94<0 210 332 668> 471 117<551 668> 502 115<0 115>
DStem2: 170 332 270 320 0.674116 0.738625<0 58.5481 151.983 451.087> 333 389 270 320 0.589652 -0.807657<18.5803 413.83>
AnchorPoint: "Anchor-1" 314 0 basechar 0
AnchorPoint: "Anchor-0" 314 668 basechar 0
LayerCount: 2
Fore
SplineSet
76 0 m 1,0,-1
 76 668 l 1,1,-1
 170 668 l 1,2,-1
 170 332 l 1,3,-1
 471 668 l 1,4,-1
 588 668 l 1,5,-1
 333 389 l 1,6,-1
 617 0 l 1,7,-1
 502 0 l 1,8,-1
 270 320 l 1,9,-1
 170 210 l 1,10,-1
 170 0 l 1,11,-1
 76 0 l 1,0,-1
EndSplineSet
EndChar

StartChar: L
Encoding: 76 76 26
Width: 539
GlyphClass: 2
Flags: W
HStem: 0 81<170 529> 648 20G<76 170>
VStem: 76 94<81 668>
AnchorPoint: "Anchor-1" 305 0 basechar 0
AnchorPoint: "Anchor-0" 135 668 basechar 0
LayerCount: 2
Fore
SplineSet
76 0 m 1,0,-1
 76 668 l 1,1,-1
 170 668 l 1,2,-1
 170 81 l 1,3,-1
 529 81 l 1,4,-1
 529 0 l 1,5,-1
 76 0 l 1,0,-1
EndSplineSet
EndChar

StartChar: M
Encoding: 77 77 27
Width: 820
GlyphClass: 1
Flags: W
HStem: 0 122<303 518> 648 20G<76 238.52 581.48 744>
VStem: 76 94<0 570> 650 94<0 570>
DStem2: 410 122 457 0 0.320711 0.947177<0 501.306>
AnchorPoint: "Anchor-0" 410 668 basechar 0
LayerCount: 2
Fore
SplineSet
76 0 m 1,0,-1
 76 668 l 1,1,-1
 232 668 l 1,2,-1
 410 122 l 1,3,-1
 588 668 l 1,4,-1
 744 668 l 1,5,-1
 744 0 l 1,6,-1
 650 0 l 1,7,-1
 650 570 l 1,8,-1
 457 0 l 1,9,-1
 364 0 l 1,10,-1
 170 570 l 1,11,-1
 170 0 l 1,12,-1
 76 0 l 1,0,-1
EndSplineSet
EndChar

StartChar: N
Encoding: 78 78 28
Width: 689
GlyphClass: 2
Flags: W
HStem: 0 21G<76 170 464.317 613> 648 20G<76 225.704 519 613>
VStem: 76 94<0 571> 519 94<100 668>
DStem2: 215 668 170 571 0.471149 -0.882053<64.3575 644.236>
AnchorPoint: "Anchor-1" 311 0 basechar 0
AnchorPoint: "Anchor-0" 362 668 basechar 0
LayerCount: 2
Fore
SplineSet
76 0 m 1,0,-1
 76 668 l 1,1,-1
 215 668 l 1,2,-1
 519 100 l 1,3,-1
 519 668 l 1,4,-1
 613 668 l 1,5,-1
 613 0 l 1,6,-1
 475 0 l 1,7,-1
 170 571 l 1,8,-1
 170 0 l 1,9,-1
 76 0 l 1,0,-1
EndSplineSet
EndChar

StartChar: O
Encoding: 79 79 29
Width: 727
GlyphClass: 2
Flags: W
HStem: -12 79<270.004 456.791> 601 79<269.579 457.05>
VStem: 50 96<205.961 463.081> 581 96<206.144 463.346>
AnchorPoint: "Anchor-2" 654 10 basechar 0
AnchorPoint: "Anchor-1" 364 0 basechar 0
AnchorPoint: "Anchor-0" 364 668 basechar 0
LayerCount: 2
Fore
SplineSet
363.5 67 m 128,-1,1
 424 67 424 67 472.421892726 97.3248217074 c 0,2,3
 523 129 523 129 550.638771933 185.707135519 c 0,4,5
 581 248 581 248 581 335.491907636 c 0,6,7
 581 421 581 421 550.659115361 483.25112538 c 0,8,9
 523 540 523 540 472.820850168 570.918466058 c 0,10,11
 424 601 424 601 363.708953924 601 c 0,12,13
 303 601 303 601 254.823900661 571.315736771 c 0,14,15
 204 540 204 540 176.19140154 482.944427297 c 0,16,17
 146 421 146 421 146 333.629377996 c 0,18,19
 146 248 146 248 176.402216613 185.623038328 c 0,20,21
 204 129 204 129 253.964954509 97.7088163679 c 0,22,0
 303 67 303 67 363.5 67 c 128,-1,1
363.5 -12 m 128,-1,24
 267 -12 267 -12 194.776672165 33.9134012664 c 0,25,26
 127 77 127 77 89.0785516575 154.320355711 c 0,27,28
 50 234 50 234 50 335.376615241 c 0,29,30
 50 436 50 436 88.9117820516 514.328911922 c 0,31,32
 127 591 127 591 194.352954821 633.817235565 c 0,33,34
 267 680 267 680 364.395433387 680 c 0,35,36
 460 680 460 680 532.386967269 633.982570807 c 0,37,38
 600 591 600 591 637.718417821 515.073314777 c 0,39,40
 677 436 677 436 677 334.492541868 c 0,41,42
 677 234 677 234 638.280556118 155.052562473 c 0,43,44
 600 77 600 77 532.323254893 33.9769263247 c 0,45,23
 460 -12 460 -12 363.5 -12 c 128,-1,24
EndSplineSet
Substitution2: "Single Substitution lookup 12 subtable" ordmasculine
Substitution2: "'aalt' Access All Alternates lookup 0 subtable" ordmasculine
EndChar

StartChar: P
Encoding: 80 80 30
Width: 601
GlyphClass: 1
Flags: W
HStem: 1 21G<76 170> 266 81<170 420.615> 589 79<170 418.012>
VStem: 76 94<1 266 347 589> 467 96<388.638 543.84>
AnchorPoint: "Anchor-0" 294 668 basechar 0
LayerCount: 2
Fore
SplineSet
170 347 m 1,0,-1
 293 347 l 2,1,2
 342 347 342 347 372.521462785 352.478211269 c 0,3,4
 420 361 420 361 442.162870219 385.04907194 c 0,5,6
 467 412 467 412 467 467.253949601 c 0,7,8
 467 521 467 521 441.014361728 549.750067876 c 0,9,10
 420 573 420 573 374.874136957 582.256587291 c 0,11,12
 342 589 342 589 293 589 c 2,13,-1
 170 589 l 1,14,-1
 170 347 l 1,0,-1
76 1 m 1,15,-1
 76 668 l 1,16,-1
 285 668 l 2,17,18
 367 668 367 668 421.816193243 653.96705453 c 0,19,20
 492 636 492 636 525.736655495 594.660717915 c 0,21,22
 563 549 563 549 563 465.500202039 c 0,23,24
 563 384 563 384 524.94534188 337.369644276 c 0,25,26
 492 297 492 297 422.350974654 279.727041714 c 0,27,28
 367 266 367 266 285 266 c 2,29,-1
 170 266 l 1,30,-1
 170 1 l 1,31,-1
 76 1 l 1,15,-1
EndSplineSet
EndChar

StartChar: Q
Encoding: 81 81 31
Width: 753
GlyphClass: 1
Flags: W
HStem: -12 79<270.605 458.871> 601 79<269.579 457.053>
VStem: 50 96<205.974 463.081> 581 96<206.672 463.378>
DStem2: 393 362 329 294 0.729032 -0.68448<0 227.798 331.872 493.692>
LayerCount: 2
Fore
SplineSet
365.195993392 67 m 0,0,1
 451 67 451 67 508 126 c 1,2,-1
 329 294 l 1,3,-1
 393 362 l 1,4,-1
 559 206 l 1,5,6
 570 233 570 233 575.536668296 265.716676297 c 0,7,8
 581 298 581 298 581 335.228335784 c 0,9,10
 581 421 581 421 550.636850688 483.296806348 c 0,11,12
 523 540 523 540 472.830813797 570.912326852 c 0,13,14
 424 601 424 601 363.705867482 601 c 0,15,16
 303 601 303 601 254.824529371 571.316124158 c 0,17,18
 204 540 204 540 176.191312007 482.9442436 c 0,19,20
 146 421 146 421 146 333.629442119 c 0,21,22
 146 248 146 248 176.40222203 185.623027215 c 0,23,24
 204 129 204 129 253.622831184 97.92307542 c 0,25,26
 303 67 303 67 365.195993392 67 c 0,0,1
689 -44 m 1,27,-1
 572 65 l 1,28,29
 533 28 533 28 481.066461696 8.40243837574 c 0,30,31
 427 -12 427 -12 362.402049748 -12 c 0,32,33
 267 -12 267 -12 194.976739307 33.7862157265 c 0,34,35
 127 77 127 77 89.0501879688 154.378188167 c 0,36,37
 50 234 50 234 50 335.358282072 c 0,38,39
 50 436 50 436 88.913535326 514.332441241 c 0,40,41
 127 591 127 591 194.352150396 633.81672418 c 0,42,43
 267 680 267 680 364.3957005 680 c 0,44,45
 460 680 460 680 532.386918432 633.982601854 c 0,46,47
 600 591 600 591 637.71842477 515.073300788 c 0,48,49
 677 436 677 436 677 334.886367986 c 0,50,51
 677 279 677 279 664.890041265 229.046420216 c 0,52,53
 653 180 653 180 630 139 c 1,54,-1
 753 24 l 1,55,-1
 689 -44 l 1,27,-1
EndSplineSet
EndChar

StartChar: R
Encoding: 82 82 32
Width: 618
GlyphClass: 2
Flags: W
HStem: 0 21G<76 170 458.552 588> 281 79<170 270> 589 79<170 423.813>
VStem: 76 94<0 281 360 589> 470 96<400.56 547.448> 473 115<0 115>
DStem2: 381 288 270 281 0.583636 -0.812015<0 287.555>
AnchorPoint: "Anchor-1" 309 0 basechar 0
AnchorPoint: "Anchor-0" 303 668 basechar 0
LayerCount: 2
Fore
SplineSet
170 360 m 1,0,-1
 295 360 l 2,1,2
 344 360 344 360 375.22151911 365.532927437 c 0,3,4
 423 374 423 374 445.268053799 397.215630556 c 0,5,6
 470 423 470 423 470 475.157816921 c 0,7,8
 470 526 470 526 443.942406834 552.612010042 c 0,9,10
 423 574 423 574 377.36135713 582.665565102 c 0,11,12
 344 589 344 589 295 589 c 2,13,-1
 170 589 l 1,14,-1
 170 360 l 1,0,-1
76 0 m 1,15,-1
 76 668 l 1,16,-1
 288 668 l 2,17,18
 370 668 370 668 423.825502453 655.512483431 c 0,19,20
 495 639 495 639 528.886315191 599.386420269 c 0,21,22
 566 556 566 556 566 478.561389364 c 0,23,24
 566 431 566 431 553.937852946 397.398304634 c 0,25,26
 538 353 538 353 500.80328482 327.574397218 c 0,27,28
 459 299 459 299 381 288 c 1,29,-1
 588 0 l 1,30,-1
 473 0 l 1,31,-1
 270 281 l 1,32,-1
 170 281 l 1,33,-1
 170 0 l 1,34,-1
 76 0 l 1,15,-1
EndSplineSet
EndChar

StartChar: S
Encoding: 83 83 33
Width: 596
GlyphClass: 2
Flags: W
HStem: -12 79<202.267 395.882> 601 79<195.164 383.188>
VStem: 46 97<441.951 555.547> 457 99<120.748 243.126>
DStem2: 286 392 238 313 0.975916 -0.218146<-127.454 171.986>
AnchorPoint: "Anchor-1" 298 0 basechar 0
AnchorPoint: "Anchor-0" 298 668 basechar 0
LayerCount: 2
Fore
SplineSet
296.48221257 -12 m 0,0,1
 241 -12 241 -12 191.558104031 4.1636967591 c 0,2,3
 137 22 137 22 99.6799978391 55.0683563451 c 0,4,5
 58 92 58 92 40 146 c 1,6,-1
 127 172 l 1,7,8
 139 136 139 136 167.686839578 111.031824812 c 0,9,10
 193 89 193 89 230.632195455 77.3393197183 c 0,11,12
 264 67 264 67 299.826918343 67 c 0,13,14
 340 67 340 67 373.875201312 79.2327115848 c 0,15,16
 412 93 412 93 433.092559486 117.842347839 c 0,17,18
 457 146 457 146 457 184.204011946 c 0,19,20
 457 227 457 227 426.530708044 251.375433565 c 0,21,22
 397 275 397 275 323 294 c 2,23,-1
 238 313 l 2,24,25
 192 325 192 325 158.666517539 339.981340432 c 0,26,27
 103 365 103 365 76.4327382694 399.490831019 c 0,28,29
 46 439 46 439 46 496.210176911 c 0,30,31
 46 558 46 558 84.7782066882 601.693754015 c 0,32,33
 117 638 117 638 174.496481326 659.37037359 c 0,34,35
 230 680 230 680 289.703172014 680 c 0,36,37
 338 680 338 680 381.779927885 667.010351067 c 0,38,39
 429 653 429 653 463.391977116 627.088236419 c 0,40,41
 502 598 502 598 523 555 c 1,42,-1
 437 530 l 1,43,44
 418 565 418 565 372.058851535 584.457427585 c 0,45,46
 333 601 333 601 288.283431015 601 c 0,47,48
 251 601 251 601 219.550793021 590.040427871 c 0,49,50
 185 578 185 578 165.5978305 556.750004833 c 0,51,52
 143 532 143 532 143 496.747332016 c 0,53,54
 143 464 143 464 164.469506925 441.979992898 c 0,55,56
 182 424 182 424 221.672412595 409.962069389 c 0,57,58
 247 401 247 401 286 392 c 2,59,-1
 359 376 l 2,60,61
 410 364 410 364 446.680582725 346.882394728 c 0,62,63
 500 322 500 322 525.913803259 286.831267005 c 0,64,65
 556 246 556 246 556 186.704684142 c 0,66,67
 556 136 556 136 532.253711531 96.6027486761 c 0,68,69
 512 63 512 63 473.829385245 37.7248632027 c 0,70,71
 438 14 438 14 391.377293527 0.965694964494 c 0,72,73
 345 -12 345 -12 296.48221257 -12 c 0,0,1
EndSplineSet
EndChar

StartChar: T
Encoding: 84 84 34
Width: 558
GlyphClass: 2
Flags: W
HStem: 0 21G<232 326> 587 81<10 232 326 548>
VStem: 232 94<0 587>
AnchorPoint: "Anchor-1" 279 0 basechar 0
AnchorPoint: "Anchor-0" 279 668 basechar 0
LayerCount: 2
Fore
SplineSet
232 0 m 1,0,-1
 232 587 l 1,1,-1
 10 587 l 1,2,-1
 10 668 l 1,3,-1
 548 668 l 1,4,-1
 548 587 l 1,5,-1
 326 587 l 1,6,-1
 326 0 l 1,7,-1
 232 0 l 1,0,-1
EndSplineSet
EndChar

StartChar: U
Encoding: 85 85 35
Width: 690
GlyphClass: 2
Flags: W
HStem: -12 81<247.057 443.587> 648 20G<76 170 520 614>
VStem: 76 94<152.068 668> 520 94<152.105 668>
AnchorPoint: "Anchor-2" 427 0 basechar 0
AnchorPoint: "Anchor-1" 345 0 basechar 0
AnchorPoint: "Anchor-0" 345 668 basechar 0
LayerCount: 2
Fore
SplineSet
345.5 -12 m 128,-1,1
 200 -12 200 -12 135.629320918 63.2721650553 c 0,2,3
 76 133 76 133 76 279 c 2,4,-1
 76 668 l 1,5,-1
 170 668 l 1,6,-1
 170 272 l 2,7,8
 170 173 170 173 207.091797972 124.170291278 c 0,9,10
 249 69 249 69 346.420237692 69 c 0,11,12
 441 69 441 69 482.761532878 123.977207839 c 0,13,14
 520 173 520 173 520 272 c 2,15,-1
 520 668 l 1,16,-1
 614 668 l 1,17,-1
 614 279 l 2,18,19
 614 133 614 133 554.975863501 63.4187008751 c 0,20,0
 491 -12 491 -12 345.5 -12 c 128,-1,1
EndSplineSet
EndChar

StartChar: V
Encoding: 86 86 36
Width: 589
GlyphClass: 1
Flags: W
HStem: 0 21G<232.144 355.886> 648 20G<10 119.487 469.477 579>
VStem: 10 103<565 668> 476 103<565 668>
DStem2: 113 668 10 668 0.324288 -0.945958<0 586.541> 294 110 349 0 0.325554 0.945523<0 586.853>
LayerCount: 2
Fore
SplineSet
239 0 m 1,0,-1
 10 668 l 1,1,-1
 113 668 l 1,2,-1
 294 110 l 1,3,-1
 476 668 l 1,4,-1
 579 668 l 1,5,-1
 349 0 l 1,6,-1
 239 0 l 1,0,-1
EndSplineSet
EndChar

StartChar: W
Encoding: 87 87 37
Width: 840
GlyphClass: 1
Flags: W
HStem: 0 21G<172.97 295.674 544.326 668> 552 116<307 533>
VStem: 10 103<565 668> 727 103<565 668>
DStem2: 113 668 10 668 0.243902 -0.9698<0 567.037> 243 116 291 0 0.227564 0.973763<0 464.84> 597 116 663 0 0.242536 0.970143<0 567.048>
AnchorPoint: "Anchor-0" 420 668 basechar 0
LayerCount: 2
Fore
SplineSet
178 0 m 1,0,-1
 10 668 l 1,1,-1
 113 668 l 1,2,-1
 243 116 l 1,3,-1
 365 668 l 1,4,-1
 475 668 l 1,5,-1
 597 116 l 1,6,-1
 727 668 l 1,7,-1
 830 668 l 1,8,-1
 663 0 l 1,9,-1
 549 0 l 1,10,-1
 420 552 l 1,11,-1
 291 0 l 1,12,-1
 178 0 l 1,0,-1
EndSplineSet
EndChar

StartChar: X
Encoding: 88 88 38
Width: 623
GlyphClass: 1
Flags: W
HStem: 0 21G<10 137.189 485.736 613> 648 20G<24 150.286 471.714 599>
VStem: 10 113<0 113> 24 112<556 668> 486 113<555 668> 500 113<0 113>
DStem2: 10 0 123 0 0.580315 0.814392<65.5756 390.489 519.163 820.244> 136 668 24 668 0.581123 -0.813816<0 301.081 429.664 755.158>
LayerCount: 2
Fore
SplineSet
10 0 m 1,0,-1
 255 344 l 1,1,-1
 24 668 l 1,2,-1
 136 668 l 1,3,-1
 311 423 l 1,4,-1
 486 668 l 1,5,-1
 599 668 l 1,6,-1
 368 344 l 1,7,-1
 613 0 l 1,8,-1
 500 0 l 1,9,-1
 311 265 l 1,10,-1
 123 0 l 1,11,-1
 10 0 l 1,0,-1
EndSplineSet
EndChar

StartChar: Y
Encoding: 89 89 39
Width: 595
GlyphClass: 2
Flags: W
HStem: 0 21G<251 345> 648 20G<10 124.455 470.607 585>
VStem: 251 94<0 259>
DStem2: 113 668 10 668 0.507664 -0.861555<0 372.2> 298 345 345 259 0.506098 0.862476<0 371.702>
AnchorPoint: "Anchor-1" 298 0 basechar 0
AnchorPoint: "Anchor-0" 298 668 basechar 0
LayerCount: 2
Fore
SplineSet
251 0 m 1,0,-1
 251 259 l 1,1,-1
 10 668 l 1,2,-1
 113 668 l 1,3,-1
 298 345 l 1,4,-1
 482 668 l 1,5,-1
 585 668 l 1,6,-1
 345 259 l 1,7,-1
 345 0 l 1,8,-1
 251 0 l 1,0,-1
EndSplineSet
EndChar

StartChar: Z
Encoding: 90 90 40
Width: 607
GlyphClass: 2
Flags: W
HStem: 0 81<156 563> 587 81<59 438>
DStem2: 44 81 156 81 0.614372 0.789016<68.8097 641.305>
AnchorPoint: "Anchor-1" 304 0 basechar 0
AnchorPoint: "Anchor-0" 304 668 basechar 0
LayerCount: 2
Fore
SplineSet
44 0 m 1,0,-1
 44 81 l 1,1,-1
 438 587 l 1,2,-1
 59 587 l 1,3,-1
 59 668 l 1,4,-1
 548 668 l 1,5,-1
 548 587 l 1,6,-1
 156 81 l 1,7,-1
 563 81 l 1,8,-1
 563 0 l 1,9,-1
 44 0 l 1,0,-1
EndSplineSet
EndChar

StartChar: a
Encoding: 97 97 41
Width: 526
GlyphClass: 2
Flags: W
HStem: -12 67<156.491 315.424> 0 21G<392.118 475> 239 67<239.2 373> 437 67<186.831 335.1>
VStem: 38 93<80.2382 180.138> 373 85<303.53 398.089> 380 78<118.044 239>
AnchorPoint: "Anchor-2" 475 0 basechar 0
AnchorPoint: "Anchor-1" 263 0 basechar 0
AnchorPoint: "Anchor-0" 263 496 basechar 0
LayerCount: 2
Fore
SplineSet
228.487262384 55 m 0,0,1
 266 55 266 55 296.661313421 67.2645253684 c 0,2,3
 336 83 336 83 356.503707743 114.221554972 c 0,4,5
 380 150 380 150 380 208 c 2,6,-1
 380 239 l 1,7,8
 304 231 304 231 256.703103285 221.287244425 c 0,9,10
 192 208 192 208 162.403004409 188.106937389 c 0,11,12
 131 167 131 167 131 130.705678849 c 0,13,14
 131 98 131 98 155.346885797 77.4722335438 c 0,15,16
 182 55 182 55 228.487262384 55 c 0,0,1
214.716017992 -12 m 0,17,18
 162 -12 162 -12 122.564244015 5.18994491661 c 0,19,20
 84 22 84 22 62.1487839858 52.4016918458 c 0,21,22
 38 86 38 86 38 131.003708194 c 0,23,24
 38 190 38 190 82.6896412848 226.613200089 c 0,25,26
 121 258 121 258 205.33252867 278.664261992 c 0,27,28
 272 295 272 295 373 306 c 1,29,30
 375 369 375 369 348.961706886 401.788961699 c 0,31,32
 321 437 321 437 261.443197857 437 c 0,33,34
 216 437 216 437 186.946936006 416.102182039 c 0,35,36
 159 396 159 396 151 360 c 1,37,-1
 70 384 l 1,38,39
 90 441 90 441 142.637613251 473.195821697 c 0,40,41
 193 504 193 504 268.39553034 504 c 0,42,43
 363 504 363 504 409.623106077 456.395354848 c 0,44,45
 458 407 458 407 458 303 c 2,46,-1
 458 187 l 2,47,48
 458 125 458 125 463.98078432 71.17294112 c 0,49,50
 468 35 468 35 475 0 c 1,51,-1
 398 0 l 1,52,-1
 378 68 l 1,53,54
 356 31 356 31 317.043971676 10.5718388059 c 0,55,56
 274 -12 274 -12 214.716017992 -12 c 0,17,18
EndSplineSet
Substitution2: "Single Substitution lookup 12 subtable" ordfeminine
Substitution2: "'aalt' Access All Alternates lookup 0 subtable" ordfeminine
EndChar

StartChar: b
Encoding: 98 98 42
Width: 566
GlyphClass: 1
Flags: W
HStem: -12 72<220.405 367.194> 0 21G<70 137.867> 432 72<220.644 367.214> 648 20G<70 154>
VStem: 70 84<131.726 359.203 418 668> 70 62<0 23.8636> 434 94<137.114 356.303>
AnchorPoint: "Anchor-0" 315 496 basechar 0
LayerCount: 2
Fore
SplineSet
293 60 m 128,-1,1
 357 60 357 60 394.75616021 108.053294812 c 0,2,3
 434 158 434 158 434 246.923386137 c 0,4,5
 434 335 434 335 394.649111406 384.571898619 c 0,6,7
 357 432 357 432 293.357578499 432 c 0,8,9
 229 432 229 432 191.39761992 384.630767952 c 0,10,11
 152 335 152 335 152 245.990087115 c 0,12,13
 152 158 152 158 191.242755912 108.054674294 c 0,14,0
 229 60 229 60 293 60 c 128,-1,1
310.75735885 -12 m 0,15,16
 257 -12 257 -12 215.241847429 12.5329146356 c 0,17,18
 177 35 177 35 154 75 c 1,19,-1
 132 0 l 1,20,-1
 70 0 l 1,21,-1
 70 668 l 1,22,-1
 154 668 l 1,23,-1
 154 418 l 1,24,25
 177 457 177 457 214.101331676 478.79703236 c 0,26,27
 257 504 257 504 311.759831242 504 c 0,28,29
 372 504 372 504 420.163696703 473.711489703 c 0,30,31
 469 443 469 443 496.72920739 388.951544918 c 0,32,33
 528 328 528 328 528 244.805052367 c 0,34,35
 528 164 528 164 496.786308279 103.159753425 c 0,36,37
 469 49 469 49 421.089420406 18.8706664412 c 0,38,39
 372 -12 372 -12 310.75735885 -12 c 0,15,16
EndSplineSet
EndChar

StartChar: c
Encoding: 99 99 43
Width: 500
GlyphClass: 2
Flags: W
HStem: -12 74<199.862 349.004> 430 74<198.807 346.969>
VStem: 38 91<141.236 354.122>
AnchorPoint: "Anchor-1" 270 0 basechar 0
AnchorPoint: "Anchor-0" 275 496 basechar 0
LayerCount: 2
Fore
SplineSet
267.554095703 -12 m 0,0,1
 198 -12 198 -12 144.512048363 22.4585842275 c 0,2,3
 94 55 94 55 66.2769339389 112.426351127 c 0,4,5
 38 171 38 171 38 244.711375323 c 0,6,7
 38 320 38 320 67.6688215763 378.83478177 c 0,8,9
 97 437 97 437 149.314180997 469.45416784 c 0,10,11
 205 504 205 504 275.801103636 504 c 0,12,13
 345 504 345 504 398.70768241 467.075968343 c 0,14,15
 441 438 441 438 465 392 c 1,16,-1
 388 364 l 1,17,18
 372 394 372 394 341.491073425 411.714860592 c 0,19,20
 310 430 310 430 273.103002299 430 c 0,21,22
 235 430 235 430 203.994589014 411.678620781 c 0,23,24
 169 391 169 391 150.135827223 352.800050127 c 0,25,26
 129 310 129 310 129 247.022748541 c 0,27,28
 129 185 129 185 151.051832259 140.358485914 c 0,29,30
 170 102 170 102 203.792666305 81.2045130428 c 0,31,32
 235 62 235 62 274.364391489 62 c 0,33,34
 313 62 313 62 345.385436973 81.6436257047 c 0,35,36
 374 99 374 99 390 127 c 1,37,-1
 467 99 l 1,38,39
 439 51 439 51 390.567341005 21.6609854163 c 0,40,41
 335 -12 335 -12 267.554095703 -12 c 0,0,1
EndSplineSet
EndChar

StartChar: d
Encoding: 100 100 44
Width: 564
GlyphClass: 2
Flags: W
HStem: -12 72<199.354 346.726> 0 21G<428.133 513> 432 72<198.572 346.903> 648 20G<412 496>
VStem: 38 94<137.19 355.241> 412 84<131.77 359.22 418 668>
AnchorPoint: "Anchor-1" 282 0 basechar 0
AnchorPoint: "Anchor-0" 251 496 basechar 0
LayerCount: 2
Fore
SplineSet
273 60 m 128,-1,1
 337 60 337 60 374.75616021 108.053294812 c 0,2,3
 414 158 414 158 414 246.923386137 c 0,4,5
 414 335 414 335 374.649111406 384.571898619 c 0,6,7
 337 432 337 432 273.357578499 432 c 0,8,9
 209 432 209 432 171.39761992 384.630767952 c 0,10,11
 132 335 132 335 132 245.990087115 c 0,12,13
 132 158 132 158 171.242755912 108.054674294 c 0,14,0
 209 60 209 60 273 60 c 128,-1,1
256.24264115 -12 m 0,15,16
 195 -12 195 -12 146.322629976 18.2991793006 c 0,17,18
 97 49 97 49 69.1623240895 103.259876775 c 0,19,20
 38 164 38 164 38 247.123730228 c 0,21,22
 38 328 38 328 69.1091220104 388.636424257 c 0,23,24
 97 443 97 443 146.731747694 473.955475605 c 0,25,26
 195 504 195 504 256.027215836 504 c 0,27,28
 310 504 310 504 351.954680737 479.351625067 c 0,29,30
 390 457 390 457 412 418 c 1,31,-1
 412 668 l 1,32,-1
 496 668 l 1,33,-1
 496 187 l 2,34,35
 496 162 496 162 496.96064746 138.704299092 c 0,36,37
 500 65 500 65 513 0 c 1,38,-1
 434 0 l 1,39,-1
 412 75 l 1,40,41
 390 35 390 35 351.539147106 12.4042489247 c 0,42,43
 310 -12 310 -12 256.24264115 -12 c 0,15,16
EndSplineSet
EndChar

StartChar: e
Encoding: 101 101 45
Width: 539
GlyphClass: 2
Flags: W
HStem: -12 74<202.051 366.383> 225 67<129 421> 432 72<194.638 356.159>
VStem: 38 90<137.887 225 292 362.753> 421 89<292 363.524>
AnchorPoint: "Anchor-2" 364 0 basechar 0
AnchorPoint: "Anchor-1" 270 0 basechar 0
AnchorPoint: "Anchor-0" 281 496 basechar 0
LayerCount: 2
Fore
SplineSet
129 292 m 1,0,-1
 421 292 l 1,1,2
 421 327 421 327 403.754908442 358.533881705 c 0,3,4
 386 391 386 391 356.970309404 409.892338324 c 0,5,6
 323 432 323 432 277.894233346 432 c 0,7,8
 242 432 242 432 211.981573965 419.264910167 c 0,9,10
 176 404 176 404 155.515063426 374.463579823 c 0,11,12
 133 342 133 342 129 292 c 1,0,-1
280.858461645 -12 m 0,13,14
 203 -12 203 -12 146.157865589 24.3158080958 c 0,15,16
 95 57 95 57 66.566280961 115.363949606 c 0,17,18
 38 174 38 174 38 247.843910221 c 0,19,20
 38 326 38 326 71.299795824 385.835570621 c 0,21,22
 102 441 102 441 155.831292833 472.113499527 c 0,23,24
 211 504 211 504 279.335390617 504 c 0,25,26
 338 504 338 504 385.698931208 479.090558147 c 0,27,28
 428 457 428 457 458.082945872 416.719445358 c 0,29,30
 487 378 487 378 500.528048736 327.896115794 c 0,31,32
 514 278 514 278 510 225 c 1,33,-1
 128 225 l 1,34,35
 130 163 130 163 158.844706849 122.278060919 c 0,36,37
 181 91 181 91 221.001629678 74.4278962763 c 0,38,39
 251 62 251 62 286.255391852 62 c 0,40,41
 323 62 323 62 353.076478688 76.2467530629 c 0,42,43
 380 89 380 89 397 111 c 1,44,-1
 478 87 l 1,45,46
 451 44 451 44 405.274380226 18.3936529264 c 0,47,48
 351 -12 351 -12 280.858461645 -12 c 0,13,14
EndSplineSet
EndChar

StartChar: f
Encoding: 102 102 46
Width: 311
GlyphClass: 1
Flags: W
HStem: 0 21G<99 183> 429 67<15 99 183 286> 635 71<192.476 286>
VStem: 99 84<0 429 496 621.141>
AnchorPoint: "Anchor-0" 90 668 basechar 0
LayerCount: 2
Fore
SplineSet
99 0 m 1,0,-1
 99 429 l 1,1,-1
 15 429 l 1,2,-1
 15 496 l 1,3,-1
 99 496 l 1,4,-1
 99 570 l 2,5,6
 99 621 99 621 108.055390945 648.166172836 c 0,7,8
 119 681 119 681 149.235987026 694.032753028 c 0,9,10
 177 706 177 706 232 706 c 2,11,-1
 286 706 l 1,12,-1
 286 635 l 1,13,-1
 234 635 l 2,14,15
 202 635 202 635 192.163348684 621.539319252 c 0,16,17
 183 609 183 609 183 571 c 2,18,-1
 183 496 l 1,19,-1
 286 496 l 1,20,-1
 286 429 l 1,21,-1
 183 429 l 1,22,-1
 183 0 l 1,23,-1
 99 0 l 1,0,-1
EndSplineSet
EndChar

StartChar: g
Encoding: 103 103 47
Width: 560
GlyphClass: 2
Flags: W
HStem: -192 74<197.432 361.412> 9 70<195.316 342.911> 432 72<194.602 341.671> 476 20G<423.103 490>
VStem: 38 91<152.985 359.404> 406 84<-71.8375 94 144.65 367.598> 429 61<472.261 496>
AnchorPoint: "Anchor-1" 280 -251 basechar 0
AnchorPoint: "Anchor-0" 268 496 basechar 0
LayerCount: 2
Fore
SplineSet
268.90271697 79 m 0,0,1
 307 79 307 79 336.560777884 95.8918730766 c 0,2,3
 370 115 370 115 388.153088189 151.306176378 c 0,4,5
 409 193 409 193 409 257.051866117 c 0,6,7
 409 319 409 319 387.998624674 361.002750653 c 0,8,9
 370 397 370 397 336.861741997 415.410143335 c 0,10,11
 307 432 307 432 269.727190527 432 c 0,12,13
 208 432 208 432 170.261666977 388.529261961 c 0,14,15
 129 341 129 341 129 255.072830495 c 0,16,17
 129 171 129 171 170.178380117 123.04543075 c 0,18,19
 208 79 208 79 268.90271697 79 c 0,0,1
282.881812528 -192 m 0,20,21
 234 -192 234 -192 196.323705203 -181.030952148 c 0,22,23
 155 -169 155 -169 126.437869318 -144.651954173 c 0,24,25
 94 -117 94 -117 81 -76 c 1,26,-1
 165 -53 l 1,27,28
 179 -92 179 -92 218.631999167 -108.100499662 c 0,29,30
 243 -118 243 -118 279.818881063 -118 c 0,31,32
 351 -118 351 -118 380.458072921 -78.365501888 c 0,33,34
 406 -44 406 -44 406 28 c 2,35,-1
 406 94 l 1,36,37
 383 55 383 55 348.348749752 34.0268748499 c 0,38,39
 307 9 307 9 251.851191038 9 c 0,40,41
 193 9 193 9 146.001371601 36.9054356121 c 0,42,43
 97 66 97 66 69.1562665437 118.383973113 c 0,44,45
 38 177 38 177 38 257.585607069 c 0,46,47
 38 336 38 336 69.4111630325 394.563185315 c 0,48,49
 97 446 97 446 145.543402754 475.328305831 c 0,50,51
 193 504 193 504 252.832132704 504 c 0,52,53
 307 504 307 504 347.8599144 478.731368727 c 0,54,55
 383 457 383 457 406 418 c 1,56,-1
 429 496 l 1,57,-1
 490 496 l 1,58,-1
 490 47 l 2,59,60
 490 -71 490 -71 444.763826872 -128.616599457 c 0,61,62
 395 -192 395 -192 282.881812528 -192 c 0,20,21
EndSplineSet
EndChar

StartChar: h
Encoding: 104 104 48
Width: 546
GlyphClass: 2
Flags: W
HStem: 0 21G<70 154 394 478> 432 72<217.583 356.889> 648 20G<70 154>
VStem: 70 84<0 370.879 421 668> 394 84<0 393.691>
AnchorPoint: "Anchor-1" 273 0 basechar 0
AnchorPoint: "Anchor-0" 114 668 basechar 0
LayerCount: 2
Fore
SplineSet
70 0 m 1,0,-1
 70 668 l 1,1,-1
 154 668 l 1,2,-1
 154 421 l 1,3,4
 175 456 175 456 207.299702474 476.399812089 c 0,5,6
 251 504 251 504 315.3076406 504 c 0,7,8
 404 504 404 504 444.618263625 446.365977289 c 0,9,10
 478 399 478 399 478 314 c 2,11,-1
 478 0 l 1,12,-1
 394 0 l 1,13,-1
 394 289 l 2,14,15
 394 327 394 327 388.469277243 352.678355658 c 0,16,17
 380 392 380 392 357.912107311 410.798206544 c 0,18,19
 333 432 333 432 287.56562411 432 c 0,20,21
 224 432 224 432 189.521535298 391.118391853 c 0,22,23
 154 349 154 349 154 269 c 2,24,-1
 154 0 l 1,25,-1
 70 0 l 1,0,-1
EndSplineSet
EndChar

StartChar: i
Encoding: 105 105 49
Width: 278
GlyphClass: 1
Flags: W
HStem: 0 21G<114 198> 429 67<45 114> 590 125<113.373 199.729>
VStem: 94 125<609.005 696.622> 114 84<0 429>
AnchorPoint: "Anchor-2" 198 0 basechar 0
LayerCount: 2
Fore
SplineSet
114 0 m 1,0,-1
 114 429 l 1,1,-1
 45 429 l 1,2,-1
 45 496 l 1,3,-1
 198 496 l 1,4,-1
 198 0 l 1,5,-1
 114 0 l 1,0,-1
156.5 590 m 128,-1,7
 131 590 131 590 112.589807942 608.410192058 c 128,-1,8
 94 627 94 627 94 653.031477784 c 128,-1,9
 94 679 94 679 112.802486288 697.294310983 c 0,10,11
 131 715 131 715 156.394903897 715 c 0,12,13
 182 715 182 715 200.302500976 697.192161212 c 0,14,15
 219 679 219 679 219 652.930976397 c 128,-1,16
 219 627 219 627 200.42248637 608.42248637 c 128,-1,6
 182 590 182 590 156.5 590 c 128,-1,7
EndSplineSet
Substitution2: "Single Substitution lookup 4 subtable" dotlessi
Substitution2: "Single Substitution lookup 3 subtable" dotlessi
EndChar

StartChar: j
Encoding: 106 106 50
Width: 254
GlyphClass: 1
Flags: W
HStem: -161 74<-58 73.9096> 476 20G<90 174> 590 125<88.2027 175.443>
VStem: 69 125<609.202 696.428> 90 84<-70.0361 496>
LayerCount: 2
Fore
SplineSet
-3 -161 m 2,0,-1
 -58 -159 l 1,1,-1
 -58 -86 l 1,2,-1
 -11 -87 l 2,3,4
 31 -87 31 -87 51.6094511217 -79.974050754 c 0,5,6
 75 -72 75 -72 83.0883899501 -49.3525081398 c 0,7,8
 90 -30 90 -30 90 12 c 2,9,-1
 90 496 l 1,10,-1
 174 496 l 1,11,-1
 174 7 l 2,12,13
 174 -57 174 -57 159.122583735 -92.0339157205 c 0,14,15
 143 -130 143 -130 103.298124018 -145.983872149 c 0,16,17
 66 -161 66 -161 -3 -161 c 2,0,-1
132 590 m 128,-1,19
 106 590 106 590 87.5 608.5 c 128,-1,20
 69 627 69 627 69 653 c 128,-1,21
 69 679 69 679 87.6267182738 697.123293456 c 0,22,23
 106 715 106 715 131.955324225 715 c 128,-1,24
 158 715 158 715 176.007725709 696.992274291 c 128,-1,25
 194 679 194 679 194 653.002790438 c 128,-1,26
 194 627 194 627 176.122810544 608.626221948 c 0,27,18
 158 590 158 590 132 590 c 128,-1,19
EndSplineSet
EndChar

StartChar: k
Encoding: 107 107 51
Width: 490
GlyphClass: 2
Flags: W
HStem: 0 21G<70 154 362.59 480> 476 20G<336.063 455> 648 20G<70 154>
VStem: 70 84<0 166 273 668> 354 101<395 496> 377 103<0 103>
DStem2: 154 273 212 229 0.673898 0.738825<0 6.57778 90.1232 299.537> 268 291 212 229 0.588832 -0.808255<17.1372 299.385>
AnchorPoint: "Anchor-1" 251 0 basechar 0
AnchorPoint: "Anchor-0" 304 668 basechar 0
LayerCount: 2
Fore
SplineSet
70 0 m 1,0,-1
 70 668 l 1,1,-1
 154 668 l 1,2,-1
 154 273 l 1,3,-1
 354 496 l 1,4,-1
 455 496 l 1,5,-1
 268 291 l 1,6,-1
 480 0 l 1,7,-1
 377 0 l 1,8,-1
 212 229 l 1,9,-1
 154 166 l 1,10,-1
 154 0 l 1,11,-1
 70 0 l 1,0,-1
EndSplineSet
EndChar

StartChar: l
Encoding: 108 108 52
Width: 239
GlyphClass: 2
Flags: W
HStem: 0 74<161.478 224> 647 20G<70 154>
VStem: 70 84<88.6781 667>
AnchorPoint: "Anchor-1" 145 0 basechar 0
AnchorPoint: "Anchor-0" 117 668 basechar 0
LayerCount: 2
Fore
SplineSet
187 0 m 2,0,1
 140 0 140 0 116.361810535 8.8063843106 c 0,2,3
 89 19 89 19 78.8328672745 47.8960614303 c 0,4,5
 70 73 70 73 70 124 c 2,6,-1
 70 667 l 1,7,-1
 154 667 l 1,8,-1
 154 138 l 2,9,10
 154 100 154 100 161.196182098 88.3062040913 c 0,11,12
 170 74 170 74 205 74 c 2,13,-1
 224 74 l 1,14,-1
 224 0 l 1,15,-1
 187 0 l 2,0,1
EndSplineSet
EndChar

StartChar: m
Encoding: 109 109 53
Width: 841
GlyphClass: 2
Flags: W
HStem: 0 21G<70 154 380 464 689 773> 432 72<215.738 343.774 516.325 652.808> 476 20G<70 137.867>
VStem: 70 84<0 372.643> 70 62<472.136 496> 380 84<0 373.715> 689 84<0 393.809>
AnchorPoint: "Anchor-1" 421 0 basechar 0
AnchorPoint: "Anchor-0" 433 496 basechar 0
LayerCount: 2
Fore
SplineSet
70 0 m 1,0,-1
 70 496 l 1,1,-1
 132 496 l 1,2,-1
 154 421 l 1,3,4
 175 456 175 456 206.651857332 476.812180163 c 0,5,6
 248 504 248 504 306.340483807 504 c 0,7,8
 360 504 360 504 396.27297269 480.163475089 c 0,9,10
 430 458 430 458 446 417 c 1,11,12
 476 463 476 463 520.927889263 484.671099527 c 0,13,14
 561 504 561 504 613.113394427 504 c 0,15,16
 699 504 699 504 739.323532712 446.784176557 c 0,17,18
 773 399 773 399 773 314 c 2,19,-1
 773 0 l 1,20,-1
 689 0 l 1,21,-1
 689 289 l 2,22,23
 689 327 689 327 682.822333846 353.769886666 c 0,24,25
 674 392 674 392 653.166494815 410.518671276 c 0,26,27
 629 432 629 432 587.157801076 432 c 0,28,29
 529 432 529 432 497.1045381 391.271948651 c 0,30,31
 464 349 464 349 464 269 c 2,32,-1
 464 0 l 1,33,-1
 380 0 l 1,34,-1
 380 289 l 2,35,36
 380 327 380 327 373.822333846 353.769886666 c 0,37,38
 365 392 365 392 344.166494815 410.518671276 c 0,39,40
 320 432 320 432 278.157801076 432 c 0,41,42
 220 432 220 432 187.739742199 391.430281857 c 0,43,44
 154 349 154 349 154 269 c 2,45,-1
 154 0 l 1,46,-1
 70 0 l 1,0,-1
EndSplineSet
EndChar

StartChar: n
Encoding: 110 110 54
Width: 546
GlyphClass: 2
Flags: W
HStem: 0 21G<70 154 394 478> 432 72<217.583 356.889> 476 20G<70 137.867>
VStem: 70 84<0 370.879> 70 62<472.136 496> 394 84<0 393.691>
AnchorPoint: "Anchor-1" 257 0 basechar 0
AnchorPoint: "Anchor-0" 288 496 basechar 0
LayerCount: 2
Fore
SplineSet
70 0 m 1,0,-1
 70 496 l 1,1,-1
 132 496 l 1,2,-1
 154 421 l 1,3,4
 175 456 175 456 207.299702474 476.399812089 c 0,5,6
 251 504 251 504 315.3076406 504 c 0,7,8
 404 504 404 504 444.618263625 446.365977289 c 0,9,10
 478 399 478 399 478 314 c 2,11,-1
 478 0 l 1,12,-1
 394 0 l 1,13,-1
 394 289 l 2,14,15
 394 327 394 327 388.469277243 352.678355658 c 0,16,17
 380 392 380 392 357.912107311 410.798206544 c 0,18,19
 333 432 333 432 287.56562411 432 c 0,20,21
 224 432 224 432 189.521535298 391.118391853 c 0,22,23
 154 349 154 349 154 269 c 2,24,-1
 154 0 l 1,25,-1
 70 0 l 1,0,-1
EndSplineSet
EndChar

StartChar: o
Encoding: 111 111 55
Width: 552
GlyphClass: 2
Flags: W
HStem: -12 74<203.136 349.113> 430 74<203.252 349.379>
VStem: 38 90<141.915 349.116> 424 90<142.093 350.007>
AnchorPoint: "Anchor-2" 497 10 basechar 0
AnchorPoint: "Anchor-1" 276 0 basechar 0
AnchorPoint: "Anchor-0" 276 496 basechar 0
LayerCount: 2
Fore
SplineSet
276.5 62 m 128,-1,1
 312 62 312 62 343.333027753 79.970412976 c 0,2,3
 380 101 380 101 400.243443699 138.266339537 c 0,4,5
 424 182 424 182 424 247.228906433 c 0,6,7
 424 310 424 310 399.937073888 354.297659434 c 0,8,9
 380 391 380 391 344.284800184 411.483717541 c 0,10,11
 312 430 312 430 276.959379747 430 c 0,12,13
 241 430 241 430 209.277143983 412.069690077 c 0,14,15
 172 391 172 391 151.630582224 353.50175364 c 0,16,17
 128 310 128 310 128 244.856133395 c 0,18,19
 128 182 128 182 151.955032764 137.900962411 c 0,20,21
 172 101 172 101 208.58882177 80.319361608 c 0,22,0
 241 62 241 62 276.5 62 c 128,-1,1
276 -12 m 128,-1,24
 233 -12 233 -12 193.330838014 2.16755785203 c 0,25,26
 149 18 149 18 116.144993346 47.998049554 c 0,27,28
 80 81 80 81 60.3959775984 126.742718937 c 0,29,30
 38 179 38 179 38 247.077919121 c 0,31,32
 38 313 38 313 60.5545799382 365.627353189 c 0,33,34
 80 411 80 411 115.947878804 443.821976299 c 0,35,36
 149 474 149 474 192.881801988 489.672072139 c 0,37,38
 233 504 233 504 275.507246181 504 c 0,39,40
 319 504 319 504 359.057001456 489.86223478 c 0,41,42
 404 474 404 474 436.907108956 443.954378779 c 0,43,44
 473 411 473 411 492.330475269 364.795449357 c 0,45,46
 514 313 514 313 514 245.070736143 c 0,47,48
 514 179 514 179 492.171323398 126.824138853 c 0,49,50
 473 81 473 81 437.002812635 48.1330028408 c 0,51,52
 404 18 404 18 359.406332242 2.2610584383 c 0,53,23
 319 -12 319 -12 276 -12 c 128,-1,24
EndSplineSet
Substitution2: "Single Substitution lookup 12 subtable" ordmasculine
Substitution2: "'aalt' Access All Alternates lookup 0 subtable" ordmasculine
EndChar

StartChar: p
Encoding: 112 112 56
Width: 566
GlyphClass: 1
Flags: W
HStem: -161 21G<70 154> -12 72<220.393 367.086> 432 72<220.644 367.214> 476 20G<70 136.897>
VStem: 70 84<-161 75 131.726 359.203> 70 61<472.261 496> 434 94<136.495 355.279>
AnchorPoint: "Anchor-0" 306 496 basechar 0
LayerCount: 2
Fore
SplineSet
293 60 m 128,-1,1
 357 60 357 60 394.75616021 108.053294812 c 0,2,3
 434 158 434 158 434 246.923386137 c 0,4,5
 434 335 434 335 394.649111406 384.571898619 c 0,6,7
 357 432 357 432 293.357578499 432 c 0,8,9
 229 432 229 432 191.39761992 384.630767952 c 0,10,11
 152 335 152 335 152 245.990087115 c 0,12,13
 152 158 152 158 191.242755912 108.054674294 c 0,14,0
 229 60 229 60 293 60 c 128,-1,1
70 -161 m 1,15,-1
 70 496 l 1,16,-1
 131 496 l 1,17,-1
 154 418 l 1,18,19
 177 457 177 457 214.101331676 478.79703236 c 0,20,21
 257 504 257 504 311.759831242 504 c 0,22,23
 372 504 372 504 420.163696703 473.711489703 c 0,24,25
 469 443 469 443 496.72920739 388.951544918 c 0,26,27
 528 328 528 328 528 245.312338633 c 0,28,29
 528 165 528 165 496.925056636 103.903501182 c 0,30,31
 469 49 469 49 420.003925302 18.1880354994 c 0,32,33
 372 -12 372 -12 310.904546586 -12 c 0,34,35
 257 -12 257 -12 215.214558476 12.5489468953 c 0,36,37
 177 35 177 35 154 75 c 1,38,-1
 154 -161 l 1,39,-1
 70 -161 l 1,15,-1
EndSplineSet
EndChar

StartChar: q
Encoding: 113 113 57
Width: 576
GlyphClass: 1
Flags: W
HStem: -173 79<512.358 627.157> -12 72<198.738 346.057> 432 72<198.887 345.822> 476 20G<429.103 496>
VStem: 38 93<137.534 355.333> 412 84<-68.6922 75 131.77 359.22> 435 61<472.261 496>
LayerCount: 2
Fore
SplineSet
273 60 m 128,-1,1
 337 60 337 60 374.75616021 108.053294812 c 0,2,3
 414 158 414 158 414 246.923386137 c 0,4,5
 414 335 414 335 374.649111406 384.571898619 c 0,6,7
 337 432 337 432 273.357578499 432 c 0,8,9
 209 432 209 432 171.03500724 384.787124388 c 0,10,11
 131 335 131 335 131 245.92049687 c 0,12,13
 131 158 131 158 170.870444876 107.90636413 c 0,14,0
 209 60 209 60 273 60 c 128,-1,1
545.01980635 -173 m 0,15,16
 509 -173 509 -173 482.052920512 -161.322932222 c 0,17,18
 449 -147 449 -147 431.914431965 -117.90835713 c 0,19,20
 412 -84 412 -84 412 -27 c 2,21,-1
 412 75 l 1,22,23
 390 35 390 35 351.813560542 12.8424363636 c 0,24,25
 309 -12 309 -12 254.446783011 -12 c 0,26,27
 194 -12 194 -12 145.949443955 18.2173599872 c 0,28,29
 97 49 97 49 69.0698078658 103.913598094 c 0,30,31
 38 165 38 165 38 247.556308723 c 0,32,33
 38 328 38 328 69.1807460896 388.776030514 c 0,34,35
 97 443 97 443 146.009990197 473.820715484 c 0,36,37
 194 504 194 504 255.091302026 504 c 0,38,39
 309 504 309 504 351.279965242 479.467180662 c 0,40,41
 390 457 390 457 412 418 c 1,42,-1
 435 496 l 1,43,-1
 496 496 l 1,44,-1
 496 -24 l 2,45,46
 496 -51 496 -51 510.017419602 -69.2651225121 c 0,47,48
 529 -94 529 -94 566.102210899 -94 c 0,49,50
 593 -94 593 -94 628 -81 c 1,51,-1
 628 -159 l 1,52,53
 609 -165 609 -165 588.951122978 -168.645250368 c 0,54,55
 565 -173 565 -173 545.01980635 -173 c 0,15,16
EndSplineSet
EndChar

StartChar: r
Encoding: 114 114 58
Width: 340
GlyphClass: 2
Flags: W
HStem: 0 21G<70 154> 417 87<239.785 335> 476 20G<70 136.87>
VStem: 70 84<0 335.684> 70 61<472.148 496>
AnchorPoint: "Anchor-1" 113 0 basechar 0
AnchorPoint: "Anchor-0" 199 496 basechar 0
LayerCount: 2
Fore
SplineSet
70 0 m 1,0,-1
 70 496 l 1,1,-1
 131 496 l 1,2,-1
 158 404 l 1,3,4
 184 449 184 449 225.380526729 474.572235619 c 0,5,6
 273 504 273 504 335 504 c 1,7,-1
 335 417 l 1,8,-1
 328 417 l 2,9,10
 313 417 313 417 301.91962413 416.036489055 c 0,11,12
 221 409 221 409 185.377976048 353.706112075 c 0,13,14
 154 305 154 305 154 213 c 2,15,-1
 154 0 l 1,16,-1
 70 0 l 1,0,-1
EndSplineSet
EndChar

StartChar: s
Encoding: 115 115 59
Width: 471
GlyphClass: 2
Flags: W
HStem: -12 71<157.161 322.423> 434 71<150.258 306.213>
VStem: 41 85<325.054 410.027> 356 85<89.9211 182.562>
DStem2: 218 299 177 231 0.980031 -0.198847<-89.0601 145.965>
AnchorPoint: "Anchor-1" 230 0 basechar 0
AnchorPoint: "Anchor-0" 240 496 basechar 0
LayerCount: 2
Fore
SplineSet
240.422621037 -12 m 0,0,1
 196 -12 196 -12 156.140541153 0.966329986519 c 0,2,3
 113 15 113 15 82.1738760076 41.0836433782 c 0,4,5
 48 70 48 70 31 112 c 1,6,-1
 112 142 l 1,7,8
 123 98 123 98 165.948192462 75.6669399196 c 0,9,10
 198 59 198 59 238.925943148 59 c 0,11,12
 269 59 269 59 294.873876857 67.7873544042 c 0,13,14
 322 77 322 77 338.127438835 93.1274388351 c 0,15,16
 356 111 356 111 356 137.825727949 c 0,17,18
 356 174 356 174 316.219254465 194.808389972 c 0,19,20
 291 208 291 208 246 217 c 2,21,-1
 177 231 l 2,22,23
 141 239 141 239 115.501621673 250.92666083 c 0,24,25
 79 268 79 268 61.2196416385 293.26682504 c 0,26,27
 41 322 41 322 41 363.34562748 c 0,28,29
 41 412 41 412 72.0568875404 445.829823928 c 0,30,31
 97 473 97 473 140.707753661 489.07641514 c 0,32,33
 184 505 184 505 231.759276253 505 c 0,34,35
 291 505 291 505 338.113736487 483.01358964 c 0,36,37
 396 456 396 456 418 404 c 1,38,-1
 339 375 l 1,39,40
 326 405 326 405 289.954634734 421.08177835 c 0,41,42
 261 434 261 434 227.001564451 434 c 0,43,44
 188 434 188 434 160.112019366 418.706591265 c 0,45,46
 126 400 126 400 126 365.982638461 c 0,47,48
 126 336 126 336 157.793318645 318.603655836 c 0,49,50
 179 307 179 307 218 299 c 2,51,-1
 283 286 l 2,52,53
 323 278 323 278 351.617523947 266.076031689 c 0,54,55
 395 248 395 248 416.025870937 221.032035102 c 0,56,57
 441 189 441 189 441 140.867323348 c 0,58,59
 441 89 441 89 409.125533448 52.7290553034 c 0,60,61
 383 23 383 23 336.676711172 5.37700968516 c 0,62,63
 291 -12 291 -12 240.422621037 -12 c 0,0,1
EndSplineSet
EndChar

StartChar: t
Encoding: 116 116 60
Width: 324
GlyphClass: 2
Flags: W
HStem: 0 74<194.845 284> 429 67<20 104 188 284>
VStem: 104 84<88.9664 429 496 621>
AnchorPoint: "Anchor-1" 183 0 basechar 0
AnchorPoint: "Anchor-0" 145 621 basechar 0
LayerCount: 2
Fore
SplineSet
221 0 m 2,0,1
 174 0 174 0 150.361810535 8.8063843106 c 0,2,3
 123 19 123 19 112.832867275 47.8960614303 c 0,4,5
 104 73 104 73 104 124 c 2,6,-1
 104 429 l 1,7,-1
 20 429 l 1,8,-1
 20 496 l 1,9,-1
 104 496 l 1,10,-1
 104 621 l 1,11,-1
 188 621 l 1,12,-1
 188 496 l 1,13,-1
 284 496 l 1,14,-1
 284 429 l 1,15,-1
 188 429 l 1,16,-1
 188 138 l 2,17,18
 188 100 188 100 194.574775987 88.6037216221 c 0,19,20
 203 74 203 74 239 74 c 2,21,-1
 284 74 l 1,22,-1
 284 0 l 1,23,-1
 221 0 l 2,0,1
EndSplineSet
EndChar

StartChar: u
Encoding: 117 117 61
Width: 536
GlyphClass: 2
Flags: W
HStem: -12 74<187.321 320.793> 0 21G<397.167 466> 477 20G<68 152 382 466>
VStem: 68 84<98.7489 497> 382 84<121.501 497> 403 63<0 24>
AnchorPoint: "Anchor-2" 466 0 basechar 0
AnchorPoint: "Anchor-1" 268 0 basechar 0
AnchorPoint: "Anchor-0" 267 496 basechar 0
LayerCount: 2
Fore
SplineSet
229.309286569 -12 m 0,0,1
 169 -12 169 -12 131.754632902 14.0717569688 c 0,2,3
 99 37 99 37 82.6920299814 82.7675287619 c 0,4,5
 68 124 68 124 68 180 c 2,6,-1
 68 497 l 1,7,-1
 152 497 l 1,8,-1
 152 200 l 2,9,10
 152 145 152 145 165.819258131 113.109404314 c 0,11,12
 178 85 178 85 203.716731813 72.4152163467 c 0,13,14
 225 62 225 62 255.038700275 62 c 0,15,16
 315 62 315 62 347.984136472 102.860945181 c 0,17,18
 382 145 382 145 382 224 c 2,19,-1
 382 497 l 1,20,-1
 466 497 l 1,21,-1
 466 0 l 1,22,-1
 403 0 l 1,23,-1
 382 72 l 1,24,25
 361 36 361 36 330.295326271 15.5302175138 c 0,26,27
 289 -12 289 -12 229.309286569 -12 c 0,0,1
EndSplineSet
EndChar

StartChar: v
Encoding: 118 118 62
Width: 441
GlyphClass: 1
Flags: W
HStem: 0 21G<169.863 271.137> 476 20G<0 97.7358 343.316 441>
DStem2: 91 496 0 496 0.336096 -0.941828<0 407.238> 221 110 264 0 0.336096 0.941828<0 406.902>
LayerCount: 2
Fore
SplineSet
177 0 m 1,0,-1
 0 496 l 1,1,-1
 91 496 l 1,2,-1
 221 110 l 1,3,-1
 350 496 l 1,4,-1
 441 496 l 1,5,-1
 264 0 l 1,6,-1
 177 0 l 1,0,-1
EndSplineSet
EndChar

StartChar: w
Encoding: 119 119 63
Width: 654
GlyphClass: 1
Flags: W
HStem: 0 21G<137.234 224.414 429.586 517.726> 399 97<235.5 419.5>
VStem: 0 90<406 496> 564 90<406 496>
DStem2: 90 496 0 496 0.277023 -0.960863<0 378.954> 185 129 219 0 0.261275 0.965265<0 297.722> 371 496 327 399 0.261275 -0.965265<82.1346 379.857> 469 129 512 0 0.275233 0.961378<0 378.973>
AnchorPoint: "Anchor-0" 327 496 basechar 0
LayerCount: 2
Fore
SplineSet
143 0 m 1,0,-1
 0 496 l 1,1,-1
 90 496 l 1,2,-1
 185 129 l 1,3,-1
 284 496 l 1,4,-1
 371 496 l 1,5,-1
 469 129 l 1,6,-1
 564 496 l 1,7,-1
 654 496 l 1,8,-1
 512 0 l 1,9,-1
 435 0 l 1,10,-1
 327 399 l 1,11,-1
 219 0 l 1,12,-1
 143 0 l 1,0,-1
EndSplineSet
EndChar

StartChar: x
Encoding: 120 120 64
Width: 461
GlyphClass: 1
Flags: W
HStem: 0 21G<0 113.162 347.73 461> 476 20G<9 122.186 338.698 452>
VStem: 0 99<0 99> 9 99<397 496> 353 99<397 496> 362 99<0 99>
DStem2: 0 0 99 0 0.579839 0.814731<57.4041 284.088 397.336 608.79> 108 496 9 496 0.579839 -0.814731<0 210.874 324.122 551.386>
LayerCount: 2
Fore
SplineSet
0 0 m 1,0,-1
 181 255 l 1,1,-1
 9 496 l 1,2,-1
 108 496 l 1,3,-1
 230 324 l 1,4,-1
 353 496 l 1,5,-1
 452 496 l 1,6,-1
 280 255 l 1,7,-1
 461 0 l 1,8,-1
 362 0 l 1,9,-1
 230 185 l 1,10,-1
 99 0 l 1,11,-1
 0 0 l 1,0,-1
EndSplineSet
EndChar

StartChar: y
Encoding: 121 121 65
Width: 429
GlyphClass: 2
Flags: W
HStem: -161 74<37 150.468> 475 20G<0 99.3874 330.613 429>
VStem: 0 93<402 495> 337 92<403 495>
DStem2: 179 -1 253 -22 0.322264 0.94665<-90.8505 0 119.52 520.456>
AnchorPoint: "Anchor-1" 215 0 basechar 0
AnchorPoint: "Anchor-0" 220 496 basechar 0
LayerCount: 2
Fore
SplineSet
37 -161 m 1,0,-1
 37 -87 l 1,1,-1
 71 -87 l 2,2,3
 107 -87 107 -87 124.221308189 -82.0148844717 c 0,4,5
 145 -76 145 -76 157.36127277 -56.1144742391 c 0,6,7
 168 -39 168 -39 179 -1 c 1,8,-1
 0 495 l 1,9,-1
 93 495 l 1,10,-1
 215 113 l 1,11,-1
 337 495 l 1,12,-1
 429 495 l 1,13,-1
 253 -22 l 2,14,15
 235 -75 235 -75 218.818585267 -101.677467532 c 0,16,17
 198 -136 198 -136 165.929158575 -148.931790897 c 0,18,19
 136 -161 136 -161 80 -161 c 2,20,-1
 37 -161 l 1,0,-1
EndSplineSet
EndChar

StartChar: z
Encoding: 122 122 66
Width: 460
GlyphClass: 2
Flags: W
HStem: 0 74<135 430> 422 74<49 325>
DStem2: 40 74 135 74 0.633601 0.77366<60.1921 449.81>
AnchorPoint: "Anchor-1" 230 0 basechar 0
AnchorPoint: "Anchor-0" 237 496 basechar 0
LayerCount: 2
Fore
SplineSet
40 0 m 1,0,-1
 40 74 l 1,1,-1
 325 422 l 1,2,-1
 49 422 l 1,3,-1
 49 496 l 1,4,-1
 420 496 l 1,5,-1
 420 422 l 1,6,-1
 135 74 l 1,7,-1
 430 74 l 1,8,-1
 430 0 l 1,9,-1
 40 0 l 1,0,-1
EndSplineSet
EndChar

StartChar: circumflex
Encoding: 258 710 67
Width: 429
GlyphClass: 1
Flags: W
HStem: 575 120
VStem: 53 323
DStem2: 53 575 147 575 0.742634 0.669697<69.8076 160.416> 376 575 214 636 0.742634 -0.669697<-161.158 -69.8076>
LayerCount: 2
Fore
SplineSet
53 575 m 1,0,-1
 165 676 l 2,1,2
 185 695 185 695 214.5 695 c 128,-1,3
 244 695 244 695 264 676 c 2,4,-1
 376 575 l 1,5,-1
 282 575 l 1,6,-1
 214 636 l 1,7,-1
 147 575 l 1,8,-1
 53 575 l 1,0,-1
EndSplineSet
EndChar

StartChar: caron
Encoding: 259 711 68
Width: 429
GlyphClass: 1
Flags: W
HStem: 569 120
VStem: 53 323
DStem2: 147 689 53 689 0.742634 -0.669697<0 90.608> 214 628 264 588 0.742634 0.669697<0 91.3507>
LayerCount: 2
Fore
SplineSet
214.5 569 m 128,-1,1
 185 569 185 569 165 588 c 2,2,-1
 53 689 l 1,3,-1
 147 689 l 1,4,-1
 214 628 l 1,5,-1
 282 689 l 1,6,-1
 376 689 l 1,7,-1
 264 588 l 2,8,0
 244 569 244 569 214.5 569 c 128,-1,1
EndSplineSet
EndChar

StartChar: breve
Encoding: 260 728 69
Width: 399
GlyphClass: 1
Flags: W
HStem: 569 67<143.603 255.521>
VStem: 53 294
LayerCount: 2
Fore
SplineSet
199.5 569 m 128,-1,1
 145 569 145 569 103.396183827 604.440287851 c 0,2,3
 64 638 64 638 53 689 c 1,4,-1
 122 689 l 1,5,6
 131 666 131 666 151.204037415 651.568544704 c 0,7,8
 173 636 173 636 199.746458213 636 c 0,9,10
 226 636 226 636 247.879954676 651.628539054 c 0,11,12
 268 666 268 666 278 689 c 1,13,-1
 347 689 l 1,14,15
 337 638 337 638 296.118077097 604.013823128 c 0,16,0
 254 569 254 569 199.5 569 c 128,-1,1
EndSplineSet
EndChar

StartChar: dotaccent
Encoding: 261 729 70
Width: 214
GlyphClass: 1
Flags: W
HStem: 590 108<69.7172 144.944>
VStem: 53 108<606.629 682.083>
LayerCount: 2
Fore
SplineSet
107.5 590 m 128,-1,1
 85 590 85 590 68.9101095224 606.089890478 c 128,-1,2
 53 622 53 622 53 644.468308793 c 128,-1,3
 53 667 53 667 69.2225019003 682.715548716 c 0,4,5
 85 698 85 698 107.421228001 698 c 128,-1,6
 130 698 130 698 145.428374843 682.571625157 c 128,-1,7
 161 667 161 667 161 644.474066883 c 128,-1,8
 161 622 161 622 145.627492166 606.131604816 c 0,9,0
 130 590 130 590 107.5 590 c 128,-1,1
EndSplineSet
EndChar

StartChar: ring
Encoding: 262 730 71
Width: 253
GlyphClass: 1
Flags: W
HStem: 559 58<84.3995 163.313> 719 58<84.3054 163.372>
VStem: 15 57<629.495 706.466> 176 57<629.89 706.185>
LayerCount: 2
Fore
SplineSet
124 617 m 128,-1,1
 146 617 146 617 161.174442194 632.174442194 c 0,2,3
 176 647 176 647 176 667.938587613 c 128,-1,4
 176 689 176 689 161.16349309 703.83650691 c 0,5,6
 146 719 146 719 123.940377025 719 c 128,-1,7
 102 719 102 719 86.8357333121 703.835733312 c 0,8,9
 72 689 72 689 72 668.05781032 c 128,-1,10
 72 647 72 647 86.8358655808 632.164134419 c 0,11,0
 102 617 102 617 124 617 c 128,-1,1
126.14936953 559 m 0,12,13
 95 559 95 559 69.0293652867 574.582380828 c 0,14,15
 45 589 45 589 30.4629054878 613.228490854 c 0,16,17
 15 639 15 639 15 668.724149668 c 0,18,19
 15 698 15 698 30.4689620193 723.265971298 c 0,20,21
 45 747 45 747 68.6632458565 761.197947514 c 0,22,23
 95 777 95 777 126.633632976 777 c 0,24,25
 172 777 172 777 203.217340445 743.735620837 c 0,26,27
 233 712 233 712 233 668.2618008 c 0,28,29
 233 624 233 624 203.253046975 592.302427104 c 0,30,31
 172 559 172 559 126.14936953 559 c 0,12,13
EndSplineSet
EndChar

StartChar: ogonek
Encoding: 263 731 72
Width: 263
GlyphClass: 1
Flags: W
HStem: -173 58<132.827 209.313> -20 20G<114.5 210>
VStem: 53 70<-107.267 -34.3043>
LayerCount: 2
Fore
SplineSet
145.714030954 -173 m 0,0,1
 102 -173 102 -173 75.4703299053 -145.928908067 c 0,2,3
 53 -123 53 -123 53 -91.1523893016 c 0,4,5
 53 -60 53 -60 73.8920919507 -35.2210072213 c 0,6,7
 96 -9 96 -9 133 0 c 1,8,-1
 210 0 l 1,9,10
 159 -19 159 -19 138.475969976 -40.0941419693 c 0,11,12
 123 -56 123 -56 123 -75.9885246972 c 0,13,14
 123 -95 123 -95 137.828504738 -105.591789099 c 0,15,16
 151 -115 151 -115 171.532977535 -115 c 0,17,18
 181 -115 181 -115 190.620144518 -112.974706417 c 0,19,20
 200 -111 200 -111 210 -107 c 1,21,-1
 210 -161 l 1,22,23
 176 -173 176 -173 145.714030954 -173 c 0,0,1
EndSplineSet
EndChar

StartChar: quoteleft
Encoding: 264 8216 73
Width: 235
GlyphClass: 1
Flags: W
HStem: 418 250<120 127.396>
VStem: 53 129<436.866 529.641>
DStem2: 58 507 128 546 0.359367 0.933196<61.5504 172.525>
LayerCount: 2
Fore
SplineSet
117.848744599 418 m 0,0,1
 91 418 91 418 71.537827243 437.974335198 c 0,2,3
 53 457 53 457 53 481.352606363 c 0,4,5
 53 494 53 494 58 507 c 2,6,-1
 120 668 l 1,7,-1
 175 668 l 1,8,-1
 128 546 l 1,9,10
 151 542 151 542 166.285870744 524.248666233 c 0,11,12
 182 506 182 506 182 481.709568434 c 0,13,14
 182 455 182 455 162.772994434 436.278968265 c 0,15,16
 144 418 144 418 117.848744599 418 c 0,0,1
EndSplineSet
EndChar

StartChar: quoteright
Encoding: 265 8217 74
Width: 235
GlyphClass: 1
Flags: W
HStem: 429 251<107.022 115>
VStem: 53 129<568.219 660.519>
DStem2: 60 429 115 429 0.357433 0.933939<19.6588 131.674>
LayerCount: 2
Fore
SplineSet
60 429 m 1,0,-1
 107 552 l 1,1,2
 84 556 84 556 68.8427991672 573.112968682 c 0,3,4
 53 591 53 591 53 615.342306553 c 0,5,6
 53 642 53 642 72.1186594214 661.118659421 c 0,7,8
 91 680 91 680 117.45849563 680 c 128,-1,9
 144 680 144 680 163.097911702 660.902088298 c 128,-1,10
 182 642 182 642 182 616.906163692 c 0,11,12
 182 604 182 604 177 591 c 2,13,-1
 115 429 l 1,14,-1
 60 429 l 1,0,-1
EndSplineSet
EndChar

StartChar: quotesinglbase
Encoding: 266 8218 75
Width: 235
GlyphClass: 1
Flags: W
HStem: -134 251<107.022 115>
VStem: 53 129<5.21875 97.5194>
DStem2: 60 -134 115 -134 0.357433 0.933939<19.6588 131.674>
LayerCount: 2
Fore
SplineSet
60 -134 m 1,0,-1
 107 -11 l 1,1,2
 84 -7 84 -7 68.8427991672 10.1129686822 c 0,3,4
 53 28 53 28 53 52.3423065535 c 0,5,6
 53 79 53 79 72.1186594214 98.1186594214 c 0,7,8
 91 117 91 117 117.45849563 117 c 128,-1,9
 144 117 144 117 163.097911702 97.9020882978 c 128,-1,10
 182 79 182 79 182 53.9061636919 c 0,11,12
 182 41 182 41 177 28 c 2,13,-1
 115 -134 l 1,14,-1
 60 -134 l 1,0,-1
EndSplineSet
EndChar

StartChar: quotedblleft
Encoding: 267 8220 76
Width: 398
GlyphClass: 1
Flags: W
HStem: 418 250<120 127.59 283 290.59>
VStem: 53 129<436.815 529.344> 216 129<436.815 529.344>
DStem2: 61 515 128 546 0.359796 0.933031<53.0303 163.982> 224 515 291 546 0.359796 0.933031<53.0303 163.982>
LayerCount: 2
Fore
SplineSet
281.145764988 418 m 0,0,1
 256 418 256 418 236.434410319 435.119890971 c 0,2,3
 216 453 216 453 216 479.659589872 c 0,4,5
 216 488 216 488 218.087545143 496.87206686 c 0,6,7
 220 505 220 505 224 515 c 2,8,-1
 283 668 l 1,9,-1
 338 668 l 1,10,-1
 291 546 l 1,11,12
 314 542 314 542 329.285870744 524.248666233 c 0,13,14
 345 506 345 506 345 481.709568434 c 0,15,16
 345 455 345 455 325.718745977 436.226147398 c 0,17,18
 307 418 307 418 281.145764988 418 c 0,0,1
118.145764988 418 m 0,19,20
 93 418 93 418 73.4344103189 435.119890971 c 0,21,22
 53 453 53 453 53 479.659589872 c 0,23,24
 53 488 53 488 55.0875451434 496.87206686 c 0,25,26
 57 505 57 505 61 515 c 2,27,-1
 120 668 l 1,28,-1
 175 668 l 1,29,-1
 128 546 l 1,30,31
 151 542 151 542 166.285870744 524.248666233 c 0,32,33
 182 506 182 506 182 481.709568434 c 0,34,35
 182 455 182 455 162.718745977 436.226147398 c 0,36,37
 144 418 144 418 118.145764988 418 c 0,19,20
EndSplineSet
EndChar

StartChar: quotedblright
Encoding: 268 8221 77
Width: 398
GlyphClass: 1
Flags: W
HStem: 429 251<-56.5406 -48.563 106.809 115.437>
VStem: 53 129<568.219 660.519> 216 129<568.219 660.112>
DStem2: 60 429 115 429 0.357433 0.933939<19.6588 131.674> 223 429 279 429 0.352389 0.935854<19.7338 131.672>
LayerCount: 2
Fore
SplineSet
223 429 m 1,0,-1
 270 552 l 1,1,2
 247 556 247 556 231.842799167 573.112968682 c 0,3,4
 216 591 216 591 216 615.342306553 c 0,5,6
 216 642 216 642 234.939394612 660.939394612 c 128,-1,7
 254 680 254 680 281.021496591 680 c 128,-1,8
 308 680 308 680 326.794181107 660.697868052 c 0,9,10
 345 642 345 642 345 617.066576329 c 0,11,12
 345 604 345 604 340 591 c 2,13,-1
 279 429 l 1,14,-1
 223 429 l 1,0,-1
60 429 m 1,15,-1
 107 552 l 1,16,17
 84 556 84 556 68.8427991672 573.112968682 c 0,18,19
 53 591 53 591 53 615.342306553 c 0,20,21
 53 642 53 642 72.1186594214 661.118659421 c 0,22,23
 91 680 91 680 117.45849563 680 c 128,-1,24
 144 680 144 680 163.097911702 660.902088298 c 128,-1,25
 182 642 182 642 182 616.906163692 c 0,26,27
 182 604 182 604 177 591 c 2,28,-1
 115 429 l 1,29,-1
 60 429 l 1,15,-1
EndSplineSet
EndChar

StartChar: quotedblbase
Encoding: 269 8222 78
Width: 398
GlyphClass: 1
Flags: W
HStem: -134 251<-56.5406 -48.563 106.809 115.437>
VStem: 53 129<5.21875 97.5194> 216 129<5.21875 97.112>
DStem2: 60 -134 115 -134 0.357433 0.933939<19.6588 131.674> 223 -134 279 -134 0.352389 0.935854<19.7338 131.672>
LayerCount: 2
Fore
SplineSet
223 -134 m 1,0,-1
 270 -11 l 1,1,2
 247 -7 247 -7 231.842799167 10.1129686822 c 0,3,4
 216 28 216 28 216 52.3423065535 c 0,5,6
 216 79 216 79 234.939394612 97.9393946117 c 128,-1,7
 254 117 254 117 281.021496591 117 c 128,-1,8
 308 117 308 117 326.794181107 97.6978680523 c 0,9,10
 345 79 345 79 345 54.066576329 c 0,11,12
 345 41 345 41 340 28 c 2,13,-1
 279 -134 l 1,14,-1
 223 -134 l 1,0,-1
60 -134 m 1,15,-1
 107 -11 l 1,16,17
 84 -7 84 -7 68.8427991672 10.1129686822 c 0,18,19
 53 28 53 28 53 52.3423065535 c 0,20,21
 53 79 53 79 72.1186594214 98.1186594214 c 0,22,23
 91 117 91 117 117.45849563 117 c 128,-1,24
 144 117 144 117 163.097911702 97.9020882978 c 128,-1,25
 182 79 182 79 182 53.9061636919 c 0,26,27
 182 41 182 41 177 28 c 2,28,-1
 115 -134 l 1,29,-1
 60 -134 l 1,15,-1
EndSplineSet
EndChar

StartChar: dagger
Encoding: 270 8224 79
Width: 541
GlyphClass: 1
Flags: W
HStem: 0 21G<230 311> 416 80<40 230 311 501> 648 20G<230 311>
VStem: 230 81<0 416 496 668>
LayerCount: 2
Fore
SplineSet
230 0 m 1,0,-1
 230 416 l 1,1,-1
 40 416 l 1,2,-1
 40 496 l 1,3,-1
 230 496 l 1,4,-1
 230 668 l 1,5,-1
 311 668 l 1,6,-1
 311 496 l 1,7,-1
 501 496 l 1,8,-1
 501 416 l 1,9,-1
 311 416 l 1,10,-1
 311 0 l 1,11,-1
 230 0 l 1,0,-1
EndSplineSet
EndChar

StartChar: daggerdbl
Encoding: 271 8225 80
Width: 541
GlyphClass: 1
Flags: W
HStem: 0 21G<230 311> 172 79<40 230 311 501> 416 80<40 230 311 501> 648 20G<230 311>
VStem: 230 81<0 172 251 416 496 668>
LayerCount: 2
Fore
SplineSet
230 0 m 1,0,-1
 230 172 l 1,1,-1
 40 172 l 1,2,-1
 40 251 l 1,3,-1
 230 251 l 1,4,-1
 230 416 l 1,5,-1
 40 416 l 1,6,-1
 40 496 l 1,7,-1
 230 496 l 1,8,-1
 230 668 l 1,9,-1
 311 668 l 1,10,-1
 311 496 l 1,11,-1
 501 496 l 1,12,-1
 501 416 l 1,13,-1
 311 416 l 1,14,-1
 311 251 l 1,15,-1
 501 251 l 1,16,-1
 501 172 l 1,17,-1
 311 172 l 1,18,-1
 311 0 l 1,19,-1
 230 0 l 1,0,-1
EndSplineSet
EndChar

StartChar: bullet
Encoding: 272 8226 81
Width: 438
GlyphClass: 1
Flags: W
HStem: 88 332<137.584 301.285>
VStem: 53 332<172.512 335.435>
LayerCount: 2
Fore
SplineSet
219 88 m 128,-1,1
 173 88 173 88 134.383367808 111.169979315 c 0,2,3
 98 133 98 133 76.2163431034 169.790176092 c 0,4,5
 53 209 53 209 53 254.856498463 c 0,6,7
 53 300 53 300 76.1802313688 338.633718948 c 0,8,9
 98 375 98 375 133.902895993 396.541737596 c 0,10,11
 173 420 173 420 219.479618466 420 c 0,12,13
 265 420 265 420 303.711584883 396.77304907 c 0,14,15
 340 375 340 375 361.529702818 339.117161971 c 0,16,17
 385 300 385 300 385 254.019761208 c 0,18,19
 385 209 385 209 361.95109324 170.072957473 c 0,20,21
 340 133 340 133 303.847928594 111.308757156 c 0,22,0
 265 88 265 88 219 88 c 128,-1,1
EndSplineSet
EndChar

StartChar: ellipsis
Encoding: 273 8230 82
Width: 696
GlyphClass: 1
Flags: W
HStem: -12 129<72.6887 162.324 302.895 393.392 533.515 623.313>
VStem: 53 129<7.68325 97.4846> 284 129<7.89198 97.2143> 514 129<7.68325 97.3239>
LayerCount: 2
Fore
SplineSet
348 -12 m 128,-1,1
 321 -12 321 -12 302.202136083 7.30591429296 c 0,2,3
 284 26 284 26 284 52.3924650631 c 0,4,5
 284 79 284 79 302.308944948 97.803781298 c 0,6,7
 321 117 321 117 348.069351628 117 c 128,-1,8
 375 117 375 117 393.987783556 98.0122164439 c 128,-1,9
 413 79 413 79 413 52.4957416878 c 128,-1,10
 413 26 413 26 394.089550312 7.08955031242 c 128,-1,0
 375 -12 375 -12 348 -12 c 128,-1,1
117.5 -12 m 128,-1,12
 91 -12 91 -12 71.9095217578 7.09047824218 c 128,-1,13
 53 26 53 26 53 52.4683763245 c 128,-1,14
 53 79 53 79 72.0961431207 98.0961431207 c 128,-1,15
 91 117 91 117 117.466391325 117 c 128,-1,16
 144 117 144 117 162.917233271 98.0827667287 c 128,-1,17
 182 79 182 79 182 52.4712032359 c 128,-1,18
 182 26 182 26 163.005164491 7.00516449057 c 128,-1,11
 144 -12 144 -12 117.5 -12 c 128,-1,12
578.5 -12 m 128,-1,20
 552 -12 552 -12 532.909521758 7.09047824218 c 128,-1,21
 514 26 514 26 514 52.4683763245 c 128,-1,22
 514 79 514 79 532.916877914 97.9168779137 c 128,-1,23
 552 117 552 117 578.528920133 117 c 128,-1,24
 605 117 605 117 623.906026506 98.0939734936 c 128,-1,25
 643 79 643 79 643 52.4673137095 c 128,-1,26
 643 26 643 26 624.005862479 7.00586247948 c 128,-1,19
 605 -12 605 -12 578.5 -12 c 128,-1,20
EndSplineSet
EndChar

StartChar: perthousand
Encoding: 274 8240 83
Width: 1328
GlyphClass: 1
Flags: W
HStem: -12 74<642.727 772.1 1043.73 1173.1> 0 21G<186 288.012> 277 74<642.71 771.967 1043.71 1172.97> 316 75<155.136 284.018> 605 75<155.81 283.962> 648 20G<639.988 742>
VStem: 38 74<434.422 561.547> 186 88<0 88> 327 74<433.921 562.113> 526 74<105.036 233.98> 654 88<580 668> 815 74<105.034 234.086> 927 74<105.036 233.98> 1216 74<105.034 234.086>
DStem2: 186 0 274 0 0.573791 0.819001<50.4936 815.627>
LayerCount: 2
Fore
SplineSet
1108.5 62 m 128,-1,1
 1153 62 1153 62 1184.58898376 93.5889837609 c 128,-1,2
 1216 125 1216 125 1216 169.468528729 c 128,-1,3
 1216 214 1216 214 1184.4054489 245.594551099 c 128,-1,4
 1153 277 1153 277 1108.53344326 277 c 128,-1,5
 1064 277 1064 277 1032.58207345 245.58207345 c 128,-1,6
 1001 214 1001 214 1001 169.471051442 c 128,-1,7
 1001 125 1001 125 1032.49487541 93.5051245859 c 128,-1,0
 1064 62 1064 62 1108.5 62 c 128,-1,1
707.5 62 m 128,-1,9
 752 62 752 62 783.588983761 93.5889837609 c 128,-1,10
 815 125 815 125 815 169.468528729 c 128,-1,11
 815 214 815 214 783.405448901 245.594551099 c 128,-1,12
 752 277 752 277 707.533443258 277 c 128,-1,13
 663 277 663 277 631.58207345 245.58207345 c 128,-1,14
 600 214 600 214 600 169.471051442 c 128,-1,15
 600 125 600 125 631.494875414 93.5051245859 c 128,-1,8
 663 62 663 62 707.5 62 c 128,-1,9
1109 -12 m 128,-1,17
 1059 -12 1059 -12 1016.39537592 13.1521274688 c 0,18,19
 976 37 976 37 952.317219157 76.632408757 c 0,20,21
 927 119 927 119 927 169.914237737 c 0,22,23
 927 220 927 220 952.162616789 262.108868912 c 0,24,25
 976 302 976 302 1016.11117153 325.680089219 c 0,26,27
 1059 351 1059 351 1109.41146516 351 c 0,28,29
 1159 351 1159 351 1201.19913596 325.783443147 c 0,30,31
 1241 302 1241 302 1264.4302042 262.79027053 c 0,32,33
 1290 220 1290 220 1290 168.960444622 c 0,34,35
 1290 119 1290 119 1264.73771927 76.7243465388 c 0,36,37
 1241 37 1241 37 1201.60733319 13.46047959 c 0,38,16
 1159 -12 1159 -12 1109 -12 c 128,-1,17
708 -12 m 128,-1,40
 658 -12 658 -12 615.39537592 13.1521274688 c 0,41,42
 575 37 575 37 551.317219157 76.632408757 c 0,43,44
 526 119 526 119 526 169.914237737 c 0,45,46
 526 220 526 220 551.162616789 262.108868912 c 0,47,48
 575 302 575 302 615.111171535 325.680089219 c 0,49,50
 658 351 658 351 708.411465162 351 c 0,51,52
 758 351 758 351 800.199135959 325.783443147 c 0,53,54
 840 302 840 302 863.430204196 262.79027053 c 0,55,56
 889 220 889 220 889 168.960444622 c 0,57,58
 889 119 889 119 863.737719273 76.7243465388 c 0,59,60
 840 37 840 37 800.607333191 13.46047959 c 0,61,39
 758 -12 758 -12 708 -12 c 128,-1,40
220 391 m 128,-1,63
 264 391 264 391 295.5 422.5 c 128,-1,64
 327 454 327 454 327 498 c 128,-1,65
 327 542 327 542 295.5 573.5 c 128,-1,66
 264 605 264 605 220 605 c 128,-1,67
 176 605 176 605 144.125986205 573.62401767 c 0,68,69
 112 542 112 542 112 497.956777286 c 128,-1,70
 112 454 112 454 144.118123781 422.383721903 c 0,71,62
 176 391 176 391 220 391 c 128,-1,63
186 0 m 1,72,-1
 654 668 l 1,73,-1
 742 668 l 1,74,-1
 274 0 l 1,75,-1
 186 0 l 1,72,-1
220 316 m 128,-1,77
 170 316 170 316 127.588930524 341.037860293 c 0,78,79
 87 365 87 365 63.173739841 405.358767208 c 0,80,81
 38 448 38 448 38 498.339098099 c 0,82,83
 38 548 38 548 62.9961978484 590.340498396 c 0,84,85
 87 631 87 631 127.376776913 654.836892394 c 0,86,87
 170 680 170 680 220.333817795 680 c 0,88,89
 270 680 270 680 312.022698898 654.888875049 c 0,90,91
 352 631 352 631 375.693291179 590.866465962 c 0,92,93
 401 548 401 548 401 497.595053681 c 0,94,95
 401 448 401 448 375.89764776 405.479689063 c 0,96,97
 352 365 352 365 312.346243169 341.304462382 c 0,98,76
 270 316 270 316 220 316 c 128,-1,77
EndSplineSet
EndChar

StartChar: guilsinglleft
Encoding: 275 8249 84
Width: 353
GlyphClass: 1
Flags: W
VStem: 201 99<40 139 362 461>
DStem2: 53 250 151 250 0.576835 0.816861<56.5298 257.729> 151 250 53 250 0.578664 -0.815566<0 200.202>
LayerCount: 2
Fore
SplineSet
201 40 m 1,0,-1
 53 250 l 1,1,-1
 201 461 l 1,2,-1
 300 461 l 1,3,-1
 151 250 l 1,4,-1
 300 40 l 1,5,-1
 201 40 l 1,0,-1
EndSplineSet
EndChar

StartChar: guilsinglright
Encoding: 276 8250 85
Width: 353
GlyphClass: 1
Flags: W
VStem: 53 100<40 140 361 461>
DStem2: 153 461 53 461 0.576835 -0.816861<0 200.623> 53 40 153 40 0.578664 0.815566<57.8664 257.49>
LayerCount: 2
Fore
SplineSet
53 40 m 1,0,-1
 202 250 l 1,1,-1
 53 461 l 1,2,-1
 153 461 l 1,3,-1
 300 250 l 1,4,-1
 153 40 l 1,5,-1
 53 40 l 1,0,-1
EndSplineSet
EndChar

StartChar: fraction
Encoding: 277 8260 86
Width: 586
GlyphClass: 1
Flags: W
HStem: 0 21G<15 117.012> 648 20G<468.988 571>
VStem: 15 88<0 88> 483 88<580 668>
DStem2: 15 0 103 0 0.573791 0.819001<50.4936 815.627>
LayerCount: 2
Fore
SplineSet
15 0 m 1,0,-1
 483 668 l 1,1,-1
 571 668 l 1,2,-1
 103 0 l 1,3,-1
 15 0 l 1,0,-1
EndSplineSet
EndChar

StartChar: ordfeminine
Encoding: 170 170 87
Width: 371
GlyphClass: 1
Flags: W
HStem: 397 51<131.805 224.024> 527 49<134.752 239> 643 49<135.37 227.912>
VStem: 53 70<455.143 511.618> 239 68<471.031 530 578 632.529> 260 58<403 425.75>
LayerCount: 2
Fore
SplineSet
172.716124288 448 m 0,0,1
 207 448 207 448 224.52065219 470.448335618 c 0,2,3
 239 489 239 489 239 519 c 2,4,-1
 239 530 l 1,5,-1
 217 527 l 2,6,7
 164 520 164 520 144.295108561 511.349072051 c 0,8,9
 123 502 123 502 123 481.957786272 c 0,10,11
 123 466 123 466 136.67662727 456.882248487 c 0,12,13
 150 448 150 448 172.716124288 448 c 0,0,1
149.8 397 m 0,14,15
 106 397 106 397 79.2847885912 419.682726668 c 0,16,17
 53 442 53 442 53 478.493651371 c 0,18,19
 53 513 53 513 78.8081777389 534.964406586 c 0,20,21
 100 553 100 553 144.13137623 563.889560369 c 0,22,23
 177 572 177 572 222 576 c 2,24,-1
 239 578 l 1,25,26
 239 594 239 594 237.26338361 604.419698338 c 0,27,28
 234 624 234 624 223.802624628 632.806824185 c 0,29,30
 212 643 212 643 186.910834872 643 c 0,31,32
 164 643 164 643 149.821647778 634.965600408 c 0,33,34
 134 626 134 626 129 607 c 1,35,-1
 68 625 l 1,36,37
 79 655 79 655 109.246622108 672.763889175 c 0,38,39
 142 692 142 692 187.433226673 692 c 0,40,41
 221 692 221 692 244.98538341 682.496357517 c 0,42,43
 274 671 274 671 289.28235355 646.918715619 c 0,44,45
 307 619 307 619 307 573 c 2,46,-1
 307 491 l 2,47,48
 307 468 307 468 312.792235424 433.246587454 c 0,49,50
 314 426 314 426 318 403 c 1,51,-1
 260 403 l 1,52,-1
 248 442 l 1,53,54
 235 417 235 417 202.360981589 405.34320771 c 0,55,56
 179 397 179 397 149.8 397 c 0,14,15
EndSplineSet
EndChar

StartChar: guillemotleft
Encoding: 171 171 88
Width: 562
GlyphClass: 1
Flags: W
VStem: 201 99<40 139 362 461> 409 100<40 140 361 461>
DStem2: 53 251 151 251 0.578664 0.815566<56.709 256.911> 151 251 53 251 0.576835 -0.816861<0 201.199> 262 251 359 251 0.581238 0.813733<56.3801 256.326> 359 251 262 251 0.57941 -0.815036<0 200.943>
LayerCount: 2
Fore
SplineSet
201 40 m 1,0,-1
 53 251 l 1,1,-1
 201 461 l 1,2,-1
 300 461 l 1,3,-1
 151 251 l 1,4,-1
 300 40 l 1,5,-1
 201 40 l 1,0,-1
409 40 m 1,6,-1
 262 251 l 1,7,-1
 409 461 l 1,8,-1
 509 461 l 1,9,-1
 359 251 l 1,10,-1
 509 40 l 1,11,-1
 409 40 l 1,6,-1
EndSplineSet
EndChar

StartChar: logicalnot
Encoding: 172 172 89
Width: 602
GlyphClass: 1
Flags: W
HStem: 317 79<53 468>
VStem: 468 81<90 317>
LayerCount: 2
Fore
SplineSet
468 90 m 1,0,-1
 468 317 l 1,1,-1
 53 317 l 1,2,-1
 53 396 l 1,3,-1
 549 396 l 1,4,-1
 549 90 l 1,5,-1
 468 90 l 1,0,-1
EndSplineSet
EndChar

StartChar: registered
Encoding: 174 174 90
Width: 798
GlyphClass: 1
Flags: W
HStem: -12 61<288.971 509.083> 301 58<340 382> 469 61<340 445.714> 619 61<290.582 507.405>
VStem: 53 62<223.895 443.337> 264 76<162 301 359 469> 474 76<372.742 456.189> 484 86<162 248> 683 62<223.825 443.258>
DStem2: 462 311 382 301 0.586879 -0.809675<0 133.553>
LayerCount: 2
Fore
SplineSet
340 359 m 1,0,-1
 393 359 l 2,1,2
 436 359 436 359 455.938414984 373.691463672 c 0,3,4
 474 387 474 387 474 414.871583043 c 0,5,6
 474 447 474 447 446.354550392 459.67083107 c 0,7,8
 426 469 426 469 388 469 c 2,9,-1
 340 469 l 1,10,-1
 340 359 l 1,0,-1
264 162 m 1,11,-1
 264 530 l 1,12,-1
 376 530 l 2,13,14
 431 530 431 530 465.461190279 521.944137337 c 0,15,16
 508 512 508 512 527.894007866 488.790324157 c 0,17,18
 550 463 550 463 550 420.921851835 c 0,19,20
 550 399 550 399 545.127763733 382.353192754 c 0,21,22
 538 358 538 358 520.662721198 341.575209556 c 0,23,24
 500 322 500 322 462 311 c 1,25,-1
 570 162 l 1,26,-1
 484 162 l 1,27,-1
 382 301 l 1,28,-1
 340 301 l 1,29,-1
 340 162 l 1,30,-1
 264 162 l 1,11,-1
399 49 m 128,-1,32
 458 49 458 49 510.767843808 71.5416031802 c 0,33,34
 561 93 561 93 600.066450259 132.567302185 c 128,-1,35
 639 172 639 172 660.368520943 222.021764936 c 0,36,37
 683 275 683 275 683 333.913871269 c 0,38,39
 683 392 683 392 660.369737804 444.975386505 c 0,40,41
 639 495 639 495 600.429874057 534.064614737 c 0,42,43
 561 574 561 574 511.130987498 595.787432646 c 0,44,45
 458 619 458 619 398.540126157 619 c 0,46,47
 340 619 340 619 286.828663859 595.769804598 c 0,48,49
 237 574 237 574 198.175173471 534.677419284 c 0,50,51
 159 495 159 495 137.691416354 445.118542829 c 0,52,53
 115 392 115 392 115 333.047449146 c 0,54,55
 115 275 115 275 137.626601513 222.033182822 c 0,56,57
 159 172 159 172 197.408832504 133.098746566 c 0,58,59
 237 93 237 93 287.425752517 71.4589018376 c 0,60,31
 340 49 340 49 399 49 c 128,-1,32
399 -12 m 128,-1,62
 327 -12 327 -12 262.278427308 15.9597194028 c 0,63,64
 202 42 202 42 154.929771515 89.070228485 c 0,65,66
 107 137 107 137 80.8046802325 197.637314277 c 0,67,68
 53 262 53 262 53 334.024934527 c 0,69,70
 53 405 53 405 80.76873086 469.79370534 c 0,71,72
 107 531 107 531 154.323081769 578.323081769 c 0,73,74
 202 626 202 626 262.336444491 652.06534402 c 0,75,76
 327 680 327 680 399.612546853 680 c 0,77,78
 471 680 471 680 535.588231577 652.097883959 c 0,79,80
 596 626 596 626 642.930396958 579.069603042 c 0,81,82
 691 531 691 531 717.214966675 469.831744425 c 0,83,84
 745 405 745 405 745 332.987699825 c 0,85,86
 745 262 745 262 717.135748071 197.499416831 c 0,87,88
 691 137 691 137 643.886318849 89.8863188489 c 0,89,90
 596 42 596 42 535.595159088 15.9051087258 c 0,91,61
 471 -12 471 -12 399 -12 c 128,-1,62
EndSplineSet
EndChar

StartChar: macron
Encoding: 175 175 91
Width: 382
GlyphClass: 1
Flags: W
HStem: 601 67<53 329>
VStem: 53 276<601 668>
LayerCount: 2
Fore
SplineSet
53 601 m 1,0,-1
 53 668 l 1,1,-1
 329 668 l 1,2,-1
 329 601 l 1,3,-1
 53 601 l 1,0,-1
EndSplineSet
EndChar

StartChar: degree
Encoding: 176 176 92
Width: 352
GlyphClass: 1
Flags: W
HStem: 408 63<124.805 227.506> 617 63<124.836 227.94>
VStem: 40 63<492.796 595.957> 249 63<492.873 595.968>
LayerCount: 2
Fore
SplineSet
176.5 471 m 128,-1,1
 207 471 207 471 228.210306915 492.715314223 c 0,2,3
 249 514 249 514 249 544.423253785 c 128,-1,4
 249 575 249 575 228.072173629 595.927826371 c 128,-1,5
 207 617 207 617 176.473839035 617 c 128,-1,6
 146 617 146 617 124.718481515 596.213400549 c 0,7,8
 103 575 103 575 103 544.422906491 c 128,-1,9
 103 514 103 514 124.486396651 492.513603349 c 128,-1,0
 146 471 146 471 176.5 471 c 128,-1,1
176.5 408 m 128,-1,11
 139 408 139 408 107.113561499 427.029003621 c 0,12,13
 77 445 77 445 59.1010333952 474.992862959 c 0,14,15
 40 507 40 507 40 544.799728361 c 0,16,17
 40 582 40 582 59.1091470111 613.504269397 c 0,18,19
 77 643 77 643 106.761913661 660.761142023 c 0,20,21
 139 680 139 680 176.86712597 680 c 0,22,23
 214 680 214 680 245.685444241 660.780960051 c 0,24,25
 275 643 275 643 292.49149072 614.162677462 c 0,26,27
 312 582 312 582 312 544.002404098 c 0,28,29
 312 507 312 507 292.915493258 475.020556271 c 0,30,31
 275 445 275 445 245.809815566 427.294478294 c 0,32,10
 214 408 214 408 176.5 408 c 128,-1,11
EndSplineSet
EndChar

StartChar: plusminus
Encoding: 177 177 93
Width: 579
GlyphClass: 1
Flags: W
HStem: 0 79<53 526> 270 79<53 250 329 526> 476 20G<250 329>
VStem: 250 79<124 270 349 496>
LayerCount: 2
Fore
SplineSet
53 0 m 1,0,-1
 53 79 l 1,1,-1
 526 79 l 1,2,-1
 526 0 l 1,3,-1
 53 0 l 1,0,-1
250 124 m 1,4,-1
 250 270 l 1,5,-1
 53 270 l 1,6,-1
 53 349 l 1,7,-1
 250 349 l 1,8,-1
 250 496 l 1,9,-1
 329 496 l 1,10,-1
 329 349 l 1,11,-1
 526 349 l 1,12,-1
 526 270 l 1,13,-1
 329 270 l 1,14,-1
 329 124 l 1,15,-1
 250 124 l 1,4,-1
EndSplineSet
EndChar

StartChar: uni00B2
Encoding: 178 178 94
Width: 382
GlyphClass: 1
Flags: W
HStem: 403 58<134 329> 677 21G<65 131> 736 50<149.68 237.703>
VStem: 250 70<622.914 724.031>
LayerCount: 2
Fore
SplineSet
53 403 m 1,0,-1
 53 458 l 1,1,2
 145 531 145 531 186.080242771 572.080242771 c 0,3,4
 250 636 250 636 250 684.243329889 c 0,5,6
 250 708 250 708 234.455245835 722.040423117 c 128,-1,7
 219 736 219 736 194.799148076 736 c 0,8,9
 171 736 171 736 154.572033823 724.327497717 c 0,10,11
 133 709 133 709 129 677 c 1,12,-1
 65 695 l 1,13,14
 76 737 76 737 109.192350279 760.918017112 c 0,15,16
 144 786 144 786 196.028211438 786 c 0,17,18
 249 786 249 786 282.612492176 761.382400097 c 0,19,20
 320 734 320 734 320 685.977178898 c 0,21,22
 320 631 320 631 266.733993644 571.211625518 c 0,23,24
 222 521 222 521 134 461 c 1,25,-1
 329 461 l 1,26,-1
 329 403 l 1,27,-1
 53 403 l 1,0,-1
EndSplineSet
EndChar

StartChar: uni00B3
Encoding: 179 179 95
Width: 383
GlyphClass: 1
Flags: W
HStem: 397 51<134.932 241.878> 484 20G<53 119> 572 54<151 227.681> 736 50<135.849 235.903>
VStem: 58 61<698.934 718.777> 252 69<639.76 724.765> 261 69<464.056 556.671>
LayerCount: 2
Fore
SplineSet
187.525002501 397 m 0,0,1
 134 397 134 397 97.0209850516 424.734261211 c 0,2,3
 66 448 66 448 53 486 c 1,4,-1
 115 504 l 1,5,6
 123 481 123 481 137.135376892 467.280369487 c 0,7,8
 157 448 157 448 189.206275429 448 c 0,9,10
 219 448 219 448 239.060516425 463.761834334 c 0,11,12
 261 481 261 481 261 511.958942245 c 0,13,14
 261 544 261 544 235.464286585 559.212765439 c 0,15,16
 214 572 214 572 176 572 c 2,17,-1
 151 572 l 1,18,-1
 151 626 l 1,19,-1
 172 626 l 2,20,21
 208 626 208 626 228.320104785 638.469155209 c 0,22,23
 252 653 252 653 252 683.594748239 c 0,24,25
 252 711 252 711 230.397356256 725.212265621 c 0,26,27
 214 736 214 736 189.439339777 736 c 0,28,29
 135 736 135 736 119 683 c 1,30,-1
 58 701 l 1,31,32
 71 741 71 741 106.171625878 763.291875556 c 0,33,34
 142 786 142 786 191.404987339 786 c 0,35,36
 225 786 225 786 252.423904284 776.070655345 c 0,37,38
 283 765 283 765 300.145465136 745.147356158 c 0,39,40
 321 721 321 721 321 686.910874767 c 0,41,42
 321 658 321 658 304.931672026 634.433118971 c 0,43,44
 291 614 291 614 268 602 c 1,45,46
 299 590 299 590 315.54578381 563.313251919 c 0,47,48
 330 540 330 540 330 509.213788981 c 0,49,50
 330 473 330 473 308.879665905 446.071574029 c 0,51,52
 290 422 290 422 256.250818659 409.019545638 c 0,53,54
 225 397 225 397 187.525002501 397 c 0,0,1
EndSplineSet
EndChar

StartChar: acute
Encoding: 180 180 96
Width: 268
GlyphClass: 1
Flags: W
HStem: 571 136
VStem: 53 162
LayerCount: 2
Fore
SplineSet
53 571 m 1,0,1
 56 575 56 575 65.1506350946 587.078838325 c 0,2,3
 81 608 81 608 91.2760448307 621.48730884 c 0,4,5
 113 650 113 650 124.338688991 664.466603195 c 0,6,7
 142 687 142 687 144.363712653 689.780838415 c 0,8,9
 159 707 159 707 178.091601179 707 c 0,10,11
 193 707 193 707 203.511348093 696.966440457 c 0,12,13
 215 686 215 686 215 669.63430998 c 0,14,15
 215 662 215 662 212.821210138 656.335146358 c 0,16,17
 210 649 210 649 201.841322522 640.29741069 c 0,18,19
 195 633 195 633 176.81276429 616.833568258 c 0,20,21
 159 601 159 601 139.097525916 584.716157567 c 0,22,23
 126 574 126 574 123 571 c 2,24,-1
 53 571 l 1,0,1
EndSplineSet
EndChar

StartChar: uni03BC
Encoding: 278 956 97
Width: 538
GlyphClass: 1
Flags: W
HStem: -162 21G<70 154> -12 74<189.778 329.814> 0 21G<399.167 468> 477 20G<70 154 384 468>
VStem: 70 84<-162 41 96.7912 497> 384 84<121.635 497> 405 63<0 24>
LayerCount: 2
Fore
SplineSet
70 -162 m 1,0,-1
 70 497 l 1,1,-1
 154 497 l 1,2,-1
 154 191 l 2,3,4
 154 156 154 156 160.757683382 131.081042528 c 0,5,6
 170 97 170 97 191.274763572 80.4529616659 c 0,7,8
 215 62 215 62 255.805650977 62 c 0,9,10
 317 62 317 62 350.154585241 103.072098134 c 0,11,12
 384 145 384 145 384 224 c 2,13,-1
 384 497 l 1,14,-1
 468 497 l 1,15,-1
 468 0 l 1,16,-1
 405 0 l 1,17,-1
 384 72 l 1,18,19
 363 36 363 36 343.573254092 18.40596597 c 0,20,21
 310 -12 310 -12 258.169684278 -12 c 0,22,23
 223 -12 223 -12 196.029598982 3.10342457018 c 0,24,25
 173 16 173 16 154 41 c 1,26,-1
 154 -162 l 1,27,-1
 70 -162 l 1,0,-1
EndSplineSet
EndChar

StartChar: paragraph
Encoding: 182 182 98
Width: 508
GlyphClass: 1
Flags: W
HStem: -161 21G<187 268 362 443> 601 67<268 362 443 483>
VStem: 38 230<390.66 566.669> 187 81<-161 300.015> 362 81<-161 601>
LayerCount: 2
Fore
SplineSet
187 -161 m 1,0,-1
 187 294 l 1,1,2
 145 303 145 303 111.023665905 329.481554515 c 128,-1,3
 77 356 77 356 57.891279561 394.217440878 c 0,4,5
 38 434 38 434 38 479.492051559 c 0,6,7
 38 531 38 531 64.0824459261 574.982163719 c 0,8,9
 89 617 89 617 130.667497091 641.709794787 c 0,10,11
 175 668 175 668 227 668 c 2,12,-1
 483 668 l 1,13,-1
 483 601 l 1,14,-1
 443 601 l 1,15,-1
 443 -161 l 1,16,-1
 362 -161 l 1,17,-1
 362 601 l 1,18,-1
 268 601 l 1,19,-1
 268 -161 l 1,20,-1
 187 -161 l 1,0,-1
EndSplineSet
EndChar

StartChar: periodcentered
Encoding: 183 183 99
Width: 235
GlyphClass: 1
Flags: W
HStem: 183 129<72.6816 162.399>
VStem: 53 129<202.59 292.312>
LayerCount: 2
Fore
SplineSet
117.5 183 m 128,-1,1
 91 183 91 183 72.0887869855 201.911213014 c 128,-1,2
 53 221 53 221 53 247.530886496 c 128,-1,3
 53 274 53 274 72.0849388728 293.084938873 c 128,-1,4
 91 312 91 312 117.47031677 312 c 128,-1,5
 144 312 144 312 163.095795716 292.904204284 c 128,-1,6
 182 274 182 274 182 247.533486925 c 128,-1,7
 182 221 182 221 162.994001416 201.994001416 c 128,-1,0
 144 183 144 183 117.5 183 c 128,-1,1
EndSplineSet
EndChar

StartChar: cedilla
Encoding: 184 184 100
Width: 291
GlyphClass: 1
Flags: W
HStem: -181 41<87.5306 184.843> -81 40<159 189.923>
VStem: 196 62<-130.83 -86.1823>
DStem2: 104 -57 159 -45 0.528136 0.84916<39.2374 96.566>
LayerCount: 2
Fore
SplineSet
162.869663696 -181 m 0,0,1
 142 -181 142 -181 119.398642339 -175.743870311 c 0,2,3
 99 -171 99 -171 73 -161 c 1,4,-1
 87 -126 l 1,5,6
 104 -133 104 -133 118.5 -136.5 c 128,-1,7
 133 -140 133 -140 146.70450657 -140 c 0,8,9
 171 -140 171 -140 185.292407777 -127.422681156 c 0,10,11
 196 -118 196 -118 196 -106.365765304 c 0,12,13
 196 -96 196 -96 188.516739169 -89.3971227959 c 0,14,15
 179 -81 179 -81 160.724240805 -81 c 0,16,17
 153 -81 153 -81 141.969039541 -83.2061920917 c 0,18,19
 138 -84 138 -84 132.999883936 -85.3636680173 c 0,20,21
 116 -90 116 -90 106.977673993 -81.5791623933 c 0,22,23
 101 -76 101 -76 101 -67.2199886455 c 0,24,25
 101 -61 101 -61 104 -57 c 2,26,-1
 155 25 l 1,27,-1
 189 4 l 1,28,-1
 159 -45 l 1,29,30
 167 -43 167 -43 174.5 -42 c 128,-1,31
 182 -41 182 -41 189.92279032 -41 c 0,32,33
 224 -41 224 -41 242.842052208 -61.5045862265 c 0,34,35
 258 -78 258 -78 258 -101.026134063 c 0,36,37
 258 -130 258 -130 237.262560642 -152.033529318 c 0,38,39
 210 -181 210 -181 162.869663696 -181 c 0,0,1
EndSplineSet
EndChar

StartChar: uni00B9
Encoding: 185 185 101
Width: 256
GlyphClass: 1
Flags: W
HStem: 683 47<53 129.063>
VStem: 136 67<403 683>
LayerCount: 2
Fore
SplineSet
136 403 m 1,0,-1
 136 683 l 1,1,-1
 53 683 l 1,2,-1
 53 730 l 1,3,4
 86 730 86 730 107.928542845 739.029399995 c 0,5,6
 137 751 137 751 147 779 c 1,7,-1
 203 779 l 1,8,-1
 203 403 l 1,9,-1
 136 403 l 1,0,-1
EndSplineSet
EndChar

StartChar: ordmasculine
Encoding: 186 186 102
Width: 381
GlyphClass: 1
Flags: W
HStem: 398 54<147.543 241.081> 638 54<147.406 241.501>
VStem: 57 69<474.759 615.374> 263 69<474.592 615.196>
LayerCount: 2
Fore
SplineSet
194.5 452 m 128,-1,1
 224 452 224 452 242.454667848 474.713437352 c 0,2,3
 263 500 263 500 263 545.587433795 c 0,4,5
 263 590 263 590 242.600296424 615.107327478 c 0,6,7
 224 638 224 638 194.848356299 638 c 0,8,9
 165 638 165 638 146.488257688 615.216317154 c 0,10,11
 126 590 126 590 126 544.443856884 c 0,12,13
 126 500 126 500 146.484872252 474.787849536 c 0,14,0
 165 452 165 452 194.5 452 c 128,-1,1
194.5 398 m 128,-1,16
 159 398 159 398 129.274760293 413.098534455 c 0,17,18
 96 430 96 430 77.76522828 460.3912862 c 0,19,20
 57 495 57 495 57 545.785752868 c 0,21,22
 57 595 57 595 77.9542903214 629.923817202 c 0,23,24
 96 660 96 660 128.777281387 676.648777847 c 0,25,26
 159 692 159 692 194.132644627 692 c 0,27,28
 230 692 230 692 259.806065952 676.860410945 c 0,29,30
 293 660 293 660 311.222966048 629.62838992 c 0,31,32
 332 595 332 595 332 544.207144286 c 0,33,34
 332 495 332 495 311.046409402 460.077349003 c 0,35,36
 293 430 293 430 260.333949592 413.407720428 c 0,37,15
 230 398 230 398 194.5 398 c 128,-1,16
EndSplineSet
EndChar

StartChar: guillemotright
Encoding: 187 187 103
Width: 562
GlyphClass: 1
Flags: W
VStem: 53 100<40 140 361 461> 262 99<40 139 362 461>
DStem2: 153 461 53 461 0.578664 -0.815566<0 199.623> 53 40 153 40 0.576835 0.816861<57.6835 258.306> 361 461 262 461 0.578664 -0.815566<0 200.202> 262 40 361 40 0.576835 0.816861<57.1067 258.306>
LayerCount: 2
Fore
SplineSet
53 40 m 1,0,-1
 202 251 l 1,1,-1
 53 461 l 1,2,-1
 153 461 l 1,3,-1
 300 251 l 1,4,-1
 153 40 l 1,5,-1
 53 40 l 1,0,-1
262 40 m 1,6,-1
 411 251 l 1,7,-1
 262 461 l 1,8,-1
 361 461 l 1,9,-1
 509 251 l 1,10,-1
 361 40 l 1,11,-1
 262 40 l 1,6,-1
EndSplineSet
EndChar

StartChar: onequarter
Encoding: 188 188 104
Width: 826
GlyphClass: 1
Flags: W
HStem: 0 21G<115 217.982 640 708> 86 57<528 640 708 773> 571 48<53 129.063> 648 20G<142 204 568.988 671>
VStem: 115 89<0 89> 136 68<292 571> 583 88<580 668> 640 68<0 86 143 289>
DStem2: 115 0 204 0 0.573791 0.819001<51.0674 815.627> 455 140 528 143 0.618997 0.785394<47.5429 231.538>
LayerCount: 2
Fore
SplineSet
528 143 m 1,0,-1
 640 143 l 1,1,-1
 640 289 l 1,2,-1
 528 143 l 1,0,-1
640 0 m 1,3,-1
 640 86 l 1,4,-1
 455 86 l 1,5,-1
 455 140 l 1,6,-1
 641 376 l 1,7,-1
 708 376 l 1,8,-1
 708 143 l 1,9,-1
 773 143 l 1,10,-1
 773 86 l 1,11,-1
 708 86 l 1,12,-1
 708 0 l 1,13,-1
 640 0 l 1,3,-1
136 292 m 1,14,-1
 136 571 l 1,15,-1
 53 571 l 1,16,-1
 53 619 l 1,17,18
 86 619 86 619 107.928542845 628.029399995 c 0,19,20
 137 640 137 640 147 668 c 1,21,-1
 204 668 l 1,22,-1
 204 292 l 1,23,-1
 136 292 l 1,14,-1
115 0 m 1,24,-1
 583 668 l 1,25,-1
 671 668 l 1,26,-1
 204 0 l 1,27,-1
 115 0 l 1,24,-1
EndSplineSet
Ligature2: "'frac' Diagonal Fractions lookup 10 subtable" one slash four
EndChar

StartChar: onehalf
Encoding: 189 189 105
Width: 812
GlyphClass: 1
Flags: W
HStem: 0 58<565 759> 332 50<580.537 668.741> 571 48<53 129.063> 648 20G<142 203 568.988 671>
VStem: 115 88<0 88> 136 67<292 571> 495 64<289.922 315.95> 583 88<580 668> 681 70<218.874 320.014>
DStem2: 115 0 203 0 0.573791 0.819001<50.4936 815.627>
LayerCount: 2
Fore
SplineSet
484 0 m 1,0,-1
 484 54 l 1,1,2
 576 128 576 128 615.787811603 167.408880064 c 0,3,4
 681 232 681 232 681 280.402380896 c 0,5,6
 681 304 681 304 665.481276095 318.016911914 c 128,-1,7
 650 332 650 332 625.789051912 332 c 0,8,9
 602 332 602 332 585.458885571 320.247102906 c 0,10,11
 564 305 564 305 559 273 c 1,12,-1
 495 292 l 1,13,14
 506 333 506 333 539.57944013 356.846269078 c 0,15,16
 575 382 575 382 627.065699645 382 c 0,17,18
 680 382 680 382 713.792594809 357.250493943 c 0,19,20
 751 330 751 330 751 282.039061559 c 0,21,22
 751 227 751 227 698.030022156 167.54390242 c 0,23,24
 653 117 653 117 565 58 c 1,25,-1
 759 58 l 1,26,-1
 759 0 l 1,27,-1
 484 0 l 1,0,-1
136 292 m 1,28,-1
 136 571 l 1,29,-1
 53 571 l 1,30,-1
 53 619 l 1,31,32
 86 619 86 619 107.928542845 628.029399995 c 0,33,34
 137 640 137 640 147 668 c 1,35,-1
 203 668 l 1,36,-1
 203 292 l 1,37,-1
 136 292 l 1,28,-1
115 0 m 1,38,-1
 583 668 l 1,39,-1
 671 668 l 1,40,-1
 203 0 l 1,41,-1
 115 0 l 1,38,-1
EndSplineSet
Ligature2: "'frac' Diagonal Fractions lookup 10 subtable" one slash two
EndChar

StartChar: threequarters
Encoding: 190 190 106
Width: 868
GlyphClass: 1
Flags: W
HStem: 0 21G<157 259.042 682 751> 86 57<570 682 751 815> 291 51<133.987 241.914> 466 53<151 235.614> 629 51<136.294 235.917> 648 20G<611.958 714>
VStem: 157 88<0 88> 252 69<532.904 617.49> 261 69<358.084 450.645> 626 88<580 668> 682 69<0 86 143 289>
DStem2: 157 0 245 0 0.574613 0.818425<50.5659 816.202> 497 140 570 143 0.618997 0.785394<47.5429 231.538>
LayerCount: 2
Fore
SplineSet
570 143 m 1,0,-1
 682 143 l 1,1,-1
 682 289 l 1,2,-1
 570 143 l 1,0,-1
682 0 m 1,3,-1
 682 86 l 1,4,-1
 497 86 l 1,5,-1
 497 140 l 1,6,-1
 683 376 l 1,7,-1
 751 376 l 1,8,-1
 751 143 l 1,9,-1
 815 143 l 1,10,-1
 815 86 l 1,11,-1
 751 86 l 1,12,-1
 751 0 l 1,13,-1
 682 0 l 1,3,-1
157 0 m 1,14,-1
 626 668 l 1,15,-1
 714 668 l 1,16,-1
 245 0 l 1,17,-1
 157 0 l 1,14,-1
187.525002501 291 m 0,18,19
 134 291 134 291 97.0209850516 318.734261211 c 0,20,21
 66 342 66 342 53 380 c 1,22,-1
 115 398 l 1,23,24
 123 374 123 374 137.586325891 360.27169328 c 0,25,26
 157 342 157 342 188.790271903 342 c 0,27,28
 219 342 219 342 239.133179299 357.818926592 c 0,29,30
 261 375 261 375 261 405.932825294 c 0,31,32
 261 438 261 438 236.316681712 452.704955576 c 0,33,34
 214 466 214 466 170 466 c 2,35,-1
 151 466 l 1,36,-1
 151 519 l 1,37,-1
 169 519 l 2,38,39
 252 519 252 519 252 575.816209664 c 0,40,41
 252 603 252 603 230.618324279 617.629567599 c 0,42,43
 214 629 214 629 189.351048446 629 c 0,44,45
 162 629 162 629 143.789672917 614.431738333 c 0,46,47
 127 601 127 601 119 576 c 1,48,-1
 58 594 l 1,49,50
 71 634 71 634 105.925291801 656.627653843 c 0,51,52
 142 680 142 680 191.692853354 680 c 0,53,54
 225 680 225 680 252.126711693 670.178259559 c 0,55,56
 283 659 283 659 300.344226973 638.460783848 c 0,57,58
 321 614 321 614 321 579.445887409 c 0,59,60
 321 550 321 550 304.729475132 526.678914356 c 0,61,62
 291 507 291 507 268 495 c 1,63,64
 299 484 299 484 315.645935331 457.151717208 c 0,65,66
 330 434 330 434 330 403.271629979 c 0,67,68
 330 367 330 367 308.871711447 340.061432095 c 0,69,70
 290 316 290 316 256.254237593 303.020860613 c 0,71,72
 225 291 225 291 187.525002501 291 c 0,18,19
EndSplineSet
Ligature2: "'frac' Diagonal Fractions lookup 10 subtable" three slash four
EndChar

StartChar: less
Encoding: 60 60 107
Width: 553
GlyphClass: 1
Flags: W
HStem: 0 21G<468.587 513> 476 20G<468.587 513>
VStem: 40 105<160.5 335.5>
DStem2: 145 248 40 213 0.911813 -0.410605<0 400.423>
LayerCount: 2
Fore
SplineSet
513 0 m 1,0,-1
 40 213 l 1,1,-1
 40 283 l 1,2,-1
 513 496 l 1,3,-1
 513 406 l 1,4,-1
 145 248 l 1,5,-1
 513 90 l 1,6,-1
 513 0 l 1,0,-1
EndSplineSet
EndChar

StartChar: equal
Encoding: 61 61 108
Width: 602
GlyphClass: 1
Flags: W
HStem: 121 79<53 549> 307 79<53 549>
LayerCount: 2
Fore
SplineSet
53 121 m 1,0,-1
 53 200 l 1,1,-1
 549 200 l 1,2,-1
 549 121 l 1,3,-1
 53 121 l 1,0,-1
53 307 m 1,4,-1
 53 386 l 1,5,-1
 549 386 l 1,6,-1
 549 307 l 1,7,-1
 53 307 l 1,4,-1
EndSplineSet
EndChar

StartChar: greater
Encoding: 62 62 109
Width: 553
GlyphClass: 1
Flags: W
HStem: 0 21G<40 84.4131> 476 20G<40 84.4131>
VStem: 408 105<160.5 335.5>
DStem2: 40 90 40 0 0.911813 0.410605<0 400.423>
LayerCount: 2
Fore
SplineSet
40 0 m 1,0,-1
 40 90 l 1,1,-1
 408 248 l 1,2,-1
 40 406 l 1,3,-1
 40 496 l 1,4,-1
 513 283 l 1,5,-1
 513 213 l 1,6,-1
 40 0 l 1,0,-1
EndSplineSet
EndChar

StartChar: question
Encoding: 63 63 110
Width: 520
GlyphClass: 1
Flags: W
HStem: -12 129<183.655 272.352> 501 21G<50.6957 124.5> 610 70<175.32 339.537>
VStem: 40 82<522.037 554.086> 162 129<5.63929 96.4339> 182 86<190 285.758> 382 88<443.92 570.235>
LayerCount: 2
Fore
SplineSet
227.155342454 -12 m 0,0,1
 202 -12 202 -12 183.06147529 5.04467223896 c 0,2,3
 162 24 162 24 162 52.208013717 c 0,4,5
 162 79 162 79 180.963263344 97.9632633439 c 128,-1,6
 200 117 200 117 226.837706001 117 c 0,7,8
 254 117 254 117 272.94565719 97.0302532322 c 0,9,10
 291 78 291 78 291 52.3318246911 c 0,11,12
 291 26 291 26 271.911297417 6.91129741689 c 128,-1,13
 253 -12 253 -12 227.155342454 -12 c 0,0,1
182 190 m 1,14,-1
 182 227 l 2,15,16
 182 266 182 266 195.111862181 293.797147824 c 0,17,18
 207 319 207 319 235.868537407 343.906189135 c 0,19,20
 258 363 258 363 285.983047092 380.773016396 c 0,21,22
 332 410 332 410 353.863586974 435.36176089 c 0,23,24
 382 468 382 468 382 509.601262304 c 0,25,26
 382 556 382 556 346.217440632 583.603688656 c 0,27,28
 312 610 312 610 256.153566768 610 c 0,29,30
 212 610 212 610 180.806704178 591.618236391 c 0,31,32
 156 577 156 577 139.759957728 548.999927117 c 0,33,34
 127 527 127 527 122 501 c 1,35,-1
 40 524 l 1,36,37
 55 596 55 596 116.146866704 638.449064489 c 0,38,39
 176 680 176 680 259.081865276 680 c 0,40,41
 313 680 313 680 358.175994313 663.529585407 c 0,42,43
 409 645 409 645 437.077795706 611.858995232 c 0,44,45
 470 573 470 573 470 515.509606285 c 0,46,47
 470 473 470 473 450.193705921 434.487761514 c 0,48,49
 434 403 434 403 401.605875399 372.310829325 c 0,50,51
 377 349 377 349 339.61320145 324.698580943 c 0,52,53
 317 310 317 310 303.833022728 299.156606953 c 0,54,55
 283 282 283 282 275.409403903 265.806728326 c 0,56,57
 268 250 268 250 268 224 c 2,58,-1
 268 190 l 1,59,-1
 182 190 l 1,14,-1
EndSplineSet
EndChar

StartChar: at
Encoding: 64 64 111
Width: 780
GlyphClass: 1
Flags: W
HStem: -12 61<286.786 503.577> 155 74<324.405 418.877 541.253 628.939> 445 74<338.902 450.687> 618 62<287.965 505.935>
VStem: 50 62<222.507 444.431> 218 84<248.322 406.43> 451 81<262.984 444.02> 668 62<273.844 463.034>
LayerCount: 2
Fore
SplineSet
368.484015395 229 m 0,0,1
 398 229 398 229 420.76851327 252.62770245 c 0,2,3
 451 284 451 284 451 338 c 2,4,-1
 451 441 l 1,5,6
 441 443 441 443 429.269907926 444.020008006 c 0,7,8
 418 445 418 445 409.178705799 445 c 0,9,10
 381 445 381 445 360.748095631 436.561706513 c 0,11,12
 333 425 333 425 318.783828646 398.860588156 c 0,13,14
 302 368 302 368 302 321.448070884 c 0,15,16
 302 270 302 270 326.063854527 245.936145473 c 0,17,18
 343 229 343 229 368.484015395 229 c 0,0,1
397.395796915 -12 m 0,19,20
 332 -12 332 -12 269.223810153 13.1104759388 c 0,21,22
 207 38 207 38 159.292366664 81.8524710459 c 0,23,24
 108 129 108 129 80.2050213822 190.340642467 c 0,25,26
 50 257 50 257 50 333.588643276 c 0,27,28
 50 406 50 406 77.9981237915 470.810471739 c 0,29,30
 104 531 104 531 151.052703719 578.052703719 c 0,31,32
 199 626 199 626 259.424702668 652.103471553 c 0,33,34
 324 680 324 680 393.457947929 680 c 0,35,36
 453 680 453 680 509.978174089 660.033289422 c 0,37,38
 570 639 570 639 617.298642673 600.30111054 c 0,39,40
 669 558 669 558 697.392539492 503.542178351 c 0,41,42
 730 441 730 441 730 358.790599058 c 0,43,44
 730 289 730 289 704.515487522 238.573198713 c 0,45,46
 683 196 683 196 644.4515641 173.739635607 c 0,47,48
 612 155 612 155 575.098017079 155 c 0,49,50
 541 155 541 155 512.616529484 170.659845802 c 0,51,52
 483 187 483 187 473 213 c 1,53,54
 449 184 449 184 417.151782511 168.859044145 c 0,55,56
 388 155 388 155 357.378736997 155 c 0,57,58
 322 155 322 155 291.584518094 172.583950477 c 0,59,60
 258 192 258 192 239.176571395 226.352757204 c 0,61,62
 218 265 218 265 218 325.003447161 c 0,63,64
 218 394 218 394 248.053345854 441.226686343 c 0,65,66
 274 482 274 482 322.565309903 502.190072656 c 0,67,68
 363 519 363 519 413.890483005 519 c 0,69,70
 443 519 443 519 475.663109015 513.109931161 c 0,71,72
 504 508 504 508 532 499 c 1,73,-1
 532 273 l 2,74,75
 532 251 532 251 545.524273444 239.098639369 c 0,76,77
 557 229 557 229 577.505631883 229 c 0,78,79
 606 229 606 229 627.682949103 249.625244268 c 0,80,81
 647 268 647 268 657.82247127 300.46741381 c 0,82,83
 668 331 668 331 668 366.297353755 c 0,84,85
 668 417 668 417 646.517522563 463.545367781 c 0,86,87
 626 508 626 508 588.65738055 542.853111487 c 0,88,89
 551 578 551 578 503.989132019 597.18810938 c 0,90,91
 453 618 453 618 396.298019512 618 c 0,92,93
 338 618 338 618 284.683800061 595.224147599 c 0,94,95
 235 574 235 574 196.485418165 536.46047087 c 0,96,97
 156 497 156 497 134.354959642 446.330928252 c 0,98,99
 112 394 112 394 112 333.267975412 c 0,100,101
 112 271 112 271 136.630384404 215.974673141 c 0,102,103
 159 166 159 166 199.272993138 127.740656519 c 0,104,105
 239 90 239 90 289.804803021 69.5784615309 c 0,106,107
 341 49 341 49 395.678932643 49 c 0,108,109
 468 49 468 49 532 85 c 1,110,-1
 532 16 l 1,111,112
 500 2 500 2 465.663888757 -5.0691993735 c 0,113,114
 432 -12 432 -12 397.395796915 -12 c 0,19,20
EndSplineSet
EndChar

StartChar: colon
Encoding: 58 58 112
Width: 205
GlyphClass: 1
Flags: W
HStem: -12 129<57.6887 147.324> 375 129<57.6816 147.399>
VStem: 38 129<7.68325 97.4846 394.59 484.312>
LayerCount: 2
Fore
SplineSet
102.5 -12 m 128,-1,1
 76 -12 76 -12 56.9095217578 7.09047824218 c 128,-1,2
 38 26 38 26 38 52.4683763245 c 128,-1,3
 38 79 38 79 57.0961431207 98.0961431207 c 128,-1,4
 76 117 76 117 102.466391325 117 c 128,-1,5
 129 117 129 117 147.917233271 98.0827667287 c 128,-1,6
 167 79 167 79 167 52.4712032359 c 128,-1,7
 167 26 167 26 148.005164491 7.00516449057 c 128,-1,0
 129 -12 129 -12 102.5 -12 c 128,-1,1
102.5 375 m 128,-1,9
 76 375 76 375 57.0887869855 393.911213014 c 128,-1,10
 38 413 38 413 38 439.530886496 c 128,-1,11
 38 466 38 466 57.0849388728 485.084938873 c 128,-1,12
 76 504 76 504 102.47031677 504 c 128,-1,13
 129 504 129 504 148.095795716 484.904204284 c 128,-1,14
 167 466 167 466 167 439.533486925 c 128,-1,15
 167 413 167 413 147.994001416 393.994001416 c 128,-1,8
 129 375 129 375 102.5 375 c 128,-1,9
EndSplineSet
EndChar

StartChar: semicolon
Encoding: 59 59 113
Width: 205
GlyphClass: 1
Flags: W
HStem: 375 129<57.6816 147.399>
VStem: 38 129<5.35938 97.4373 394.59 484.312>
DStem2: 45 -133 100 -133 0.359367 0.933196<19.7652 130.74>
LayerCount: 2
Fore
SplineSet
45 -133 m 1,0,-1
 92 -11 l 1,1,2
 69 -7 69 -7 53.7141292562 10.751333767 c 0,3,4
 38 29 38 29 38 52.8141485939 c 0,5,6
 38 79 38 79 57.0338328092 98.0338328092 c 128,-1,7
 76 117 76 117 102.488192519 117 c 128,-1,8
 129 117 129 117 148.092594157 97.907405843 c 128,-1,9
 167 79 167 79 167 53.9049650729 c 0,10,11
 167 41 167 41 162 28 c 2,12,-1
 100 -133 l 1,13,-1
 45 -133 l 1,0,-1
102.5 375 m 128,-1,15
 76 375 76 375 57.0887869855 393.911213014 c 128,-1,16
 38 413 38 413 38 439.530886496 c 128,-1,17
 38 466 38 466 57.0849388728 485.084938873 c 128,-1,18
 76 504 76 504 102.47031677 504 c 128,-1,19
 129 504 129 504 148.095795716 484.904204284 c 128,-1,20
 167 466 167 466 167 439.533486925 c 128,-1,21
 167 413 167 413 147.994001416 393.994001416 c 128,-1,14
 129 375 129 375 102.5 375 c 128,-1,15
EndSplineSet
EndChar

StartChar: bracketleft
Encoding: 91 91 114
Width: 315
GlyphClass: 1
Flags: W
HStem: -161 74<157 282> 594 74<157 282>
VStem: 76 206<-161 -87 594 668> 76 81<-87 594>
LayerCount: 2
Fore
SplineSet
76 -161 m 1,0,-1
 76 668 l 1,1,-1
 282 668 l 1,2,-1
 282 594 l 1,3,-1
 157 594 l 1,4,-1
 157 -87 l 1,5,-1
 282 -87 l 1,6,-1
 282 -161 l 1,7,-1
 76 -161 l 1,0,-1
EndSplineSet
EndChar

StartChar: backslash
Encoding: 92 92 115
Width: 377
GlyphClass: 1
Flags: W
HStem: 0 21G<267.216 362> 648 20G<15 109.784>
DStem2: 102 668 15 668 0.362716 -0.9319<0 685.259>
LayerCount: 2
Fore
SplineSet
275 0 m 1,0,-1
 15 668 l 1,1,-1
 102 668 l 1,2,-1
 362 0 l 1,3,-1
 275 0 l 1,0,-1
EndSplineSet
EndChar

StartChar: bracketright
Encoding: 93 93 116
Width: 315
GlyphClass: 1
Flags: W
HStem: -161 74<33 158> 594 74<33 158>
VStem: 33 206<-161 -87 594 668> 158 81<-87 594>
LayerCount: 2
Fore
SplineSet
33 -161 m 1,0,-1
 33 -87 l 1,1,-1
 158 -87 l 1,2,-1
 158 594 l 1,3,-1
 33 594 l 1,4,-1
 33 668 l 1,5,-1
 239 668 l 1,6,-1
 239 -161 l 1,7,-1
 33 -161 l 1,0,-1
EndSplineSet
EndChar

StartChar: asciicircum
Encoding: 94 94 117
Width: 552
GlyphClass: 1
Flags: W
HStem: 569 99<188.5 363.5>
DStem2: 53 311 142 311 0.460099 0.887867<40.9488 331.672> 314 668 276 569 0.460099 -0.887867<70.4151 361.138>
LayerCount: 2
Fore
SplineSet
53 311 m 1,0,-1
 238 668 l 1,1,-1
 314 668 l 1,2,-1
 499 311 l 1,3,-1
 410 311 l 1,4,-1
 276 569 l 1,5,-1
 142 311 l 1,6,-1
 53 311 l 1,0,-1
EndSplineSet
EndChar

StartChar: underscore
Encoding: 95 95 118
Width: 396
GlyphClass: 1
Flags: W
HStem: -79 79<10 386>
LayerCount: 2
Fore
SplineSet
10 -79 m 1,0,-1
 10 0 l 1,1,-1
 386 0 l 1,2,-1
 386 -79 l 1,3,-1
 10 -79 l 1,0,-1
EndSplineSet
EndChar

StartChar: grave
Encoding: 96 96 119
Width: 268
GlyphClass: 1
Flags: W
HStem: 571 136
VStem: 56.0682 158.932
LayerCount: 2
Fore
SplineSet
145 571 m 1,0,1
 126 587 126 587 117.142337673 594.381385272 c 0,2,3
 84 622 84 622 70.4392643025 636.125766352 c 0,4,5
 60 647 60 647 56.0681627101 655.425365621 c 0,6,7
 53 662 53 662 53 669.948948615 c 0,8,9
 53 685 53 685 63.8318756897 695.83187569 c 0,10,11
 75 707 75 707 90.8072856969 707 c 0,12,13
 99 707 99 707 105.556057721 704.541478355 c 0,14,15
 115 701 115 701 122 692 c 2,16,-1
 215 571 l 1,17,-1
 145 571 l 1,0,1
EndSplineSet
EndChar

StartChar: exclam
Encoding: 33 33 120
Width: 281
GlyphClass: 1
Flags: W
HStem: -12 129<95.6887 185.324> 648 20G<96 185>
VStem: 76 129<7.68325 97.4846> 96 89<378.944 668>
LayerCount: 2
Fore
SplineSet
140.5 -12 m 128,-1,1
 114 -12 114 -12 94.9095217578 7.09047824218 c 128,-1,2
 76 26 76 26 76 52.4683763245 c 128,-1,3
 76 79 76 79 95.0961431207 98.0961431207 c 128,-1,4
 114 117 114 117 140.466391325 117 c 128,-1,5
 167 117 167 117 185.917233271 98.0827667287 c 128,-1,6
 205 79 205 79 205 52.4712032359 c 128,-1,7
 205 26 205 26 186.005164491 7.00516449057 c 128,-1,0
 167 -12 167 -12 140.5 -12 c 128,-1,1
114 195 m 1,8,-1
 96 496 l 1,9,-1
 96 668 l 1,10,-1
 185 668 l 1,11,-1
 185 496 l 1,12,-1
 167 195 l 1,13,-1
 114 195 l 1,8,-1
EndSplineSet
EndChar

StartChar: quotedbl
Encoding: 34 34 121
Width: 301
GlyphClass: 1
Flags: W
HStem: 447 221<54 106 195 247>
VStem: 54 52<447 557.5> 195 52<447 557.5>
LayerCount: 2
Fore
SplineSet
54 447 m 1,0,-1
 40 668 l 1,1,-1
 120 668 l 1,2,-1
 106 447 l 1,3,-1
 54 447 l 1,0,-1
195 447 m 1,4,-1
 181 668 l 1,5,-1
 261 668 l 1,6,-1
 247 447 l 1,7,-1
 195 447 l 1,4,-1
EndSplineSet
EndChar

StartChar: numbersign
Encoding: 35 35 122
Width: 655
GlyphClass: 1
Flags: W
HStem: 0 21G<137 221.791 342 426.791> 172 81<49 162 255 366 460 572> 415 81<83 196 289 400 494 606> 648 20G<228.209 313 433.209 518>
VStem: 137 82<0 82> 231 82<586 668> 342 82<0 82> 436 82<586 668>
DStem2: 137 0 219 0 0.139346 0.990244<11.4263 173.806 266.974 419.173 512.341 674.581> 342 0 424 0 0.139346 0.990244<11.4263 173.666 266.974 419.033 512.341 674.581>
LayerCount: 2
Fore
SplineSet
255 253 m 1,0,-1
 378 253 l 1,1,-1
 400 415 l 1,2,-1
 277 415 l 1,3,-1
 255 253 l 1,0,-1
137 0 m 1,4,-1
 162 172 l 1,5,-1
 38 172 l 1,6,-1
 49 253 l 1,7,-1
 173 253 l 1,8,-1
 196 415 l 1,9,-1
 72 415 l 1,10,-1
 83 496 l 1,11,-1
 207 496 l 1,12,-1
 231 668 l 1,13,-1
 313 668 l 1,14,-1
 289 496 l 1,15,-1
 412 496 l 1,16,-1
 436 668 l 1,17,-1
 518 668 l 1,18,-1
 494 496 l 1,19,-1
 617 496 l 1,20,-1
 606 415 l 1,21,-1
 482 415 l 1,22,-1
 460 253 l 1,23,-1
 583 253 l 1,24,-1
 572 172 l 1,25,-1
 448 172 l 1,26,-1
 424 0 l 1,27,-1
 342 0 l 1,28,-1
 366 172 l 1,29,-1
 243 172 l 1,30,-1
 219 0 l 1,31,-1
 137 0 l 1,4,-1
EndSplineSet
EndChar

StartChar: dollar
Encoding: 36 36 123
Width: 594
GlyphClass: 1
Flags: W
HStem: -11 80<197.625 267 317 402.001> 600 79<191.698 267 317 385.386>
VStem: 47 96<444.268 558.348> 267 50<-87 -12 69 297 398 599 676.889 742> 457 97<118.07 240.851>
DStem2: 252 401 231 315 0.973748 -0.227629<-94.0974 15.2891 86.9671 208.991>
LayerCount: 2
Fore
SplineSet
317 68 m 1,0,1
 384 72 384 72 421.77551698 104.083315791 c 0,2,3
 457 134 457 134 457 181.752971084 c 0,4,5
 457 232 457 232 411.828331493 261.535321716 c 0,6,7
 379 283 379 283 317 297 c 1,8,-1
 317 68 l 1,0,1
267 398 m 1,9,-1
 267 600 l 1,10,11
 241 598 241 598 215.911783611 588.916335445 c 0,12,13
 183 577 183 577 165.398673129 559.398673129 c 0,14,15
 143 537 143 537 143 501.316581853 c 0,16,17
 143 459 143 459 178.088013085 431.709323156 c 0,18,19
 206 410 206 410 252 401 c 2,20,-1
 267 398 l 1,9,-1
267 -87 m 1,21,-1
 267 -11 l 1,22,23
 181 -3 181 -3 122.015586837 38.6958782702 c 0,24,25
 65 79 65 79 40 146 c 1,26,-1
 127 172 l 1,27,28
 161 83 161 83 267 69 c 1,29,-1
 267 308 l 1,30,-1
 231 315 l 2,31,32
 185 324 185 324 148.089863898 342.894474433 c 0,33,34
 101 367 101 367 76.0518185648 401.650251993 c 0,35,36
 47 442 47 442 47 496.966897464 c 0,37,38
 47 542 47 542 68.0125456305 577.559692605 c 0,39,40
 86 608 86 608 120.621655303 631.436197436 c 0,41,42
 151 652 151 652 191.3477602 664.575925257 c 0,43,44
 228 676 228 676 267 679 c 1,45,-1
 267 742 l 1,46,-1
 317 742 l 1,47,-1
 317 679 l 1,48,49
 384 674 384 674 434.791404906 646.545186538 c 0,50,51
 495 614 495 614 523 555 c 1,52,-1
 437 530 l 1,53,54
 418 562 418 562 380.808450425 580.595774788 c 0,55,56
 352 595 352 595 317 599 c 1,57,-1
 317 386 l 1,58,-1
 329 383 l 2,59,60
 367 373 367 373 393.37779661 364.31869985 c 0,61,62
 446 347 446 347 477.396255969 327.318764915 c 0,63,64
 513 305 513 305 531.575442806 275.098067679 c 0,65,66
 554 239 554 239 554 187.940299113 c 0,67,68
 554 126 554 126 518.984502274 79.3126696984 c 0,69,70
 488 38 488 38 432.234816371 13.7318182357 c 0,71,72
 380 -9 380 -9 317 -12 c 1,73,-1
 317 -87 l 1,74,-1
 267 -87 l 1,21,-1
EndSplineSet
EndChar

StartChar: percent
Encoding: 37 37 124
Width: 927
GlyphClass: 1
Flags: W
HStem: -12 74<643.235 771.552> 0 21G<186 288.012> 277 75<642.71 771.951> 317 74<155.836 284.076> 606 74<154.71 283.969> 648 20G<639.988 742>
VStem: 38 74<434.487 562.982> 186 88<0 88> 327 74<434.004 563.085> 526 74<105.835 234.004> 654 88<580 668> 815 74<105.823 234.117>
DStem2: 186 0 274 0 0.573791 0.819001<50.4936 815.627>
LayerCount: 2
Fore
SplineSet
707.5 62 m 128,-1,1
 752 62 752 62 783.712999062 94.2163799998 c 0,2,3
 815 126 815 126 815 169.925366831 c 128,-1,4
 815 214 815 214 783.486653676 245.513346324 c 128,-1,5
 752 277 752 277 707.504714582 277 c 128,-1,6
 663 277 663 277 631.410181968 245.410181968 c 128,-1,7
 600 214 600 214 600 170.031409823 c 128,-1,8
 600 126 600 126 631.292620326 94.2106714145 c 0,9,0
 663 62 663 62 707.5 62 c 128,-1,1
708 -12 m 128,-1,11
 658 -12 658 -12 615.588930524 13.0378602928 c 0,12,13
 575 37 575 37 551.173739841 77.3587672082 c 0,14,15
 526 120 526 120 526 170.339098099 c 0,16,17
 526 220 526 220 550.996197848 262.340498396 c 0,18,19
 575 303 575 303 615.376776913 326.836892394 c 0,20,21
 658 352 658 352 708.333817795 352 c 0,22,23
 758 352 758 352 800.022698898 326.888875049 c 0,24,25
 840 303 840 303 863.693291179 262.866465962 c 0,26,27
 889 220 889 220 889 169.595053681 c 0,28,29
 889 120 889 120 863.89764776 77.4796890635 c 0,30,31
 840 37 840 37 800.346243169 13.3044623816 c 0,32,10
 758 -12 758 -12 708 -12 c 128,-1,11
220 391 m 128,-1,34
 264 391 264 391 295.5 422.5 c 128,-1,35
 327 454 327 454 327 498.5 c 128,-1,36
 327 543 327 543 295.411016239 574.588983761 c 128,-1,37
 264 606 264 606 219.531471271 606 c 128,-1,38
 175 606 175 606 143.582422168 574.582422168 c 128,-1,39
 112 543 112 543 112 498.646128547 c 0,40,41
 112 454 112 454 144.242605911 422.261184806 c 0,42,33
 176 391 176 391 220 391 c 128,-1,34
186 0 m 1,43,-1
 654 668 l 1,44,-1
 742 668 l 1,45,-1
 274 0 l 1,46,-1
 186 0 l 1,43,-1
220 317 m 128,-1,48
 170 317 170 317 127.39537592 342.152127469 c 0,49,50
 87 366 87 366 63.3172191574 405.632408757 c 0,51,52
 38 448 38 448 38 498.914237737 c 0,53,54
 38 549 38 549 63.1626167891 591.108868912 c 0,55,56
 87 631 87 631 127.111171535 654.680089219 c 0,57,58
 170 680 170 680 220.411465162 680 c 0,59,60
 270 680 270 680 312.199135959 654.783443147 c 0,61,62
 352 631 352 631 375.430204196 591.79027053 c 0,63,64
 401 549 401 549 401 497.960444622 c 0,65,66
 401 448 401 448 375.737719273 405.724346539 c 0,67,68
 352 366 352 366 312.607333191 342.46047959 c 0,69,47
 270 317 270 317 220 317 c 128,-1,48
EndSplineSet
EndChar

StartChar: ampersand
Encoding: 38 38 125
Width: 705
GlyphClass: 1
Flags: W
HStem: -12 74<184.846 362.435> 0 21G<557.149 695> 606 74<251.873 383.461>
VStem: 38 90<116.827 260.967> 135 90<478.327 584.602> 409 82<471.933 585.182> 521 87<251.392 361> 576 119<0 119>
DStem2: 351 363 259 334 0.688222 -0.7255<0 198.07 298.654 418.206>
LayerCount: 2
Fore
SplineSet
268.307510456 62 m 0,0,1
 316 62 316 62 360.565305677 82.7971426492 c 0,2,3
 406 104 406 104 440 143 c 1,4,-1
 259 334 l 1,5,6
 199 313 199 313 166.89490215 281.347086627 c 0,7,8
 128 243 128 243 128 187.670888737 c 0,9,10
 128 149 128 149 147.973369941 119.039945088 c 0,11,12
 166 92 166 92 196.513724614 77.2352945416 c 0,13,14
 228 62 228 62 268.307510456 62 c 0,0,1
300 415 m 1,15,16
 349 433 349 433 376.686955747 459.764057222 c 0,17,18
 409 491 409 491 409 533.506409538 c 0,19,20
 409 572 409 572 379.312288107 591.044947252 c 0,21,22
 356 606 356 606 319.624681039 606 c 0,23,24
 282 606 282 606 256.875691054 591.895124802 c 0,25,26
 225 574 225 574 225 538.523934304 c 0,27,28
 225 513 225 513 245.026285559 480.836571678 c 0,29,30
 258 460 258 460 282.695623028 434.636927701 c 0,31,32
 295 422 295 422 300 415 c 1,15,16
264.164278101 -12 m 0,33,34
 194 -12 194 -12 141.089704508 15.2409442135 c 0,35,36
 93 40 93 40 65.8612482094 83.422002865 c 0,37,38
 38 128 38 128 38 185.420787841 c 0,39,40
 38 260 38 260 88.2084787352 313.947408003 c 0,41,42
 132 361 132 361 209 387 c 1,43,44
 175 425 175 425 157.234106562 457.86690286 c 0,45,46
 135 499 135 499 135 540.238309844 c 0,47,48
 135 603 135 603 187.283004521 642.085352894 c 0,49,50
 238 680 238 680 313.154532691 680 c 0,51,52
 358 680 358 680 394.023384712 667.84210766 c 0,53,54
 438 653 438 653 462.078981597 624.377814328 c 0,55,56
 491 590 491 590 491 535.864647295 c 0,57,58
 491 473 491 473 447.794120673 426.470591494 c 0,59,60
 413 389 413 389 351 363 c 1,61,-1
 487 219 l 1,62,63
 500 250 500 250 508.262278214 282.590097401 c 0,64,65
 518 321 518 321 521 361 c 1,66,-1
 608 361 l 1,67,68
 604 307 604 307 589.035717133 256.314525774 c 0,69,70
 573 202 573 202 546 157 c 1,71,-1
 695 0 l 1,72,-1
 576 0 l 1,73,-1
 494 87 l 1,74,75
 451 41 451 41 395.976639658 15.8600163955 c 0,76,77
 335 -12 335 -12 264.164278101 -12 c 0,33,34
EndSplineSet
EndChar

StartChar: quotesingle
Encoding: 39 39 126
Width: 160
GlyphClass: 1
Flags: W
HStem: 447 221<54 106>
VStem: 54 52<447 557.5>
LayerCount: 2
Fore
SplineSet
54 447 m 1,0,-1
 40 668 l 1,1,-1
 120 668 l 1,2,-1
 106 447 l 1,3,-1
 54 447 l 1,0,-1
EndSplineSet
EndChar

StartChar: parenleft
Encoding: 40 40 127
Width: 300
GlyphClass: 1
Flags: W
HStem: -161 21G<154.5 265> 648 20G<132.5 235>
VStem: 50 74<98.2578 458.003> 189 76<-161 -85>
LayerCount: 2
Fore
SplineSet
189 -161 m 1,0,1
 120 -63 120 -63 84.2934248515 52.7913222673 c 0,2,3
 50 164 50 164 50 279.009817054 c 0,4,5
 50 382 50 382 77.0473448706 479.370441534 c 0,6,7
 105 580 105 580 160 668 c 1,8,-1
 235 668 l 1,9,10
 186 598 186 598 156.859720034 502.119078822 c 0,11,12
 124 394 124 394 124 281.190414752 c 0,13,14
 124 169 124 169 153.502620316 65.9677721256 c 0,15,16
 189 -58 189 -58 265 -161 c 1,17,-1
 189 -161 l 1,0,1
EndSplineSet
EndChar

StartChar: parenright
Encoding: 41 41 128
Width: 300
GlyphClass: 1
Flags: W
HStem: -161 21G<35 146> 648 20G<66 169>
VStem: 35 77<-161 -84> 177 73<100.153 462.441>
LayerCount: 2
Fore
SplineSet
35 -161 m 1,0,1
 111 -58 111 -58 147.1336231 66.8252434372 c 0,2,3
 177 170 177 170 177 281.412191475 c 0,4,5
 177 394 177 394 145.380940514 499.742428446 c 0,6,7
 116 598 116 598 66 668 c 1,8,-1
 141 668 l 1,9,10
 197 580 197 580 224.707456195 476.489125915 c 0,11,12
 250 382 250 382 250 281.832438844 c 0,13,14
 250 164 250 164 215.34092453 51.6055695469 c 0,15,16
 180 -63 180 -63 112 -161 c 1,17,-1
 35 -161 l 1,0,1
EndSplineSet
EndChar

StartChar: asterisk
Encoding: 42 42 129
Width: 433
GlyphClass: 1
Flags: W
HStem: 388 280
VStem: 187 57<562 668>
DStem2: 86 595 68 540 0.950549 -0.310575<0 105.916> 107 422 153 388 0.584802 0.811176<0 105.34> 261 508 215 474 0.590957 -0.806703<0.243887 106.607> 244 562 261 508 0.954146 0.29934<0.0561263 106.247>
LayerCount: 2
Fore
SplineSet
153 388 m 1,0,-1
 107 422 l 1,1,-1
 169 508 l 1,2,-1
 68 540 l 1,3,-1
 86 595 l 1,4,-1
 187 562 l 1,5,-1
 187 668 l 1,6,-1
 244 668 l 1,7,-1
 244 562 l 1,8,-1
 345 595 l 1,9,-1
 363 540 l 1,10,-1
 261 508 l 1,11,-1
 324 422 l 1,12,-1
 278 388 l 1,13,-1
 215 474 l 1,14,-1
 153 388 l 1,0,-1
EndSplineSet
EndChar

StartChar: plus
Encoding: 43 43 130
Width: 602
GlyphClass: 1
Flags: W
HStem: 0 21G<261 341> 208 80<53 261 341 549> 476 20G<261 341>
VStem: 261 80<0 208 288 496>
LayerCount: 2
Fore
SplineSet
261 0 m 1,0,-1
 261 208 l 1,1,-1
 53 208 l 1,2,-1
 53 288 l 1,3,-1
 261 288 l 1,4,-1
 261 496 l 1,5,-1
 341 496 l 1,6,-1
 341 288 l 1,7,-1
 549 288 l 1,8,-1
 549 208 l 1,9,-1
 341 208 l 1,10,-1
 341 0 l 1,11,-1
 261 0 l 1,0,-1
EndSplineSet
EndChar

StartChar: comma
Encoding: 44 44 131
Width: 205
GlyphClass: 1
Flags: W
HStem: -133 250<92.0377 100>
VStem: 38 129<5.35938 97.4373>
DStem2: 45 -133 100 -133 0.359367 0.933196<19.7652 130.74>
LayerCount: 2
Fore
SplineSet
45 -133 m 1,0,-1
 92 -11 l 1,1,2
 69 -7 69 -7 53.7141292562 10.751333767 c 0,3,4
 38 29 38 29 38 52.8141485939 c 0,5,6
 38 79 38 79 57.0338328092 98.0338328092 c 128,-1,7
 76 117 76 117 102.488192519 117 c 128,-1,8
 129 117 129 117 148.092594157 97.907405843 c 128,-1,9
 167 79 167 79 167 53.9049650729 c 0,10,11
 167 41 167 41 162 28 c 2,12,-1
 100 -133 l 1,13,-1
 45 -133 l 1,0,-1
EndSplineSet
EndChar

StartChar: hyphen
Encoding: 45 45 132
Width: 368
GlyphClass: 1
Flags: W
HStem: 208 81<38 330>
VStem: 38 292<208 289>
LayerCount: 2
Fore
SplineSet
38 208 m 1,0,-1
 38 289 l 1,1,-1
 330 289 l 1,2,-1
 330 208 l 1,3,-1
 38 208 l 1,0,-1
EndSplineSet
EndChar

StartChar: period
Encoding: 46 46 133
Width: 205
GlyphClass: 1
Flags: W
HStem: -12 129<57.6887 147.324>
VStem: 38 129<7.68325 97.4846>
LayerCount: 2
Fore
SplineSet
102.5 -12 m 128,-1,1
 76 -12 76 -12 56.9095217578 7.09047824218 c 128,-1,2
 38 26 38 26 38 52.4683763245 c 128,-1,3
 38 79 38 79 57.0961431207 98.0961431207 c 128,-1,4
 76 117 76 117 102.466391325 117 c 128,-1,5
 129 117 129 117 147.917233271 98.0827667287 c 128,-1,6
 167 79 167 79 167 52.4712032359 c 128,-1,7
 167 26 167 26 148.005164491 7.00516449057 c 128,-1,0
 129 -12 129 -12 102.5 -12 c 128,-1,1
EndSplineSet
EndChar

StartChar: slash
Encoding: 47 47 134
Width: 377
GlyphClass: 1
Flags: W
HStem: 0 21G<15 109.784> 648 20G<267.216 362>
DStem2: 15 0 102 0 0.362716 0.9319<31.5563 716.815>
LayerCount: 2
Fore
SplineSet
15 0 m 1,0,-1
 275 668 l 1,1,-1
 362 668 l 1,2,-1
 102 0 l 1,3,-1
 15 0 l 1,0,-1
EndSplineSet
EndChar

StartChar: braceleft
Encoding: 123 123 135
Width: 319
GlyphClass: 1
Flags: W
HStem: -161 71<200.935 285> 220 67<38 93.2521> 597 71<200.793 285>
VStem: 108 84<-76.6143 205.453 301.409 582.875>
CounterMasks: 1 e0
LayerCount: 2
Fore
SplineSet
242 -161 m 2,0,1
 186 -161 186 -161 157.451666628 -148.694683892 c 0,2,3
 128 -136 128 -136 117.01711318 -103.05133954 c 0,4,5
 108 -76 108 -76 108 -25 c 2,6,-1
 108 125 l 2,7,8
 108 168 108 168 99.0575416769 188.217731861 c 0,9,10
 85 220 85 220 38 220 c 1,11,-1
 38 287 l 1,12,13
 85 287 85 287 99.0575416769 318.782268139 c 0,14,15
 108 339 108 339 108 382 c 2,16,-1
 108 532 l 2,17,18
 108 584 108 584 117.152288346 610.999250621 c 0,19,20
 128 643 128 643 157.898842168 655.887431969 c 0,21,22
 186 668 186 668 242 668 c 2,23,-1
 285 668 l 1,24,-1
 285 597 l 1,25,-1
 243 597 l 2,26,27
 210 597 210 597 200.490591132 583.26418719 c 0,28,29
 192 571 192 571 192 533 c 2,30,-1
 192 380 l 2,31,32
 192 317 192 317 167.268022969 286.516400404 c 0,33,34
 149 264 149 264 113 254 c 1,35,-1
 113 253 l 1,36,37
 151 243 151 243 169.269059925 218.938311319 c 0,38,39
 192 189 192 189 192 127 c 2,40,-1
 192 -26 l 2,41,42
 192 -65 192 -65 200.636934679 -76.9957426093 c 0,43,44
 210 -90 210 -90 243 -90 c 2,45,-1
 285 -90 l 1,46,-1
 285 -161 l 1,47,-1
 242 -161 l 2,0,1
EndSplineSet
EndChar

StartChar: bar
Encoding: 124 124 136
Width: 233
GlyphClass: 1
Flags: W
HStem: -161 21G<76 157> 648 20G<76 157>
VStem: 76 81<-161 668>
LayerCount: 2
Fore
SplineSet
76 -161 m 1,0,-1
 76 668 l 1,1,-1
 157 668 l 1,2,-1
 157 -161 l 1,3,-1
 76 -161 l 1,0,-1
EndSplineSet
EndChar

StartChar: braceright
Encoding: 125 125 137
Width: 319
GlyphClass: 1
Flags: W
HStem: -161 71<34 118.065> 220 67<226.425 281> 597 71<34 118.207>
VStem: 127 84<-76.6143 204.566 302.592 582.875>
CounterMasks: 1 e0
LayerCount: 2
Fore
SplineSet
34 -161 m 1,0,-1
 34 -90 l 1,1,-1
 76 -90 l 2,2,3
 109 -90 109 -90 118.363065321 -76.9957426093 c 0,4,5
 127 -65 127 -65 127 -26 c 2,6,-1
 127 127 l 2,7,8
 127 189 127 189 150.61601575 219.363448822 c 0,9,10
 169 243 169 243 206 253 c 1,11,-1
 206 254 l 1,12,13
 170 264 170 264 151.731977031 286.516400404 c 0,14,15
 127 317 127 317 127 380 c 2,16,-1
 127 533 l 2,17,18
 127 571 127 571 118.509408868 583.26418719 c 0,19,20
 109 597 109 597 76 597 c 2,21,-1
 34 597 l 1,22,-1
 34 668 l 1,23,-1
 77 668 l 2,24,25
 133 668 133 668 161.690807219 655.63327275 c 0,26,27
 191 643 191 643 201.874028607 610.92161561 c 0,28,29
 211 584 211 584 211 532 c 2,30,-1
 211 382 l 2,31,32
 211 339 211 339 220.514589664 318.385055728 c 0,33,34
 235 287 235 287 281 287 c 1,35,-1
 281 220 l 1,36,37
 235 220 235 220 220.514589664 188.614944272 c 0,38,39
 211 168 211 168 211 125 c 2,40,-1
 211 -25 l 2,41,42
 211 -76 211 -76 201.944609055 -103.166172836 c 0,43,44
 191 -136 191 -136 160.894434001 -148.976537068 c 0,45,46
 133 -161 133 -161 77 -161 c 2,47,-1
 34 -161 l 1,0,-1
EndSplineSet
EndChar

StartChar: asciitilde
Encoding: 126 126 138
Width: 555
GlyphClass: 1
Flags: W
HStem: 195 73<303.765 427.151> 249 74<133.215 261.163>
DStem2: 270.224 303.52 265.08 225.705 0.930033 -0.367477<-65.4996 113.755>
LayerCount: 2
Fore
SplineSet
379.472949412 195 m 0,0,1
 343 195 343 195 287.091939316 216.877067224 c 0,2,3
 274 222 274 222 265.080177818 225.705156906 c 0,4,5
 209 249 209 249 177.254508572 249 c 0,6,7
 154 249 154 249 137.937434486 237.189290063 c 0,8,9
 120 224 120 224 115 199 c 1,10,-1
 40 221 l 1,11,12
 51 267 51 267 85.9669822815 294.196541774 c 0,13,14
 123 323 123 323 179.986412652 323 c 0,15,16
 219 323 219 323 270.224163063 303.520388694 c 0,17,18
 290 296 290 296 305.9583579 288.792999658 c 0,19,20
 352 268 352 268 379.363562874 268 c 0,21,22
 401 268 401 268 417.27304004 280.08854403 c 0,23,24
 436 294 436 294 441 319 c 1,25,-1
 515 297 l 1,26,27
 504 251 504 251 468.784275435 223.609992005 c 0,28,29
 432 195 432 195 379.472949412 195 c 0,0,1
EndSplineSet
EndChar

StartChar: exclamdown
Encoding: 161 161 139
Width: 281
GlyphClass: 1
Flags: W
HStem: -161 21G<96 185> 390 129<95.6887 185.324>
VStem: 76 129<409.683 499.485> 96 89<-161 127.667>
LayerCount: 2
Fore
SplineSet
96 -161 m 1,0,-1
 96 11 l 1,1,-1
 114 311 l 1,2,-1
 167 311 l 1,3,-1
 185 11 l 1,4,-1
 185 -161 l 1,5,-1
 96 -161 l 1,0,-1
140.5 390 m 128,-1,7
 114 390 114 390 94.9095217578 409.090478242 c 128,-1,8
 76 428 76 428 76 454.468376324 c 128,-1,9
 76 481 76 481 95.0961431207 500.096143121 c 128,-1,10
 114 519 114 519 140.466391325 519 c 128,-1,11
 167 519 167 519 185.917233271 500.082766729 c 128,-1,12
 205 481 205 481 205 454.471203236 c 128,-1,13
 205 428 205 428 186.005164491 409.005164491 c 128,-1,6
 167 390 167 390 140.5 390 c 128,-1,7
EndSplineSet
EndChar

StartChar: cent
Encoding: 162 162 140
Width: 500
GlyphClass: 1
Flags: W
HStem: -12 74<286 347.558> 430 74<286 347.475>
VStem: 38 91<142.117 351.49> 236 50<-87 -9.49062 67 425 504 571>
LayerCount: 2
Fore
SplineSet
236 67 m 1,0,-1
 236 425 l 1,1,2
 192 413 192 413 164.182441722 374.585276664 c 0,3,4
 129 326 129 326 129 245.33082026 c 0,5,6
 129 169 129 169 163.951265615 119.624402544 c 0,7,8
 192 80 192 80 236 67 c 1,0,-1
236 -87 m 1,9,-1
 236 -10 l 1,10,11
 175 -2 175 -2 129.799232648 33.0432915423 c 0,12,13
 86 67 86 67 62.1470893659 122.159855841 c 0,14,15
 38 178 38 178 38 246.103870248 c 0,16,17
 38 314 38 314 62.2500141574 368.562531854 c 0,18,19
 86 422 86 422 129.225601213 455.997663876 c 0,20,21
 175 492 175 492 236 501 c 1,22,-1
 236 571 l 1,23,-1
 286 571 l 1,24,-1
 286 504 l 1,25,26
 351 502 351 502 401.901452811 465.641819421 c 0,27,28
 442 437 442 437 465 393 c 1,29,-1
 388 365 l 1,30,31
 356 422 356 422 286 430 c 1,32,-1
 286 62 l 1,33,34
 322 66 322 66 350.633455363 85.4491394919 c 0,35,36
 375 102 375 102 390 127 c 1,37,-1
 467 99 l 1,38,39
 442 54 442 54 396.468015608 24.7636731796 c 0,40,41
 347 -7 347 -7 286 -12 c 1,42,-1
 286 -87 l 1,43,-1
 236 -87 l 1,9,-1
EndSplineSet
EndChar

StartChar: sterling
Encoding: 163 163 141
Width: 586
GlyphClass: 1
Flags: W
HStem: -12 78<323.683 522.802> 26 76<194.7 341.164> 318 51<70 156 272 453> 609 71<243.089 414.469>
VStem: 112 89<424.761 570.301> 202 88<160.539 315.249>
DStem2: 225.635 417.962 156 369 0.409789 -0.91218<-89.7013 16.126 110.183 166.113> 323.601 87.7435 341.027 4.23354 0.942183 -0.335099<-62.3268 100.588>
LayerCount: 2
Fore
SplineSet
101 -12 m 1,0,-1
 73 55 l 1,1,2
 87 61 87 61 102.349101531 70.2808520887 c 0,3,4
 130 87 130 87 149.361209072 105.910948396 c 0,5,6
 173 129 173 129 185.988219679 155.424309002 c 0,7,8
 202 188 202 188 202 224.567998727 c 0,9,10
 202 246 202 246 196.779771878 268.304611068 c 0,11,12
 191 293 191 293 179 318 c 1,13,-1
 70 318 l 1,14,-1
 70 369 l 1,15,-1
 156 369 l 1,16,17
 140 403 140 403 132.392002637 421.748279216 c 0,18,19
 112 472 112 472 112 516.451937709 c 0,20,21
 112 573 112 573 147.710683396 613.039251081 c 0,22,23
 178 647 178 647 233.361601019 664.911106212 c 0,24,25
 280 680 280 680 333.173436537 680 c 0,26,27
 417 680 417 680 473.553902713 641.440520877 c 0,28,29
 527 605 527 605 546 541 c 1,30,-1
 463 516 l 1,31,32
 450 568 450 568 408.012479771 591.263355802 c 0,33,34
 376 609 376 609 332.200211629 609 c 0,35,36
 301 609 301 609 274.997117206 601.199135162 c 0,37,38
 241 591 241 591 222.797285697 570.977014267 c 0,39,40
 201 547 201 547 201 506.311354954 c 0,41,42
 201 472 201 472 225.635191567 417.961515273 c 0,43,44
 232 404 232 404 249 369 c 1,45,-1
 453 369 l 1,46,-1
 453 318 l 1,47,-1
 272 318 l 1,48,49
 282 296 282 296 286.440044543 273.799777283 c 0,50,51
 290 256 290 256 290 238.007513182 c 0,52,53
 290 188 290 188 259.263731028 146.645747201 c 0,54,55
 235 114 235 114 194 90 c 1,56,57
 211 97 211 97 228.430609057 99.9051015095 c 0,58,59
 241 102 241 102 254.994134986 102 c 0,60,61
 284 102 284 102 323.601252954 87.7435489367 c 0,62,63
 334 84 334 84 341.304217537 81.565260821 c 0,64,65
 388 66 388 66 423.749378391 66 c 0,66,67
 445 66 445 66 468.313923257 70.8387387892 c 0,68,69
 498 77 498 77 531 91 c 1,70,-1
 556 18 l 1,71,72
 519 2 519 2 485.956553156 -5.46142348101 c 0,73,74
 457 -12 457 -12 428.43335842 -12 c 0,75,76
 394 -12 394 -12 341.02738067 4.23354463325 c 0,77,78
 332 7 332 7 327.110819838 8.54824038468 c 0,79,80
 272 26 272 26 234.306259077 26 c 0,81,82
 208 26 208 26 178.552009883 18.4149116366 c 0,83,84
 142 9 142 9 101 -12 c 1,0,-1
EndSplineSet
EndChar

StartChar: currency
Encoding: 164 164 142
Width: 580
GlyphClass: 1
Flags: W
HStem: 103 75<214.58 365.727> 463 76<214.905 365.272>
VStem: 72 76<244.992 396.537> 432 76<244.592 396.352>
DStem2: 89 558 53 522 0.7063 -0.707913<0.0580521 96.7008 523.351 619.483> 53 119 89 84 0.7063 0.707913<0.649861 96.9586 523.732 620.075>
LayerCount: 2
Fore
SplineSet
290.5 178 m 128,-1,1
 330 178 330 178 363.121012866 198.183117215 c 0,2,3
 394 217 394 217 412.348890226 248.386259598 c 0,4,5
 432 282 432 282 432 321.328516867 c 0,6,7
 432 360 432 360 412.443464451 392.937323029 c 0,8,9
 394 424 394 424 363.651972425 442.493329304 c 0,10,11
 330 463 330 463 290.002960532 463 c 0,12,13
 251 463 251 463 217.464243927 442.878546356 c 0,14,15
 186 424 186 424 167.635587128 393.070462532 c 0,16,17
 148 360 148 360 148 320.679187284 c 0,18,19
 148 282 148 282 167.328797838 248.937582646 c 0,20,21
 186 217 186 217 217.414427538 198.151343477 c 0,22,0
 251 178 251 178 290.5 178 c 128,-1,1
89 84 m 1,23,-1
 53 119 l 1,24,-1
 119 185 l 1,25,26
 72 246 72 246 72 319.739887334 c 0,27,28
 72 357 72 357 83.9344405958 391.808785071 c 0,29,30
 96 427 96 427 119 456 c 1,31,-1
 53 522 l 1,32,-1
 89 558 l 1,33,-1
 155 492 l 1,34,35
 185 516 185 516 220.82889181 527.942963937 c 0,36,37
 254 539 254 539 289.646490803 539 c 0,38,39
 326 539 326 539 359.322279458 528.051251035 c 0,40,41
 396 516 396 516 425 492 c 1,42,-1
 491 558 l 1,43,-1
 527 522 l 1,44,-1
 461 456 l 1,45,46
 485 427 485 427 497.07927707 390.236982832 c 0,47,48
 508 357 508 357 508 321.465137898 c 0,49,50
 508 285 508 285 496.97655732 251.450391843 c 0,51,52
 485 215 485 215 461 185 c 1,53,-1
 527 119 l 1,54,-1
 491 84 l 1,55,-1
 425 149 l 1,56,57
 396 126 396 126 359.862435944 114.126228953 c 0,58,59
 326 103 326 103 290.297368948 103 c 0,60,61
 254 103 254 103 220.119349801 114.293550066 c 0,62,63
 185 126 185 126 155 149 c 1,64,-1
 89 84 l 1,23,-1
EndSplineSet
EndChar

StartChar: yen
Encoding: 165 165 143
Width: 595
GlyphClass: 1
Flags: W
HStem: 0 21G<251 345> 86 51<101 251 345 494> 223 51<101 242 353 494> 648 20G<10 124.455 470.607 585>
VStem: 251 94<0 86 137 223>
DStem2: 113 668 10 668 0.507402 -0.861709<0 372.202> 298 345 353 274 0.507402 0.861709<0 371.694>
LayerCount: 2
Fore
SplineSet
251 0 m 1,0,-1
 251 86 l 1,1,-1
 101 86 l 1,2,-1
 101 137 l 1,3,-1
 251 137 l 1,4,-1
 251 223 l 1,5,-1
 101 223 l 1,6,-1
 101 274 l 1,7,-1
 242 274 l 1,8,-1
 10 668 l 1,9,-1
 113 668 l 1,10,-1
 298 345 l 1,11,-1
 482 668 l 1,12,-1
 585 668 l 1,13,-1
 353 274 l 1,14,-1
 494 274 l 1,15,-1
 494 223 l 1,16,-1
 345 223 l 1,17,-1
 345 137 l 1,18,-1
 494 137 l 1,19,-1
 494 86 l 1,20,-1
 345 86 l 1,21,-1
 345 0 l 1,22,-1
 251 0 l 1,0,-1
EndSplineSet
EndChar

StartChar: brokenbar
Encoding: 166 166 144
Width: 233
GlyphClass: 1
Flags: W
HStem: -161 21G<76 157> 648 20G<76 157>
VStem: 76 81<-161 149 358 668>
LayerCount: 2
Fore
SplineSet
76 -161 m 1,0,-1
 76 149 l 1,1,-1
 157 149 l 1,2,-1
 157 -161 l 1,3,-1
 76 -161 l 1,0,-1
76 358 m 1,4,-1
 76 668 l 1,5,-1
 157 668 l 1,6,-1
 157 358 l 1,7,-1
 76 358 l 1,4,-1
EndSplineSet
EndChar

StartChar: section
Encoding: 167 167 145
Width: 530
GlyphClass: 1
Flags: W
HStem: -173 70<187.894 336.564> 610 70<185.306 329.616>
VStem: 31 84<240.196 341.817> 76 86<506.766 592.159> 363 86<-81.5734 17.8704> 416 84<176.152 281.76>
DStem2: 201 195 160 124 0.879543 -0.475819<-103.059 154.451> 257 456 218 387 0.88025 -0.47451<-20.2684 227.276>
LayerCount: 2
Fore
SplineSet
323 129 m 1,0,1
 357 143 357 143 380.179556988 162.250818516 c 0,2,3
 416 192 416 192 416 229.030571672 c 0,4,5
 416 256 416 256 395.789410649 279.933592652 c 0,6,7
 378 301 378 301 346 318 c 2,8,-1
 218 387 l 1,9,10
 194 380 194 380 172.707232671 368.221022329 c 0,11,12
 147 354 147 354 132.951170848 338.195067204 c 0,13,14
 115 318 115 318 115 290.325476294 c 0,15,16
 115 259 115 259 142.366875383 234.012852911 c 0,17,18
 161 217 161 217 201 195 c 2,19,-1
 323 129 l 1,0,1
260.223304703 -173 m 0,20,21
 187 -173 187 -173 136.048088723 -139.032059149 c 128,-1,22
 85 -105 85 -105 67 -44 c 1,23,-1
 150 -20 l 1,24,25
 160 -59 160 -59 185.262059743 -79.5839005312 c 0,26,27
 214 -103 214 -103 264.214515181 -103 c 0,28,29
 307 -103 307 -103 333.326896794 -87.0158126606 c 0,30,31
 363 -69 363 -69 363 -34.1699375432 c 0,32,33
 363 2 363 2 324.204031492 34.127911421 c 0,34,35
 299 55 299 55 254 77 c 2,36,-1
 160 124 l 2,37,38
 107 151 107 151 75.2054569158 184.88628934 c 0,39,40
 31 232 31 232 31 288.430409525 c 0,41,42
 31 339 31 339 70.648390461 377.531534392 c 0,43,44
 102 408 102 408 151 424 c 1,45,46
 122 444 122 444 104.041503664 467.81452775 c 0,47,48
 76 505 76 505 76 550.128976216 c 0,49,50
 76 594 76 594 104.981481348 625.168762959 c 0,51,52
 129 651 129 651 171.574653672 665.875481404 c 0,53,54
 212 680 212 680 258.684924815 680 c 0,55,56
 325 680 325 680 373.018706985 650.882273424 c 0,57,58
 419 623 419 623 439 574 c 1,59,-1
 358 550 l 1,60,61
 346 582 346 582 314.733799373 597.358835396 c 0,62,63
 289 610 289 610 253.431449356 610 c 0,64,65
 216 610 216 610 191.927835634 597.518136995 c 0,66,67
 162 582 162 582 162 552.386719696 c 0,68,69
 162 524 162 524 194.709983837 496.047831994 c 0,70,71
 217 477 217 477 257 456 c 2,72,-1
 371 398 l 2,73,74
 425 370 425 370 456.314852126 338.267616513 c 0,75,76
 500 294 500 294 500 238.162006933 c 0,77,78
 500 190 500 190 465.411224389 149.025604276 c 0,79,80
 435 113 435 113 385 91 c 1,81,82
 414 69 414 69 429.266407866 45.4461135775 c 0,83,84
 449 15 449 15 449 -25.7159382956 c 0,85,86
 449 -72 449 -72 422.488530179 -106.828793686 c 0,87,88
 398 -139 398 -139 353.988570761 -156.399867373 c 0,89,90
 312 -173 312 -173 260.223304703 -173 c 0,20,21
EndSplineSet
EndChar

StartChar: dieresis
Encoding: 168 168 146
Width: 425
GlyphClass: 1
Flags: W
HStem: 590 107<69.6301 145.106 280.999 356.099>
VStem: 53 108<606.706 680.922> 265 107<606.712 680.929>
LayerCount: 2
Fore
SplineSet
318.5 590 m 128,-1,1
 296 590 296 590 280.289904346 606.216872933 c 0,2,3
 265 622 265 622 265 643.924940361 c 128,-1,4
 265 666 265 666 280.513198227 681.513198227 c 128,-1,5
 296 697 296 697 318.495208281 697 c 128,-1,6
 341 697 341 697 356.587906527 681.412093473 c 128,-1,7
 372 666 372 666 372 644.031281406 c 128,-1,8
 372 622 372 622 356.70459076 606.211190462 c 0,9,0
 341 590 341 590 318.5 590 c 128,-1,1
107.5 590 m 128,-1,11
 85 590 85 590 68.9101095224 606.089890478 c 128,-1,12
 53 622 53 622 53 643.969013042 c 128,-1,13
 53 666 53 666 69.1326217842 681.628477353 c 0,14,15
 85 697 85 697 107.453180914 697 c 128,-1,16
 130 697 130 697 145.595136031 681.404863969 c 128,-1,17
 161 666 161 666 161 644.033861946 c 128,-1,18
 161 622 161 622 145.704136984 606.210722048 c 0,19,10
 130 590 130 590 107.5 590 c 128,-1,11
EndSplineSet
EndChar

StartChar: copyright
Encoding: 169 169 147
Width: 798
GlyphClass: 1
Flags: W
HStem: -12 62<288.784 509.219> 150 59<341.368 465.596> 473 58<340.232 460.143> 618 62<288.837 509.187>
VStem: 53 62<223.84 444.187> 227 76<251.056 432.398> 683 62<223.816 444.163>
LayerCount: 2
Fore
SplineSet
400.918624245 150 m 0,0,1
 317 150 317 150 271.143635068 202.480062089 c 0,2,3
 227 253 227 253 227 340.369681021 c 0,4,5
 227 431 227 431 275.224869184 481.763020193 c 0,6,7
 322 531 322 531 402.191602257 531 c 0,8,9
 457 531 457 531 496.441576151 505.801215237 c 0,10,11
 529 485 529 485 548 449 c 1,12,-1
 481 424 l 1,13,14
 455 473 455 473 401.353178553 473 c 0,15,16
 358 473 358 473 332.447602488 443.266301077 c 0,17,18
 303 409 303 409 303 340.853968038 c 0,19,20
 303 275 303 275 332.174860861 239.990166966 c 0,21,22
 358 209 358 209 401.365910639 209 c 0,23,24
 426 209 426 209 445.354612126 217.602049834 c 0,25,26
 471 229 471 229 484 254 c 1,27,-1
 550 230 l 1,28,29
 531 196 531 196 498.161238697 175.586715947 c 0,30,31
 457 150 457 150 400.918624245 150 c 0,0,1
399 50 m 128,-1,33
 458 50 458 50 511.052614699 72.6632528811 c 0,34,35
 561 94 561 94 599.701542236 132.701542236 c 0,36,37
 639 172 639 172 660.378641327 222.045455833 c 0,38,39
 683 275 683 275 683 334.410811551 c 0,40,41
 683 393 683 393 660.375144113 445.962730826 c 0,42,43
 639 496 639 496 600.280928681 534.719071319 c 0,44,45
 561 574 561 574 510.960283743 595.376189469 c 0,46,47
 458 618 458 618 398.587589908 618 c 0,48,49
 340 618 340 618 287.037620175 595.375294056 c 0,50,51
 237 574 237 574 198.280860291 535.280860291 c 0,52,53
 159 496 159 496 137.623820099 445.960306142 c 0,54,55
 115 393 115 393 115 333.58758367 c 0,56,57
 115 275 115 275 137.624705359 222.037621545 c 0,58,59
 159 172 159 172 197.719139976 133.280860024 c 0,60,61
 237 94 237 94 287.039693771 72.6238201367 c 0,62,32
 340 50 340 50 399 50 c 128,-1,33
399 -12 m 128,-1,64
 327 -12 327 -12 262.278427308 15.9597194028 c 0,65,66
 202 42 202 42 154.929771515 89.070228485 c 0,67,68
 107 137 107 137 80.8989932992 197.418996992 c 0,69,70
 53 262 53 262 53 334.589554138 c 0,71,72
 53 406 53 406 80.9042873221 470.59325769 c 0,73,74
 107 531 107 531 154.095478044 578.095478044 c 0,75,76
 202 626 202 626 262.410772687 652.097453801 c 0,77,78
 327 680 327 680 399.591846114 680 c 0,79,80
 471 680 471 680 535.592756747 652.095929085 c 0,81,82
 596 626 596 626 643.095576514 578.904423486 c 0,83,84
 691 531 691 531 717.097439941 470.589259395 c 0,85,86
 745 406 745 406 745 333.408144946 c 0,87,88
 745 262 745 262 717.095929929 197.407245207 c 0,89,90
 691 137 691 137 643.904423102 89.904423102 c 0,91,92
 596 42 596 42 535.58925952 15.9025601128 c 0,93,63
 471 -12 471 -12 399 -12 c 128,-1,64
EndSplineSet
EndChar

StartChar: questiondown
Encoding: 191 191 148
Width: 520
GlyphClass: 1
Flags: W
HStem: -174 70<179.559 342.964> 390 129<247.682 337.399>
VStem: 49 88<-64.5888 63.234> 228 129<409.59 499.313> 251 86<220.283 316> 397 82<-50.1289 -16.0366>
DStem2: 179.766 181.898 231.985 125.572 0.820266 0.571982<-111 99.2957>
LayerCount: 2
Fore
SplineSet
260.134771936 -174 m 0,0,1
 206 -174 206 -174 161.013946664 -157.598834721 c 0,2,3
 110 -139 110 -139 81.6088283736 -105.023679857 c 0,4,5
 49 -66 49 -66 49 -9.20025309193 c 0,6,7
 49 33 49 33 68.7002769968 71.3060941604 c 0,8,9
 85 103 85 103 117.940974933 134.237131402 c 0,10,11
 143 158 143 158 179.766122176 181.897979415 c 0,12,13
 203 197 203 197 215.554367536 207.271755257 c 0,14,15
 236 224 236 224 243.729229116 241.004304056 c 0,16,17
 251 257 251 257 251 282 c 2,18,-1
 251 316 l 1,19,-1
 337 316 l 1,20,-1
 337 279 l 2,21,22
 337 241 337 241 324.113699588 213.165591109 c 0,23,24
 312 187 312 187 281.356182848 161.163056127 c 0,25,26
 261 144 261 144 231.985015484 125.571563889 c 0,27,28
 187 97 187 97 165.427388444 71.9757705954 c 0,29,30
 137 39 137 39 137 -3.18813891567 c 0,31,32
 137 -50 137 -50 172.860079764 -77.6634901038 c 0,33,34
 207 -104 207 -104 262.818467843 -104 c 0,35,36
 307 -104 307 -104 338.322430374 -85.5421392439 c 0,37,38
 363 -71 363 -71 379.192218851 -44.0129685818 c 0,39,40
 393 -21 393 -21 397 5 c 1,41,-1
 479 -18 l 1,42,43
 464 -90 464 -90 403.302515878 -132.488238886 c 0,44,45
 344 -174 344 -174 260.134771936 -174 c 0,0,1
292.5 390 m 128,-1,47
 266 390 266 390 247.088786986 408.911213014 c 128,-1,48
 228 428 228 428 228 454.530886496 c 128,-1,49
 228 481 228 481 246.905673656 499.905673656 c 128,-1,50
 266 519 266 519 292.532808717 519 c 128,-1,51
 319 519 319 519 338.084593916 499.915406084 c 128,-1,52
 357 481 357 481 357 454.52956241 c 128,-1,53
 357 428 357 428 337.994704031 408.994704031 c 128,-1,46
 319 390 319 390 292.5 390 c 128,-1,47
EndSplineSet
EndChar

StartChar: germandbls
Encoding: 223 223 149
Width: 597
GlyphClass: 1
Flags: W
HStem: -12 74<302 410.781> 0 21G<76 160> 330 76<279 384.322> 611 69<213.57 392.027>
VStem: 76 84<0 554.803> 435 85<450.606 570.654> 469 90<117.041 271.713>
LayerCount: 2
Fore
SplineSet
316 -12 m 2,0,-1
 302 -12 l 1,1,-1
 279 65 l 1,2,3
 300 62 300 62 319.922973197 62 c 0,4,5
 386 62 386 62 424.981379061 92.9972411808 c 0,6,7
 469 128 469 128 469 196.124316971 c 0,8,9
 469 268 469 268 415.714358618 301.71132414 c 0,10,11
 371 330 371 330 291 330 c 2,12,-1
 279 330 l 1,13,-1
 279 406 l 1,14,-1
 285 406 l 2,15,16
 326 406 326 406 357.959983287 416.339994593 c 0,17,18
 394 428 394 428 413.506955692 450.361632135 c 0,19,20
 435 475 435 475 435 510.433681092 c 0,21,22
 435 555 435 555 401.29083982 582.760484854 c 0,23,24
 367 611 367 611 303.592169747 611 c 0,25,26
 232 611 232 611 197.649099359 576.649099359 c 0,27,28
 160 539 160 539 160 453 c 2,29,-1
 160 0 l 1,30,-1
 76 0 l 1,31,-1
 76 453 l 2,32,33
 76 489 76 489 81.8259577214 519.683377333 c 0,34,35
 91 568 91 568 112.594469336 599.702518813 c 0,36,37
 138 637 138 637 181.631767885 656.74911599 c 0,38,39
 233 680 233 680 305.554791441 680 c 0,40,41
 372 680 372 680 420.483012619 659.884707531 c 0,42,43
 466 641 466 641 491.791324657 607.089184247 c 0,44,45
 520 570 520 570 520 518.501587059 c 0,46,47
 520 471 520 471 497.101719545 436.175531808 c 0,48,49
 472 398 472 398 420 376 c 1,50,51
 479 361 479 361 513.424546205 325.284533312 c 0,52,53
 559 278 559 278 559 194.045010728 c 0,54,55
 559 121 559 121 521.712165119 71.2828868251 c 0,56,57
 490 29 490 29 431.641830357 7.24831858752 c 0,58,59
 380 -12 380 -12 316 -12 c 2,0,-1
EndSplineSet
EndChar

StartChar: AE
Encoding: 198 198 150
Width: 998
GlyphClass: 1
Flags: W
HStem: 0 81<600 960> 145 81<279 506> 303 81<600 866> 587 81<600 960>
VStem: 10 109<0 109> 506 94<81 145 226 303 384 546>
DStem2: 10 0 119 0 0.588316 0.808631<64.1264 242.563 341.008 341.008>
AnchorPoint: "Anchor-0" 659 668 basechar 0
LayerCount: 2
Fore
SplineSet
279 226 m 1,0,-1
 506 226 l 1,1,-1
 506 546 l 1,2,-1
 279 226 l 1,0,-1
10 0 m 1,3,-1
 496 668 l 1,4,-1
 960 668 l 1,5,-1
 960 587 l 1,6,-1
 600 587 l 1,7,-1
 600 384 l 1,8,-1
 866 384 l 1,9,-1
 866 303 l 1,10,-1
 600 303 l 1,11,-1
 600 81 l 1,12,-1
 960 81 l 1,13,-1
 960 0 l 1,14,-1
 506 0 l 1,15,-1
 506 145 l 1,16,-1
 223 145 l 1,17,-1
 119 0 l 1,18,-1
 10 0 l 1,3,-1
EndSplineSet
EndChar

StartChar: florin
Encoding: 279 402 151
Width: 321
GlyphClass: 1
Flags: W
HStem: -173 80<25.4528 97.1976> 429 67<25 109 193 296> 635 71<202.476 296>
VStem: 109 84<-71.6955 429 496 621.141>
LayerCount: 2
Fore
SplineSet
78.1143490077 -173 m 0,0,1
 66 -173 66 -173 52.738111048 -171.035275711 c 0,2,3
 39 -169 39 -169 25 -165 c 1,4,-1
 25 -90 l 1,5,6
 40 -93 40 -93 52.2276800448 -93 c 0,7,8
 83 -93 83 -93 97.2059066718 -72.2375210181 c 0,9,10
 109 -55 109 -55 109 -24 c 2,11,-1
 109 429 l 1,12,-1
 25 429 l 1,13,-1
 25 496 l 1,14,-1
 109 496 l 1,15,-1
 109 570 l 2,16,17
 109 621 109 621 118.055390945 648.166172836 c 0,18,19
 129 681 129 681 159.235987026 694.032753028 c 0,20,21
 187 706 187 706 242 706 c 2,22,-1
 296 706 l 1,23,-1
 296 635 l 1,24,-1
 244 635 l 2,25,26
 212 635 212 635 202.163348684 621.539319252 c 0,27,28
 193 609 193 609 193 571 c 2,29,-1
 193 496 l 1,30,-1
 296 496 l 1,31,-1
 296 429 l 1,32,-1
 193 429 l 1,33,-1
 193 -27 l 2,34,35
 193 -84 193 -84 175.403161569 -118.643775662 c 0,36,37
 161 -147 161 -147 132.958563754 -161.020718123 c 0,38,39
 109 -173 109 -173 78.1143490077 -173 c 0,0,1
EndSplineSet
EndChar

StartChar: integral
Encoding: 280 8747 152
Width: 458
GlyphClass: 1
Flags: W
HStem: -173 112<84.5213 138.796> 569 112<318.603 373.644>
VStem: 53 99<-126.85 -77.8134> 189 84<-97.4361 613.277> 305 100<585.912 634.507>
LayerCount: 2
Fore
SplineSet
136.641987029 -173 m 0,0,1
 105 -173 105 -173 83.8580066911 -162.022426551 c 0,2,3
 53 -146 53 -146 53 -113.368507414 c 0,4,5
 53 -91 53 -91 67.6059570858 -75.8903892215 c 0,6,7
 82 -61 82 -61 103.28434053 -61 c 0,8,9
 125 -61 125 -61 139.243272092 -77.3533864764 c 0,10,11
 152 -92 152 -92 152 -116 c 0,12,13
 152 -123 152 -123 150 -127 c 1,14,15
 162 -125 162 -125 169.068246032 -117.460537566 c 0,16,17
 177 -109 177 -109 181.890316155 -92.6989461505 c 0,18,19
 189 -69 189 -69 189 36.8558325967 c 0,20,21
 189 93 189 93 187.391077482 192.350965464 c 0,22,23
 185 340 185 340 185 398.726312726 c 0,24,25
 185 533 185 533 200.782500896 587.291803082 c 0,26,27
 210 619 210 619 230.370587605 642.426175746 c 0,28,29
 250 665 250 665 278.633554653 674.544518218 c 0,30,31
 298 681 298 681 320.484642263 681 c 0,32,33
 353 681 353 681 374.313008825 669.933630033 c 0,34,35
 405 654 405 654 405 620.812764713 c 0,36,37
 405 598 405 598 390.199900844 583.199900844 c 0,38,39
 376 569 376 569 354.970801828 569 c 0,40,41
 333 569 333 569 318.136394557 585.456134598 c 0,42,43
 305 600 305 600 305 618.946005952 c 0,44,45
 305 628 305 628 308 635 c 1,46,47
 296 633 296 633 288.999189633 625.532468942 c 0,48,49
 281 617 281 617 276.044983471 600.070360192 c 0,50,51
 269 576 269 576 269 470.311977663 c 0,52,53
 269 414 269 414 270.6103579 314.962989128 c 0,54,55
 273 168 273 168 273 108.981735765 c 0,56,57
 273 -26 273 -26 257.233794087 -80.2357483418 c 0,58,59
 248 -112 248 -112 227.260871382 -135.331519695 c 0,60,61
 208 -157 208 -157 181.000283295 -166.191392921 c 0,62,63
 161 -173 161 -173 136.641987029 -173 c 0,0,1
EndSplineSet
EndChar

StartChar: approxequal
Encoding: 281 8776 153
Width: 581
GlyphClass: 1
Flags: W
HStem: 97 73<316.775 440.126> 151 74<146.215 274.158> 283 73<318.501 440.993> 337 74<146.018 274.161>
DStem2: 284.685 391.725 278.069 313.71 0.930194 -0.367069<-66.8191 113.326> 283.224 205.52 278.069 127.71 0.930612 -0.366008<-65.6318 113.765>
LayerCount: 2
Fore
SplineSet
128 101 m 1,0,-1
 53 123 l 1,1,2
 64 169 64 169 98.9669822815 196.196541774 c 0,3,4
 136 225 136 225 192.986412652 225 c 0,5,6
 232 225 232 225 283.224163063 205.520388694 c 0,7,8
 303 198 303 198 318.9583579 190.792999658 c 0,9,10
 365 170 365 170 392.363562874 170 c 0,11,12
 414 170 414 170 430.27304004 182.08854403 c 0,13,14
 449 196 449 196 454 221 c 1,15,-1
 528 199 l 1,16,17
 517 153 517 153 481.864905722 125.672704451 c 0,18,19
 445 97 445 97 392.217699945 97 c 0,20,21
 356 97 356 97 300.129229142 118.862475553 c 0,22,23
 287 124 287 124 278.069227799 127.709705376 c 0,24,25
 222 151 222 151 190.255819105 151 c 0,26,27
 167 151 167 151 150.937195708 139.189114491 c 0,28,29
 133 126 133 126 128 101 c 1,0,-1
128 287 m 1,30,-1
 53 309 l 1,31,32
 65 355 65 355 99.6133302854 381.921479111 c 0,33,34
 137 411 137 411 194.691172289 411 c 0,35,36
 234 411 234 411 284.685070538 391.725395711 c 0,37,38
 305 384 305 384 321.347070657 376.496426584 c 0,39,40
 366 356 366 356 393.276738207 356 c 0,41,42
 415 356 415 356 430.969488208 368.211961571 c 0,43,44
 449 382 449 382 454 407 c 1,45,-1
 528 385 l 1,46,47
 517 339 517 339 481.864905722 311.672704451 c 0,48,49
 445 283 445 283 392.217699945 283 c 0,50,51
 356 283 356 283 300.129229142 304.862475553 c 0,52,53
 287 310 287 310 278.069227799 313.709705376 c 0,54,55
 222 337 222 337 190.255819105 337 c 0,56,57
 167 337 167 337 150.937195708 325.189114491 c 0,58,59
 133 312 133 312 128 287 c 1,30,-1
EndSplineSet
EndChar

StartChar: notequal
Encoding: 282 8800 154
Width: 602
GlyphClass: 1
Flags: W
HStem: 0 21G<77 191.05> 121 79<53 162 317 549> 307 80<53 292 448 549> 476 20G<410.872 524>
VStem: 77 100<0 100> 425 99<397 496>
DStem2: 77 0 177 0 0.574348 0.818611<57.4348 147.872 301.566 374.798 529.886 605.904>
LayerCount: 2
Fore
SplineSet
77 0 m 1,0,-1
 162 121 l 1,1,-1
 53 121 l 1,2,-1
 53 200 l 1,3,-1
 218 200 l 1,4,-1
 292 307 l 1,5,-1
 53 307 l 1,6,-1
 53 387 l 1,7,-1
 348 387 l 1,8,-1
 425 496 l 1,9,-1
 524 496 l 1,10,-1
 448 387 l 1,11,-1
 549 387 l 1,12,-1
 549 307 l 1,13,-1
 392 307 l 1,14,-1
 317 200 l 1,15,-1
 549 200 l 1,16,-1
 549 121 l 1,17,-1
 262 121 l 1,18,-1
 177 0 l 1,19,-1
 77 0 l 1,0,-1
EndSplineSet
EndChar

StartChar: lessequal
Encoding: 283 8804 155
Width: 579
GlyphClass: 1
Flags: W
HStem: 0 80<53 526> 100 90<436 526> 414 91<435 526>
VStem: 53 105<214.5 389.5>
LayerCount: 2
Fore
SplineSet
53 0 m 1,0,-1
 53 80 l 1,1,-1
 526 80 l 1,2,-1
 526 0 l 1,3,-1
 53 0 l 1,0,-1
526 100 m 1,4,-1
 53 267 l 1,5,-1
 53 337 l 1,6,-1
 526 505 l 1,7,-1
 526 414 l 1,8,-1
 158 302 l 1,9,-1
 526 190 l 1,10,-1
 526 100 l 1,4,-1
EndSplineSet
EndChar

StartChar: greaterequal
Encoding: 284 8805 156
Width: 579
GlyphClass: 1
Flags: W
HStem: 0 80<53 526> 100 90<53 143> 414 91<53 144>
VStem: 421 105<214.5 389.5>
LayerCount: 2
Fore
SplineSet
53 0 m 1,0,-1
 53 80 l 1,1,-1
 526 80 l 1,2,-1
 526 0 l 1,3,-1
 53 0 l 1,0,-1
53 100 m 1,4,-1
 53 190 l 1,5,-1
 421 302 l 1,6,-1
 53 414 l 1,7,-1
 53 505 l 1,8,-1
 526 337 l 1,9,-1
 526 267 l 1,10,-1
 53 100 l 1,4,-1
EndSplineSet
EndChar

StartChar: lozenge
Encoding: 285 9674 157
Width: 561
GlyphClass: 1
Flags: W
VStem: 53 87<271.5 358.5> 421 87<271.5 358.5>
DStem2: 53 315 140 315 0.506632 0.862163<44.077 321.569> 140 315 53 315 0.506632 -0.862163<0 277.492> 281 703 281 554 0.504977 -0.863133<128.607 405.592> 281 76 281 -73 0.504977 0.863133<0 276.986>
LayerCount: 2
Fore
SplineSet
281 76 m 1,0,-1
 421 315 l 1,1,-1
 281 554 l 1,2,-1
 140 315 l 1,3,-1
 281 76 l 1,0,-1
281 -73 m 1,4,-1
 53 315 l 1,5,-1
 281 703 l 1,6,-1
 508 315 l 1,7,-1
 281 -73 l 1,4,-1
EndSplineSet
EndChar

StartChar: summation
Encoding: 286 8721 158
Width: 587
GlyphClass: 1
Flags: W
HStem: -161 81<154 534> 587 81<154 534>
DStem2: 154 587 53 587 0.594187 -0.804327<0 353.998> 53 -80 154 -80 0.593035 0.805177<59.8965 414.816>
LayerCount: 2
Fore
SplineSet
53 -161 m 1,0,-1
 53 -80 l 1,1,-1
 299 254 l 1,2,-1
 53 587 l 1,3,-1
 53 668 l 1,4,-1
 534 668 l 1,5,-1
 534 587 l 1,6,-1
 154 587 l 1,7,-1
 399 254 l 1,8,-1
 154 -80 l 1,9,-1
 534 -80 l 1,10,-1
 534 -161 l 1,11,-1
 53 -161 l 1,0,-1
EndSplineSet
EndChar

StartChar: minus
Encoding: 287 8722 159
Width: 602
GlyphClass: 1
Flags: W
HStem: 209 79<53 549>
LayerCount: 2
Fore
SplineSet
53 209 m 1,0,-1
 53 288 l 1,1,-1
 549 288 l 1,2,-1
 549 209 l 1,3,-1
 53 209 l 1,0,-1
EndSplineSet
EndChar

StartChar: uni2215
Encoding: 288 8725 160
Width: 598
GlyphClass: 1
Flags: W
HStem: 0 21G<15 128.991> 649 20G<469.009 583>
VStem: 15 100<0 100> 483 100<569 669>
DStem2: 15 0 115 0 0.573216 0.819405<57.3216 816.447>
LayerCount: 2
Fore
SplineSet
15 0 m 1,0,-1
 483 669 l 1,1,-1
 583 669 l 1,2,-1
 115 0 l 1,3,-1
 15 0 l 1,0,-1
EndSplineSet
EndChar

StartChar: uni2219
Encoding: 289 8729 161
Width: 235
GlyphClass: 1
Flags: W
HStem: 191 129<72.5112 162.487>
VStem: 53 129<213.048 300.32>
LayerCount: 2
Fore
SplineSet
116.177222289 191 m 0,0,1
 88 191 88 191 69.2160982357 212.467316302 c 0,2,3
 53 231 53 231 53 255.490507842 c 0,4,5
 53 282 53 282 71.9129140979 300.912914098 c 128,-1,6
 91 320 91 320 117.530296088 320 c 128,-1,7
 144 320 144 320 163.085044821 300.914955179 c 128,-1,8
 182 282 182 282 182 256.029159577 c 128,-1,9
 182 230 182 230 163.439833548 210.951408115 c 0,10,11
 144 191 144 191 116.177222289 191 c 0,0,1
EndSplineSet
EndChar

StartChar: radical
Encoding: 290 8730 162
Width: 582
GlyphClass: 1
Flags: W
HStem: -161 21G<271.157 381.639> 145 80<53 159> 649 20G<437.516 529>
VStem: 441 88<581 669>
DStem2: 215 225 159 145 0.365088 -0.930973<54.033 281.519> 318 -37 378 -161 0.17899 0.983851<0 716.615>
LayerCount: 2
Fore
SplineSet
279 -161 m 1,0,-1
 159 145 l 1,1,-1
 53 145 l 1,2,-1
 53 225 l 1,3,-1
 215 225 l 1,4,-1
 318 -37 l 1,5,-1
 441 669 l 1,6,-1
 529 669 l 1,7,-1
 378 -161 l 1,8,-1
 279 -161 l 1,0,-1
EndSplineSet
EndChar

StartChar: infinity
Encoding: 291 8734 163
Width: 773
GlyphClass: 1
Flags: W
HStem: 104 76<158.879 283.808 490.466 614.301> 330 76<158.589 285.135 488.746 614.225>
VStem: 53 81<204.728 306.924> 639 81<204.802 306.761>
LayerCount: 2
Fore
SplineSet
555.621325575 180 m 0,0,1
 592 180 592 180 616.184305198 203.155185828 c 0,2,3
 639 225 639 225 639 256.921362497 c 0,4,5
 639 290 639 290 613.943268353 310.454474814 c 0,6,7
 590 330 590 330 554.154886336 330 c 0,8,9
 517 330 517 330 483.327198259 304.286224125 c 0,10,11
 462 288 462 288 435 256 c 1,12,13
 470 214 470 214 497.018025696 196.988650488 c 128,-1,14
 524 180 524 180 555.621325575 180 c 0,0,1
217.378674425 180 m 0,15,16
 249 180 249 180 276.254356737 196.547288019 c 0,17,18
 305 214 305 214 339 256 c 1,19,20
 312 288 312 288 290.645522895 304.307055244 c 0,21,22
 257 330 257 330 217.686045395 330 c 0,23,24
 183 330 183 330 159.61987306 310.91418209 c 0,25,26
 134 290 134 290 134 256.798369678 c 0,27,28
 134 225 134 225 156.964982173 203.012251111 c 0,29,30
 181 180 181 180 217.378674425 180 c 0,15,16
211.822630497 104 m 0,31,32
 142 104 142 104 97.552505039 146.449854738 c 128,-1,33
 53 189 53 189 53 254.472456499 c 0,34,35
 53 321 53 321 98.6859200692 363.209817455 c 0,36,37
 145 406 145 406 216.33517561 406 c 0,38,39
 273 406 273 406 323.90280961 372.478637574 c 0,40,41
 355 352 355 352 387 317 c 1,42,43
 419 352 419 352 449.880608091 372.587072061 c 0,44,45
 500 406 500 406 560.155654708 406 c 0,46,47
 628 406 628 406 673.582463155 363.885767738 c 0,48,49
 720 321 720 321 720 254.30392137 c 0,50,51
 720 189 720 189 675.918762428 146.899941644 c 0,52,53
 631 104 631 104 561.581130186 104 c 0,54,55
 505 104 505 104 452.575670371 139.573652248 c 0,56,57
 421 161 421 161 387 198 c 1,58,59
 353 161 353 161 321.52754955 139.643694338 c 0,60,61
 269 104 269 104 211.822630497 104 c 0,31,32
EndSplineSet
EndChar

StartChar: uni03A9
Encoding: 292 937 164
Width: 687
GlyphClass: 1
Flags: W
HStem: 0 173<233.78 286 401 453.169> 0 81<50 201 486 637> 606 74<247.859 438.028>
VStem: 50 73<289.296 479.855> 201 85<81 142.528> 401 85<81 142.548> 564 73<289.352 480.015>
LayerCount: 2
Fore
SplineSet
50 0 m 1,0,-1
 50 81 l 1,1,-1
 201 81 l 1,2,-1
 201 130 l 1,3,4
 134 168 134 168 93.7087336745 232.75382088 c 0,5,6
 50 303 50 303 50 386.261735141 c 0,7,8
 50 446 50 446 72.8835816344 500.412071886 c 0,9,10
 95 553 95 553 135.657896133 593.657896133 c 0,11,12
 176 634 176 634 227.042871375 656.15068003 c 0,13,14
 282 680 282 680 343.552972547 680 c 0,15,16
 404 680 404 680 458.957062162 656.373599444 c 0,17,18
 511 634 511 634 551.03547695 593.464079588 c 128,-1,19
 591 553 591 553 613.137213907 501.506915477 c 0,20,21
 637 446 637 446 637 384.328921862 c 0,22,23
 637 303 637 303 594.32271628 233.585140938 c 0,24,25
 554 168 554 168 486 130 c 1,26,-1
 486 81 l 1,27,-1
 637 81 l 1,28,-1
 637 0 l 1,29,-1
 401 0 l 1,30,-1
 401 173 l 1,31,32
 448 186 448 186 484.66620995 216.224848743 c 0,33,34
 522 247 522 247 542.724978499 290.423764474 c 0,35,36
 564 335 564 335 564 385.74336423 c 0,37,38
 564 446 564 446 533.08490015 497.525166416 c 0,39,40
 504 546 504 546 456.064956974 574.761025816 c 0,41,42
 404 606 404 606 342.887925653 606 c 0,43,44
 283 606 283 606 231.551488148 575.130892889 c 0,45,46
 183 546 183 546 154.227143619 498.045239366 c 0,47,48
 123 446 123 446 123 385.012865951 c 0,49,50
 123 335 123 335 144.323512124 290.322165075 c 0,51,52
 165 247 165 247 202.190189012 216.343222571 c 0,53,54
 239 186 239 186 286 173 c 1,55,-1
 286 0 l 1,56,-1
 50 0 l 1,0,-1
EndSplineSet
EndChar

StartChar: estimated
Encoding: 293 8494 165
Width: 622
GlyphClass: 1
Flags: W
HStem: -12 32<227.645 393.212> 248 31<159 463> 472 32<227.784 394.168>
VStem: 53 106<143.086 248 279 352.048> 463 106<279 350.429>
LayerCount: 2
Fore
SplineSet
159 279 m 1,0,-1
 463 279 l 1,1,-1
 463 413 l 1,2,3
 433 441 433 441 394.819689663 456.174225903 c 0,4,5
 355 472 355 472 310.771203613 472 c 0,6,7
 267 472 267 472 227.231120719 456.194419773 c 0,8,9
 189 441 189 441 159 413 c 1,10,-1
 159 279 l 1,0,-1
312.782281085 -12 m 0,11,12
 265 -12 265 -12 220.497369327 4.62735651515 c 0,13,14
 174 22 174 22 138.511209332 53.7033196631 c 0,15,16
 99 89 99 89 77.4294677805 136.36138596 c 0,17,18
 53 190 53 190 53 248.816622345 c 0,19,20
 53 300 53 300 72.1091690229 345.448834433 c 0,21,22
 90 388 90 388 122.461945778 422.371472 c 0,23,24
 158 460 158 460 202.67438889 480.691295907 c 0,25,26
 253 504 253 504 311.197042552 504 c 0,27,28
 382 504 382 504 442.126760646 468.540628337 c 0,29,30
 499 435 499 435 532.630188784 379.269972872 c 0,31,32
 569 319 569 319 569 248 c 1,33,-1
 159 248 l 1,34,-1
 159 78 l 1,35,36
 189 51 189 51 226.554710752 36.0744098294 c 0,37,38
 267 20 267 20 311.330601269 20 c 0,39,40
 362 20 362 20 407.975891102 41.9430389349 c 0,41,42
 450 62 450 62 481 97 c 1,43,-1
 514 87 l 1,44,45
 479 42 479 42 427.608124024 15.8192329932 c 0,46,47
 373 -12 373 -12 312.782281085 -12 c 0,11,12
EndSplineSet
EndChar

StartChar: partialdiff
Encoding: 294 8706 166
Width: 582
GlyphClass: 1
Flags: W
HStem: -12 73<217.585 363.713> 430 74<217.743 364.736> 598 82<142 309.952>
VStem: 53 89<142.414 348.948> 439 91<142.096 350.114>
LayerCount: 2
Fore
SplineSet
291 61 m 128,-1,1
 327 61 327 61 358.30103568 78.9520645814 c 0,2,3
 395 100 395 100 415.345378609 137.916387408 c 0,4,5
 439 182 439 182 439 247.160129708 c 0,6,7
 439 310 439 310 414.931104085 354.308649299 c 0,8,9
 395 391 395 391 359.287339271 411.482261301 c 0,10,11
 327 430 327 430 291.465142212 430 c 0,12,13
 255 430 255 430 223.352817514 411.849410045 c 0,14,15
 187 391 187 391 166.527756301 354.149961342 c 0,16,17
 142 310 142 310 142 244.619572894 c 0,18,19
 142 182 142 182 166.679136114 137.029129747 c 0,20,21
 187 100 187 100 222.750916051 79.495798147 c 0,22,0
 255 61 255 61 291 61 c 128,-1,1
292.085658983 -12 m 0,23,24
 248 -12 248 -12 207.799582015 2.18838281841 c 0,25,26
 163 18 163 18 130.120398297 48.0205059031 c 0,27,28
 94 81 94 81 74.6656329993 127.213852831 c 0,29,30
 53 179 53 179 53 247.433168311 c 0,31,32
 53 314 53 314 74.9517709697 365.93467766 c 0,33,34
 94 411 94 411 129.798360029 443.685459157 c 0,35,36
 163 474 163 474 207.657326998 489.761409529 c 0,37,38
 248 504 248 504 286.581242014 504 c 0,39,40
 322 504 322 504 353.710163921 494.116312544 c 0,41,42
 399 480 399 480 423 450 c 1,43,44
 403 514 403 514 358.410256012 549.345528771 c 0,45,46
 321 579 321 579 258.847150674 590.653659249 c 0,47,48
 209 600 209 600 142 598 c 1,49,-1
 142 680 l 1,50,51
 172 680 172 680 195.864185328 678.806790734 c 0,52,53
 252 676 252 676 292.477127667 666.340685443 c 0,54,55
 340 655 340 655 377.661952508 632.765835266 c 0,56,57
 423 606 423 606 454.186605904 565.038487768 c 0,58,59
 490 518 490 518 508.623094789 453.28474561 c 0,60,61
 530 379 530 379 530 284.458841768 c 0,62,63
 530 270 530 270 529.426552169 260.824834711 c 0,64,65
 529 254 529 254 528.950790034 252.326861162 c 0,66,67
 526 152 526 152 486.399749467 88.4164991441 c 0,68,69
 455 38 455 38 398.264890332 11.238155817 c 0,70,71
 349 -12 349 -12 292.085658983 -12 c 0,23,24
EndSplineSet
EndChar

StartChar: uni0394
Encoding: 295 916 167
Width: 759
GlyphClass: 1
Flags: W
HStem: 0 78<178 580> 660 20G<369.412 388.618>
DStem2: 53 0 178 78 0.4323 0.90173<124.372 589.991> 379 680 379 498 0.433377 -0.901213<164.021 629.639>
LayerCount: 2
Fore
SplineSet
178 78 m 1,0,-1
 580 78 l 1,1,-1
 379 498 l 1,2,-1
 178 78 l 1,0,-1
53 0 m 1,3,-1
 379 680 l 1,4,-1
 706 0 l 1,5,-1
 53 0 l 1,3,-1
EndSplineSet
EndChar

StartChar: product
Encoding: 296 8719 168
Width: 585
GlyphClass: 1
Flags: W
HStem: -161 21G<53 134 450 532> 587 81<134 450>
VStem: 53 81<-161 587> 450 82<-161 587>
LayerCount: 2
Fore
SplineSet
53 -161 m 1,0,-1
 53 668 l 1,1,-1
 532 668 l 1,2,-1
 532 -161 l 1,3,-1
 450 -161 l 1,4,-1
 450 587 l 1,5,-1
 134 587 l 1,6,-1
 134 -161 l 1,7,-1
 53 -161 l 1,0,-1
EndSplineSet
EndChar

StartChar: pi
Encoding: 297 960 169
Width: 591
GlyphClass: 1
Flags: W
HStem: 0 74<473.891 551> 414 82<20 104 185 383 467 551>
VStem: 104 81<0 414> 383 84<88.886 414>
LayerCount: 2
Fore
SplineSet
104 0 m 1,0,-1
 104 414 l 1,1,-1
 20 414 l 1,2,-1
 20 496 l 1,3,-1
 551 496 l 1,4,-1
 551 414 l 1,5,-1
 467 414 l 1,6,-1
 467 139 l 2,7,8
 467 100 467 100 473.622776602 88.5205205571 c 0,9,10
 482 74 482 74 518 74 c 2,11,-1
 551 74 l 1,12,-1
 551 0 l 1,13,-1
 500 0 l 2,14,15
 453 0 453 0 429.361810535 8.8063843106 c 0,16,17
 402 19 402 19 391.832867275 47.8960614303 c 0,18,19
 383 73 383 73 383 124 c 2,20,-1
 383 414 l 1,21,-1
 185 414 l 1,22,-1
 185 0 l 1,23,-1
 104 0 l 1,0,-1
EndSplineSet
EndChar

StartChar: hungarumlaut
Encoding: 298 733 170
Width: 414
GlyphClass: 1
Flags: W
HStem: 572 136
VStem: 53 308
LayerCount: 2
Fore
SplineSet
199 572 m 1,0,-1
 295 695 l 2,1,2
 305 708 305 708 322.005576266 708 c 0,3,4
 338 708 338 708 349.684530248 696.315469752 c 0,5,6
 361 685 361 685 361 669.51157409 c 0,7,8
 361 663 361 663 359.510549838 657.786924432 c 0,9,10
 357 649 357 649 350 643 c 2,11,-1
 269 572 l 1,12,-1
 199 572 l 1,0,-1
53 572 m 1,13,-1
 149 695 l 2,14,15
 159 708 159 708 176.709567367 708 c 0,16,17
 193 708 193 708 204.049470127 696.950529873 c 128,-1,18
 215 686 215 686 215 669.88637516 c 0,19,20
 215 663 215 663 213.484299428 657.695047998 c 0,21,22
 211 649 211 649 204 643 c 2,23,-1
 123 572 l 1,24,-1
 53 572 l 1,13,-1
EndSplineSet
EndChar

StartChar: tilde
Encoding: 299 732 171
Width: 435
GlyphClass: 1
Flags: W
HStem: 575 63<226.739 320.486> 618 63<123.313 217.51>
VStem: 53 65<577 614.431>
DStem2: 216.472 665.527 200.203 604.932 0.897051 -0.441926<-32.5024 72.6475>
LayerCount: 2
Fore
SplineSet
286.148166423 575 m 0,0,1
 269 575 269 575 250.482621027 581.365349022 c 0,2,3
 237 586 237 586 211.343746054 599.194644887 c 0,4,5
 202 604 202 604 200.202803003 604.931879924 c 0,6,7
 175 618 175 618 156.23605645 618 c 0,8,9
 123 618 123 618 118 577 c 1,10,-1
 53 577 l 1,11,12
 62 630 62 630 92.121595249 656.950901012 c 0,13,14
 119 681 119 681 159.9450532 681 c 0,15,16
 187 681 187 681 216.472004536 665.527197618 c 0,17,18
 227 660 227 660 234.813689301 655.088538154 c 0,19,20
 262 638 262 638 284.60529123 638 c 0,21,22
 298 638 298 638 307.441821568 644.664815225 c 0,23,24
 315 650 315 650 321.425295174 660.873576449 c 0,25,26
 328 672 328 672 337.591218153 676.795609077 c 0,27,28
 344 680 344 680 351.715411007 680 c 0,29,30
 365 680 365 680 373.952035834 669.994783479 c 0,31,32
 382 661 382 661 382 649.110705537 c 0,33,34
 382 634 382 634 369.240057269 617.313921044 c 0,35,36
 356 600 356 600 336.223118457 588.763135487 c 0,37,38
 312 575 312 575 286.148166423 575 c 0,0,1
EndSplineSet
EndChar

StartChar: endash
Encoding: 300 8211 172
Width: 480
GlyphClass: 1
InSpiro: 1
Flags: W
HStem: 208 79<41 439>
LayerCount: 2
Fore
SplineSet
41 208 m 1,0,-1
 41 287 l 1,1,-1
 439 287 l 1,2,-1
 439 208 l 1,3,-1
 41 208 l 1,0,-1
EndSplineSet
EndChar

StartChar: emdash
Encoding: 301 8212 173
Width: 800
GlyphClass: 1
Flags: W
HStem: 208 79<41 759>
LayerCount: 2
Fore
SplineSet
41 208 m 1,0,-1
 41 287 l 1,1,-1
 759 287 l 1,2,-1
 759 208 l 1,3,-1
 41 208 l 1,0,-1
EndSplineSet
EndChar

StartChar: trademark
Encoding: 302 8482 174
Width: 848
GlyphClass: 1
Flags: W
HStem: 292 92<512 676> 608 60<53 171 238 356>
VStem: 171 67<292 608> 393 67<292 571> 728 67<292 571>
DStem2: 501 668 460 571 0.311204 -0.950343<79.4239 298.839> 594 384 630 292 0.311204 0.950343<0 219.415>
LayerCount: 2
Fore
SplineSet
171 292 m 1,0,-1
 171 608 l 1,1,-1
 53 608 l 1,2,-1
 53 668 l 1,3,-1
 356 668 l 1,4,-1
 356 608 l 1,5,-1
 238 608 l 1,6,-1
 238 292 l 1,7,-1
 171 292 l 1,0,-1
393 292 m 1,8,-1
 393 668 l 1,9,-1
 501 668 l 1,10,-1
 594 384 l 1,11,-1
 687 668 l 1,12,-1
 795 668 l 1,13,-1
 795 292 l 1,14,-1
 728 292 l 1,15,-1
 728 571 l 1,16,-1
 630 292 l 1,17,-1
 558 292 l 1,18,-1
 460 571 l 1,19,-1
 460 292 l 1,20,-1
 393 292 l 1,8,-1
EndSplineSet
EndChar

StartChar: uni2113
Encoding: 303 8467 175
Width: 450
GlyphClass: 1
Flags: W
HStem: -12 73<220.997 336.894> 610 70<217.796 297.282>
VStem: 53 151<138 227> 119 85<77.9842 188 344 591.01> 312 82<439.913 596.336>
DStem2: 53 227 119 188 0.790478 0.61249<0 28.2845 191.024 315.005>
LayerCount: 2
Fore
SplineSet
204 344 m 1,0,1
 260 383 260 383 287.131127876 433.609988539 c 0,2,3
 312 480 312 480 312 533.867625104 c 0,4,5
 312 575 312 575 296.231997853 594.030347419 c 0,6,7
 283 610 283 610 257.822074699 610 c 0,8,9
 230 610 230 610 217.775817403 591.663726104 c 0,10,11
 204 571 204 571 204 518 c 2,12,-1
 204 344 l 1,0,1
256.852132401 -12 m 0,13,14
 185 -12 185 -12 152.085425517 27.896453919 c 0,15,16
 119 68 119 68 119 156 c 2,17,-1
 119 188 l 1,18,-1
 53 138 l 1,19,-1
 53 227 l 1,20,-1
 119 278 l 1,21,-1
 119 507 l 2,22,23
 119 589 119 589 150.357617435 631.590196815 c 0,24,25
 186 680 186 680 259.860704251 680 c 0,26,27
 327 680 327 680 362.649160718 637.433837949 c 0,28,29
 394 600 394 600 394 534.156704775 c 0,30,31
 394 479 394 479 371.30829046 429.490815549 c 0,32,33
 350 383 350 383 304.386886814 336.30086031 c 0,34,35
 266 297 266 297 204 251 c 1,36,-1
 204 151 l 2,37,38
 204 96 204 96 227.270712074 75.1160276259 c 0,39,40
 243 61 243 61 271.382296245 61 c 0,41,42
 297 61 297 61 323.297464095 74.7464016858 c 0,43,44
 341 84 341 84 360 100 c 1,45,-1
 397 42 l 1,46,47
 374 21 374 21 344.929897923 7.48854410521 c 0,48,49
 303 -12 303 -12 256.852132401 -12 c 0,13,14
EndSplineSet
EndChar

StartChar: Lslash
Encoding: 304 321 176
Width: 573
GlyphClass: 1
Flags: W
HStem: 0 81<204 563> 216 71<20 91> 434 71<313 384> 649 20G<110 204>
VStem: 110 94<81 270 397 669>
DStem2: 20 287 20 216 0.857909 0.513802<0 68.4771 214.373 387.808>
LayerCount: 2
Fore
SplineSet
110 0 m 1,0,-1
 110 270 l 1,1,-1
 20 216 l 1,2,-1
 20 287 l 1,3,-1
 110 340 l 1,4,-1
 110 669 l 1,5,-1
 204 669 l 1,6,-1
 204 397 l 1,7,-1
 384 505 l 1,8,-1
 384 434 l 1,9,-1
 204 326 l 1,10,-1
 204 81 l 1,11,-1
 563 81 l 1,12,-1
 563 0 l 1,13,-1
 110 0 l 1,0,-1
EndSplineSet
EndChar

StartChar: lslash
Encoding: 305 322 177
Width: 237
GlyphClass: 1
Flags: W
HStem: 0 74<159.474 222> 365 71<151 222> 648 20G<68 152>
VStem: 68 154<26.2251 74 365 394> 68 84<88.6851 273 394 668>
LayerCount: 2
Fore
SplineSet
186 0 m 2,0,1
 138 0 138 0 113.713738123 9.52402426563 c 0,2,3
 87 20 87 20 76.9597900584 48.006901416 c 0,4,5
 68 73 68 73 68 124 c 2,6,-1
 68 273 l 1,7,-1
 15 242 l 1,8,-1
 15 312 l 1,9,-1
 68 344 l 1,10,-1
 68 668 l 1,11,-1
 152 668 l 1,12,-1
 152 394 l 1,13,-1
 222 436 l 1,14,-1
 222 365 l 1,15,-1
 152 323 l 1,16,-1
 152 139 l 2,17,18
 152 100 152 100 159.191835885 88.3132666876 c 0,19,20
 168 74 168 74 204 74 c 2,21,-1
 222 74 l 1,22,-1
 222 0 l 1,23,-1
 186 0 l 2,0,1
EndSplineSet
EndChar

StartChar: oslash
Encoding: 248 248 178
Width: 552
GlyphClass: 1
Flags: W
HStem: -12 74<201.857 349.214> 430 74<202.689 350.563>
VStem: 38 89<146.477 348.502> 424 90<142.13 349.31>
DStem2: 45 24 83 -9 0.648973 0.760811<0 65.2719 159.663 483.31 570.122 634.403>
AnchorPoint: "Anchor-0" 276 496 basechar 0
LayerCount: 2
Fore
SplineSet
275.871882391 62 m 0,0,1
 312 62 312 62 343.481239858 80.0554169774 c 0,2,3
 380 101 380 101 400.221310826 138.22559493 c 0,4,5
 424 182 424 182 424 246.178648022 c 0,6,7
 424 281 424 281 416.739312202 310.042751191 c 0,8,9
 410 337 410 337 397 359 c 1,10,-1
 178 103 l 1,11,12
 199 82 199 82 225.962225569 71.426578208 c 0,13,14
 250 62 250 62 275.871882391 62 c 0,0,1
148 146 m 1,15,-1
 364 398 l 1,16,17
 345 415 345 415 319.906795708 423.182566617 c 0,18,19
 299 430 299 430 277.077071412 430 c 0,20,21
 240 430 240 430 208.211998511 411.768646205 c 0,22,23
 172 391 172 391 151.549408816 354.188935869 c 0,24,25
 127 310 127 310 127 246.198799385 c 0,26,27
 127 216 127 216 132.734855378 189.932475557 c 0,28,29
 138 166 138 166 148 146 c 1,15,-1
275.609722729 -12 m 0,30,31
 236 -12 236 -12 199.429823519 -0.427159341389 c 0,32,33
 157 13 157 13 125 40 c 1,34,-1
 83 -9 l 1,35,-1
 45 24 l 1,36,-1
 89 77 l 1,37,38
 66 108 66 108 53.2267384297 146.319784711 c 0,39,40
 38 192 38 192 38 248.010517959 c 0,41,42
 38 313 38 313 59.7444448095 364.974526618 c 0,43,44
 79 411 79 411 115.034926438 443.901454574 c 0,45,46
 148 474 148 474 192.581540335 489.734661295 c 0,47,48
 233 504 233 504 276.058592648 504 c 0,49,50
 313 504 313 504 346.673262135 494.178631877 c 0,51,52
 385 483 385 483 416 460 c 1,53,-1
 457 507 l 1,54,-1
 495 474 l 1,55,-1
 454 425 l 1,56,57
 481 394 481 394 496.083643567 353.319870381 c 0,58,59
 514 305 514 305 514 244.120893697 c 0,60,61
 514 179 514 179 492.24524114 127.000820285 c 0,62,63
 473 81 473 81 436.969685577 48.1027563965 c 0,64,65
 404 18 404 18 359.512756453 2.29861992465 c 0,66,67
 319 -12 319 -12 275.609722729 -12 c 0,30,31
EndSplineSet
EndChar

StartChar: Oslash
Encoding: 216 216 179
Width: 727
GlyphClass: 1
Flags: W
HStem: -12 79<268.845 457.013> 599 81<270.143 458.489> 653 20G<599.175 640.375>
VStem: 50 96<205.78 461.717> 581 96<205.778 459.877>
DStem2: 65 27 103 -6 0.649047 0.760749<0 87.3137 186.561 669.115 766.168 849.068>
AnchorPoint: "Anchor-0" 364 668 basechar 0
LayerCount: 2
Fore
SplineSet
361.688624878 67 m 0,0,1
 424 67 424 67 472.786841855 97.553375707 c 0,2,3
 523 129 523 129 550.7546471 185.944879395 c 0,4,5
 581 248 581 248 581 333.363140005 c 0,6,7
 581 386 581 386 568.845726081 430.917968831 c 0,8,9
 558 471 558 471 538 503 c 1,10,-1
 217 127 l 1,11,12
 275 67 275 67 361.688624878 67 c 0,0,1
186 169 m 1,13,-1
 506 543 l 1,14,15
 448 599 448 599 364.570733833 599 c 0,16,17
 303 599 303 599 254.500123203 569.116237529 c 0,18,19
 204 538 204 538 176.408714267 481.866004888 c 0,20,21
 146 420 146 420 146 333.364031249 c 0,22,23
 146 234 146 234 186 169 c 1,13,-1
364.440873182 -12 m 0,24,25
 302 -12 302 -12 248.428842042 7.76411652803 c 0,26,27
 199 26 199 26 160 60 c 1,28,-1
 103 -6 l 1,29,-1
 65 27 l 1,30,-1
 125 97 l 1,31,32
 89 142 89 142 69.7359658923 201.767900693 c 0,33,34
 50 263 50 263 50 334.348291421 c 0,35,36
 50 434 50 434 88.6385733098 512.78254558 c 0,37,38
 127 591 127 591 194.80445226 634.104258936 c 0,39,40
 267 680 267 680 362.926013244 680 c 0,41,42
 423 680 423 680 474.299156147 661.715152264 c 0,43,44
 524 644 524 644 563 610 c 1,45,-1
 616 673 l 1,46,-1
 655 641 l 1,47,-1
 599 574 l 1,48,49
 637 528 637 528 656.783039552 467.661729367 c 0,50,51
 677 406 677 406 677 333.310278769 c 0,52,53
 677 233 677 233 638.208538096 154.409505754 c 0,54,55
 600 77 600 77 532.347436355 33.9922988257 c 0,56,57
 460 -12 460 -12 364.440873182 -12 c 0,24,25
EndSplineSet
EndChar

StartChar: Thorn
Encoding: 222 222 180
Width: 576
GlyphClass: 1
Flags: W
HStem: 0 21G<76 160> 163 81<160 408.285> 447 81<160 405.791> 648 20G<76 160>
VStem: 76 84<0 163 244 447 528 668> 441 97<275.349 413.178>
LayerCount: 2
Fore
SplineSet
160 244 m 1,0,-1
 296 244 l 2,1,2
 337 244 337 244 362.832882185 248.76914748 c 0,3,4
 402 256 402 256 420.162705466 275.559836656 c 0,5,6
 441 298 441 298 441 344.762724194 c 0,7,8
 441 390 441 390 419.313584233 413.910663538 c 0,9,10
 402 433 402 433 365.030968492 440.962560632 c 0,11,12
 337 447 337 447 296 447 c 2,13,-1
 160 447 l 1,14,-1
 160 244 l 1,0,-1
76 0 m 1,15,-1
 76 668 l 1,16,-1
 160 668 l 1,17,-1
 160 528 l 1,18,-1
 287 528 l 2,19,20
 361 528 361 528 410.48449826 515.3004385 c 0,21,22
 474 499 474 499 504.491376575 461.362207041 c 0,23,24
 538 420 538 420 538 344.136283463 c 0,25,26
 538 270 538 270 503.522663253 227.98074584 c 0,27,28
 474 192 474 192 411.832937934 176.04562124 c 0,29,30
 361 163 361 163 287 163 c 2,31,-1
 160 163 l 1,32,-1
 160 0 l 1,33,-1
 76 0 l 1,15,-1
EndSplineSet
EndChar

StartChar: ae
Encoding: 230 230 181
Width: 874
GlyphClass: 1
Flags: W
HStem: -12 74<536.944 701.439> -12 66<156.945 320.539> 225 67<196.053 373 465 757> 436 68<186.809 335.667 536.025 684.284>
VStem: 38 93<79.1747 178.768> 373 92<292 367.365> 380 83<139.047 225> 757 88<292 363.877>
AnchorPoint: "Anchor-0" 433 496 basechar 0
LayerCount: 2
Fore
SplineSet
234.850755496 54 m 0,0,1
 307 54 307 54 344.453684645 96.0712622042 c 0,2,3
 380 136 380 136 380 209 c 2,4,-1
 380 225 l 1,5,6
 266 225 266 225 205.015839398 206.478884558 c 0,7,8
 131 184 131 184 131 129.80830333 c 0,9,10
 131 98 131 98 154.210489479 77.9752639789 c 0,11,12
 182 54 182 54 234.850755496 54 c 0,0,1
465 292 m 1,13,-1
 757 292 l 1,14,15
 756 327 756 327 738.989557449 358.104809235 c 0,16,17
 721 391 721 391 691.867524874 409.959229844 c 0,18,19
 658 432 658 432 612.924520968 432 c 0,20,21
 577 432 577 432 547.053608986 419.295470479 c 0,22,23
 511 404 511 404 490.790806619 374.1673812 c 0,24,25
 469 342 469 342 465 292 c 1,13,-1
216.907082486 -12 m 0,26,27
 162 -12 162 -12 122.167303286 5.36297036258 c 0,28,29
 84 22 84 22 62.2081190688 52.3191386869 c 0,30,31
 38 86 38 86 38 130.570618876 c 0,32,33
 38 191 38 191 85.9534608448 228.716205159 c 0,34,35
 127 261 127 261 207.194699419 277.355497908 c 0,36,37
 279 292 279 292 373 292 c 1,38,-1
 373 319 l 2,39,40
 373 342 373 342 367.394443633 362.180002921 c 0,41,42
 358 396 358 396 337.418954883 413.515783078 c 0,43,44
 311 436 311 436 262.403079162 436 c 0,45,46
 216 436 216 436 186.798077011 414.995108025 c 0,47,48
 159 395 159 395 151 359 c 1,49,-1
 70 383 l 1,50,51
 91 442 91 442 148.949620253 475.26737459 c 0,52,53
 199 504 199 504 270.572584085 504 c 0,54,55
 390 504 390 504 433 424 c 1,56,57
 466 462 466 462 511.654835292 482.618312712 c 0,58,59
 559 504 559 504 615.142309405 504 c 0,60,61
 674 504 674 504 721.40906503 478.963752175 c 0,62,63
 763 457 763 457 792.904962969 416.957761448 c 0,64,65
 822 378 822 378 835.548757839 327.819415411 c 0,66,67
 849 278 849 278 845 225 c 1,68,-1
 463 225 l 1,69,70
 466 163 466 163 493.949778145 122.752319471 c 0,71,72
 516 91 516 91 555.919058232 74.4621044466 c 0,73,74
 586 62 586 62 621.280120364 62 c 0,75,76
 658 62 658 62 688.317010752 76.3606893034 c 0,77,78
 715 89 715 89 733 111 c 1,79,-1
 814 87 l 1,80,81
 786 44 786 44 740.322545082 18.4206252461 c 0,82,83
 686 -12 686 -12 614.942961175 -12 c 0,84,85
 548 -12 548 -12 495.256398359 16.1995493924 c 0,86,87
 447 42 447 42 417 88 c 1,88,89
 392 45 392 45 343.700375545 18.5280904432 c 0,90,91
 288 -12 288 -12 216.907082486 -12 c 0,26,27
EndSplineSet
EndChar

StartChar: eth
Encoding: 240 240 182
Width: 567
GlyphClass: 1
Flags: W
HStem: -12 71<193.799 353.868> 371 74<193.591 353.937> 602 77<175 303.599>
VStem: 38 90<126.56 303.525> 419 98<148.641 383.238>
DStem2: 247 510 283 474 0.669811 0.742531<0 93.2146 180.734 237.48>
LayerCount: 2
Fore
SplineSet
273.5 59 m 128,-1,1
 340 59 340 59 380.088069175 103.147620484 c 0,2,3
 419 146 419 146 419 214.741255296 c 0,4,5
 419 284 419 284 380.125069594 326.811632219 c 0,6,7
 340 371 340 371 273.238978134 371 c 0,8,9
 207 371 207 371 166.950759809 326.895140549 c 0,10,11
 128 284 128 284 128 215.241540284 c 0,12,13
 128 146 128 146 166.946431518 103.10962605 c 0,14,0
 207 59 207 59 273.5 59 c 128,-1,1
276.403454903 -12 m 0,15,16
 202 -12 202 -12 146.004309043 21.2804578329 c 0,17,18
 96 51 96 51 67.1410413924 103.244666445 c 0,19,20
 38 156 38 156 38 221.144059911 c 0,21,22
 38 285 38 285 66.4068606252 336.741067567 c 0,23,24
 94 387 94 387 142.040206969 415.431959226 c 0,25,26
 192 445 192 445 257.752351359 445 c 0,27,28
 320 445 320 445 367.596942292 416.004161592 c 0,29,30
 407 392 407 392 430 352 c 1,31,32
 426 421 426 421 406.118476893 470.703807767 c 0,33,34
 388 516 388 516 356 547 c 1,35,-1
 283 474 l 1,36,-1
 247 510 l 1,37,-1
 313 576 l 1,38,39
 286 590 286 590 249.415189468 596.362575745 c 0,40,41
 217 602 217 602 175 602 c 1,42,-1
 175 679 l 1,43,44
 231 679 231 679 275.683195527 669.973091813 c 0,45,46
 330 659 330 659 371 634 c 1,47,-1
 417 680 l 1,48,-1
 453 644 l 1,49,-1
 413 604 l 1,50,51
 449 572 449 572 473.358810662 521.164221226 c 0,52,53
 495 476 495 476 506.348594718 417.193645554 c 0,54,55
 517 362 517 362 517 303.640106543 c 0,56,57
 517 243 517 243 506.634966357 192.076139057 c 0,58,59
 494 130 494 130 468.029389416 87.5026372255 c 0,60,61
 439 40 439 40 393.367680737 15.0223094558 c 0,62,63
 344 -12 344 -12 276.403454903 -12 c 0,15,16
EndSplineSet
EndChar

StartChar: thorn
Encoding: 254 254 183
Width: 566
GlyphClass: 1
Flags: W
HStem: -161 21G<70 154> -12 72<221.472 367.128> 433 72<221.912 367.278> 649 20G<70 154>
VStem: 70 84<-161 75 131.724 361.276 418 669> 434 94<136.487 355.903>
LayerCount: 2
Fore
SplineSet
293 60 m 128,-1,1
 357 60 357 60 394.75616021 108.053294812 c 0,2,3
 434 158 434 158 434 246.923386137 c 0,4,5
 434 335 434 335 394.747787376 384.957361521 c 0,6,7
 357 433 357 433 293.315699517 433 c 0,8,9
 229 433 229 433 191.305211618 385.024814786 c 0,10,11
 152 335 152 335 152 246.042041369 c 0,12,13
 152 158 152 158 191.24843524 108.047446058 c 0,14,0
 229 60 229 60 293 60 c 128,-1,1
70 -161 m 1,15,-1
 70 669 l 1,16,-1
 154 669 l 1,17,-1
 154 418 l 1,18,19
 177 457 177 457 213.779253585 479.067552151 c 0,20,21
 257 505 257 505 312.169197383 505 c 0,22,23
 372 505 372 505 420.081024238 474.763479603 c 0,24,25
 469 444 469 444 496.652575889 390.100911402 c 0,26,27
 528 329 528 329 528 245.754888091 c 0,28,29
 528 165 528 165 496.884647832 103.824053364 c 0,30,31
 469 49 469 49 420.021481653 18.199076091 c 0,32,33
 372 -12 372 -12 311.200863392 -12 c 0,34,35
 257 -12 257 -12 214.453177752 13.5280933487 c 0,36,37
 177 36 177 36 154 75 c 1,38,-1
 154 -161 l 1,39,-1
 70 -161 l 1,15,-1
EndSplineSet
EndChar

StartChar: multiply
Encoding: 215 215 184
Width: 528
GlyphClass: 1
Flags: W
HStem: 193 115<206.5 321.5>
DStem2: 110 462 53 404 0.707107 -0.707107<0.707107 217.789 299.813 516.188> 53 97 110 39 0.707107 0.707107<0 217.082 298.399 515.481>
LayerCount: 2
Fore
SplineSet
110 39 m 1,0,-1
 53 97 l 1,1,-1
 207 250 l 1,2,-1
 53 404 l 1,3,-1
 110 462 l 1,4,-1
 264 308 l 1,5,-1
 418 462 l 1,6,-1
 475 404 l 1,7,-1
 322 250 l 1,8,-1
 475 97 l 1,9,-1
 418 39 l 1,10,-1
 264 193 l 1,11,-1
 110 39 l 1,0,-1
EndSplineSet
EndChar

StartChar: divide
Encoding: 247 247 185
Width: 602
GlyphClass: 1
Flags: W
HStem: 14 129<255.596 346.105> 208 81<53 549> 354 129<255.718 345.912>
VStem: 236 129<33.7861 123.113 373.073 463.282>
CounterMasks: 1 e0
LayerCount: 2
Fore
SplineSet
301 14 m 128,-1,1
 274 14 274 14 255 33 c 128,-1,2
 236 52 236 52 236 78.5 c 128,-1,3
 236 105 236 105 254.911213014 123.911213014 c 128,-1,4
 274 143 274 143 301.03146926 143 c 128,-1,5
 328 143 328 143 346.792471578 123.699623784 c 0,6,7
 365 105 365 105 365 78.6055726192 c 0,8,9
 365 52 365 52 346.691396124 33.1965689922 c 0,10,0
 328 14 328 14 301 14 c 128,-1,1
53 208 m 1,11,-1
 53 289 l 1,12,-1
 549 289 l 1,13,-1
 549 208 l 1,14,-1
 53 208 l 1,11,-1
301 354 m 128,-1,16
 274 354 274 354 255.126672297 372.376661185 c 0,17,18
 236 391 236 391 236 418.044852609 c 128,-1,19
 236 445 236 445 254.992102702 463.992102702 c 128,-1,20
 274 483 274 483 301.002805036 483 c 128,-1,21
 328 483 328 483 346.622858319 463.873821186 c 0,22,23
 365 445 365 445 365 418.044976152 c 128,-1,24
 365 391 365 391 346.492302162 372.492302162 c 128,-1,15
 328 354 328 354 301 354 c 128,-1,16
EndSplineSet
EndChar

StartChar: OE
Encoding: 306 338 186
Width: 1052
GlyphClass: 1
Flags: W
HStem: -12 81<270.029 457.137> 0 81<655 1014> 304 81<655 920> 588 81<655 1014> 602 78<269.618 455.813>
VStem: 50 96<206.537 464.091> 581 74<207.174 304 385 464.755>
LayerCount: 2
Fore
SplineSet
363.247938118 69 m 0,0,1
 423 69 423 69 470.927719946 98.0471029975 c 0,2,3
 522 129 522 129 550.022311327 185.044622654 c 0,4,5
 581 247 581 247 581 337.121704948 c 0,6,7
 581 428 581 428 546.944900409 491.785742091 c 0,8,9
 518 546 518 546 465.374840765 575.470089172 c 0,10,11
 418 602 418 602 362.50383768 602 c 0,12,13
 303 602 303 602 255.071811425 572.468489868 c 0,14,15
 204 541 204 541 176.239853848 484.043838068 c 0,16,17
 146 422 146 422 146 334.594704847 c 0,18,19
 146 249 146 249 176.348208783 186.733847498 c 0,20,21
 204 130 204 130 254.329355737 98.9889828287 c 0,22,23
 303 69 303 69 363.247938118 69 c 0,0,1
362.408437509 -12 m 0,24,25
 267 -12 267 -12 194.975568591 33.7869599669 c 0,26,27
 127 77 127 77 89.050353701 154.377850246 c 0,28,29
 50 234 50 234 50 335.860163438 c 0,30,31
 50 437 50 437 88.9112678028 515.327876746 c 0,32,33
 127 592 127 592 194.641088576 634.517255676 c 0,34,35
 267 680 267 680 363.727462934 680 c 0,36,37
 431 680 431 680 488.157190965 657.137123614 c 0,38,39
 541 636 541 636 581 597 c 1,40,-1
 581 669 l 1,41,-1
 1014 669 l 1,42,-1
 1014 588 l 1,43,-1
 655 588 l 1,44,-1
 655 385 l 1,45,-1
 920 385 l 1,46,-1
 920 304 l 1,47,-1
 655 304 l 1,48,-1
 655 81 l 1,49,-1
 1014 81 l 1,50,-1
 1014 0 l 1,51,-1
 581 0 l 1,52,-1
 581 75 l 1,53,54
 541 34 541 34 488.294603484 11.9595614568 c 0,55,56
 431 -12 431 -12 362.408437509 -12 c 0,24,25
EndSplineSet
EndChar

StartChar: oe
Encoding: 307 339 187
Width: 927
GlyphClass: 1
Flags: W
HStem: -12 74<202.625 349.129 589.96 754.077> 225 67<517 809> 431 74<202.916 349.918 579.75 747.527>
VStem: 38 89<143.385 349.558> 424 92<142.535 225 292 350.269> 809 89<292 363.972>
LayerCount: 2
Fore
SplineSet
276 62 m 128,-1,1
 312 62 312 62 343.451211268 80.038194698 c 0,2,3
 380 101 380 101 400.225802024 138.233862816 c 0,4,5
 424 182 424 182 424 247.750472828 c 0,6,7
 424 311 424 311 399.89568712 355.373848711 c 0,8,9
 380 392 380 392 344.302418925 412.473612675 c 0,10,11
 312 431 312 431 276.460940479 431 c 0,12,13
 240 431 240 431 208.353792299 412.849969113 c 0,14,15
 172 392 172 392 151.614078879 355.305341982 c 0,16,17
 127 311 127 311 127 245.052165322 c 0,18,19
 127 182 127 182 151.817471959 137.328550473 c 0,20,21
 172 101 172 101 207.54071665 80.6163536862 c 0,22,0
 240 62 240 62 276 62 c 128,-1,1
517 292 m 1,23,-1
 809 292 l 1,24,25
 808 328 808 328 791.545741351 358.972722162 c 0,26,27
 774 392 774 392 744.889459985 410.944954613 c 0,28,29
 711 433 711 433 665.716907784 433 c 0,30,31
 629 433 629 433 598.671047684 419.468621274 c 0,32,33
 564 404 564 404 543.830538421 374.918450747 c 0,34,35
 521 342 521 342 517 292 c 1,23,-1
275.580850814 -12 m 0,36,37
 233 -12 233 -12 193.167324833 2.05859123528 c 0,38,39
 148 18 148 18 115.050036827 48.0847489844 c 0,40,41
 79 81 79 81 59.675593499 127.190044807 c 0,42,43
 38 179 38 179 38 247.4409231 c 0,44,45
 38 314 38 314 60.0022922452 366.054203605 c 0,46,47
 79 411 79 411 114.469005024 443.898787269 c 0,48,49
 148 475 148 475 193.032485185 490.893818301 c 0,50,51
 233 505 233 505 275.279879539 505 c 0,52,53
 331 505 331 505 379.471258564 482.593474815 c 0,54,55
 437 456 437 456 471 404 c 1,56,57
 503 452 503 452 553.869189253 478.43202971 c 0,58,59
 605 505 605 505 667.355345461 505 c 0,60,61
 726 505 726 505 773.464810636 480.212821112 c 0,62,63
 816 458 816 458 846.328037495 416.877237295 c 0,64,65
 875 378 875 378 888.475044033 328.092429509 c 128,-1,66
 902 278 902 278 898 225 c 1,67,-1
 516 225 l 1,68,69
 518 163 518 163 546.844706849 122.278060919 c 0,70,71
 569 91 569 91 609.001629678 74.4278962763 c 0,72,73
 639 62 639 62 674.255391852 62 c 0,74,75
 711 62 711 62 740.992346632 76.4605956975 c 0,76,77
 767 89 767 89 785 111 c 1,78,-1
 866 87 l 1,79,80
 838 44 838 44 793.150656301 18.630674271 c 0,81,82
 739 -12 739 -12 667.824374004 -12 c 0,83,84
 601 -12 601 -12 548.278739203 16.1876047825 c 0,85,86
 500 42 500 42 470 88 c 1,87,88
 436 37 436 37 378.528123008 10.4328115792 c 0,89,90
 330 -12 330 -12 275.580850814 -12 c 0,36,37
EndSplineSet
EndChar

StartChar: Aring
Encoding: 197 197 191
Width: 626
GlyphClass: 2
Flags: W
HStem: 0 21G<10 116.986 509.014 616> 146 81<190 436> 574 104<261 365> 780 58<273.304 352.372>
VStem: 204 57<690.577 767.467> 365 57<690.828 767.185>
DStem2: 10 0 110 0 0.351277 0.936272<35.1277 189.738 275.763 275.763> 377.011 639.535 313 574 0.350049 -0.936731<38.9822 407.084>
AnchorPoint: "Anchor-2" 615 0 basechar 0
AnchorPoint: "Anchor-1" 313 0 basechar 0
AnchorPoint: "Anchor-0" 313 788 basechar 0
LayerCount: 2
Fore
SplineSet
377.010682896 639.53541257 m 1,0,-1
 616 0 l 1,1,-1
 516 0 l 1,2,-1
 465 146 l 1,3,-1
 161 146 l 1,4,-1
 110 0 l 1,5,-1
 10 0 l 1,6,-1
 250.376862955 640.685742297 l 1,7,8
 231.317085123 654.471524795 231.317085123 654.471524795 219.28303744 674.528270934 c 0,9,10
 204 700 204 700 204 729.637862439 c 0,11,12
 204 759 204 759 219.479987417 784.283979448 c 0,13,14
 234 808 234 808 257.658515492 822.195109295 c 0,15,16
 284 838 284 838 315.635306605 838 c 0,17,18
 361 838 361 838 392.217059299 804.735920419 c 0,19,20
 422 773 422 773 422 729.261696965 c 0,21,22
 422 685 422 685 391.790113585 652.809137426 c 0,23,24
 384.646640707 645.197240097 384.646640707 645.197240097 377.010682896 639.53541257 c 1,0,-1
190 227 m 1,25,-1
 436 227 l 1,26,-1
 313 574 l 1,27,-1
 190 227 l 1,25,-1
313 678 m 128,-1,29
 335 678 335 678 350.174442194 693.174442194 c 0,30,31
 365 708 365 708 365 728.938587613 c 128,-1,32
 365 750 365 750 350.16349309 764.83650691 c 0,33,34
 335 780 335 780 312.940377025 780 c 128,-1,35
 291 780 291 780 275.835733312 764.835733312 c 0,36,37
 261 750 261 750 261 729.05781032 c 128,-1,38
 261 708 261 708 275.835865581 693.164134419 c 0,39,28
 291 678 291 678 313 678 c 128,-1,29
EndSplineSet
EndChar

StartChar: Ccedilla
Encoding: 199 199 202
Width: 656
GlyphClass: 2
Flags: W
HStem: -181 41<273.531 370.843> -81 40<345 375.923> -11.8128 78.8128<365.319 455.772> 499 21G<521 586.667> 601 79<264.095 452.663>
VStem: 50 96<203.191 466.143> 382 62<-130.83 -86.1823>
AnchorPoint: "Anchor-1" 352 -181 basechar 0
AnchorPoint: "Anchor-0" 353 668 basechar 0
LayerCount: 2
Fore
SplineSet
348.869663696 -181 m 0,0,1
 328 -181 328 -181 305.398642339 -175.743870311 c 0,2,3
 285 -171 285 -171 259 -161 c 1,4,-1
 273 -126 l 1,5,6
 290 -133 290 -133 304.5 -136.5 c 128,-1,7
 319 -140 319 -140 332.70450657 -140 c 0,8,9
 357 -140 357 -140 371.292407777 -127.422681156 c 0,10,11
 382 -118 382 -118 382 -106.365765304 c 0,12,13
 382 -96 382 -96 374.516739169 -89.3971227959 c 0,14,15
 365 -81 365 -81 346.724240805 -81 c 0,16,17
 339 -81 339 -81 327.969039541 -83.2061920917 c 0,18,19
 324 -84 324 -84 318.999883936 -85.3636680173 c 0,20,21
 302 -90 302 -90 292.977673993 -81.5791623933 c 0,22,23
 287 -76 287 -76 287 -67.2199886455 c 0,24,25
 287 -61 287 -61 290 -57 c 2,26,-1
 318.926399804 -10.4908865899 l 1,27,28
 245.477534428 -3.80515120631 245.477534428 -3.80515120631 187.966209736 33.830936276 c 0,29,30
 122 77 122 77 86.2000528797 154.566552094 c 0,31,32
 50 233 50 233 50 334.41398558 c 0,33,34
 50 439 50 439 89.1349078522 517.778061261 c 0,35,36
 127 594 127 594 195.487782808 636.071066582 c 0,37,38
 267 680 267 680 358.647225505 680 c 0,39,40
 445 680 445 680 511.367741008 641.654194084 c 0,41,42
 580 602 580 602 614 529 c 1,43,-1
 532 499 l 1,44,45
 510 544 510 544 468.806018774 570.382662134 c 0,46,47
 421 601 421 601 358.68428224 601 c 0,48,49
 297 601 297 601 250.34039134 571.530773478 c 0,50,51
 202 541 202 541 175.305051794 484.273235062 c 0,52,53
 146 422 146 422 146 334.749139577 c 0,54,55
 146 251 146 251 173.674999833 189.50000037 c 0,56,57
 200 131 200 131 248.566127975 98.9563691709 c 128,-1,58
 297 67 297 67 362.597387883 67 c 0,59,60
 424 67 424 67 470.759642838 96.4217977407 c 0,61,62
 513 123 513 123 536 169 c 1,63,-1
 618 139 l 1,64,65
 582 65 582 65 510.283426057 25.5558843312 c 0,66,67
 446.880748313 -9.31558842811 446.880748313 -9.31558842811 365.318675836 -11.8128294679 c 1,68,-1
 345 -45 l 1,69,70
 353 -43 353 -43 360.5 -42 c 128,-1,71
 368 -41 368 -41 375.92279032 -41 c 0,72,73
 410 -41 410 -41 428.842052208 -61.5045862265 c 0,74,75
 444 -78 444 -78 444 -101.026134063 c 0,76,77
 444 -130 444 -130 423.262560642 -152.033529318 c 0,78,79
 396 -181 396 -181 348.869663696 -181 c 0,0,1
EndSplineSet
EndChar

